<?xml version="1.0" encoding="UTF-8"?>
<svg viewBox="0 0 399.28571 295.71429" xmlns="http://www.w3.org/2000/svg" xmlns:xlink="http://www.w3.org/1999/xlink">
 <defs>
  <linearGradient id="b">
   <stop stop-color="#f4f7f7" stop-opacity="0" offset="0"/>
   <stop stop-color="#464e3b" stop-opacity=".55782" offset="1"/>
  </linearGradient>
  <linearGradient id="e">
   <stop stop-color="#fcffff" stop-opacity="0" offset="0"/>
   <stop stop-color="#ececec" stop-opacity=".99608" offset="1"/>
  </linearGradient>
  <linearGradient id="g">
   <stop stop-color="#08100a" offset="0"/>
   <stop stop-color="#595b5a" offset="1"/>
  </linearGradient>
  <linearGradient id="c">
   <stop stop-color="#e8ebeb" offset="0"/>
   <stop stop-color="#5f6161" stop-opacity=".96078" offset="1"/>
  </linearGradient>
  <linearGradient id="a">
   <stop stop-color="#fcffff" offset="0"/>
   <stop stop-color="#656666" stop-opacity=".9932" offset="1"/>
  </linearGradient>
  <linearGradient id="h">
   <stop stop-color="#cbcce4" offset="0"/>
   <stop stop-color="#575f66" offset="1"/>
  </linearGradient>
  <linearGradient id="d">
   <stop stop-color="#a3aebc" offset="0"/>
   <stop stop-color="#5a5f66" offset="1"/>
  </linearGradient>
  <linearGradient id="ad" x1="465.71" x2="496.43" y1="238.38" y2="400.52" gradientUnits="userSpaceOnUse">
   <stop stop-color="#020d22" offset="0"/>
   <stop stop-color="#00366d" offset=".5"/>
   <stop stop-color="#1350bf" offset="1"/>
  </linearGradient>
  <linearGradient id="w" x1="749.55" x2="724.55" y1="299.09" y2="299.81" gradientTransform="matrix(1 -.043932 0 1 0 32.416)" gradientUnits="userSpaceOnUse">
   <stop stop-color="#cadaf3" offset="0"/>
   <stop stop-color="#636b78" offset="1"/>
  </linearGradient>
  <linearGradient id="t" x1="685.71" x2="693.93" y1="261.22" y2="292.02" gradientUnits="userSpaceOnUse">
   <stop stop-color="#f6ffff" stop-opacity=".65359" offset="0"/>
   <stop stop-color="#faffff" stop-opacity=".60544" offset=".5"/>
   <stop stop-color="#a1a1a1" stop-opacity=".6732" offset="1"/>
  </linearGradient>
  <linearGradient id="ac" x1="593.04" x2="587.68" y1="312.49" y2="314.54" gradientUnits="userSpaceOnUse" xlink:href="#a"/>
  <linearGradient id="ab" x1="593.04" x2="589.64" y1="311.86" y2="313.92" gradientUnits="userSpaceOnUse" xlink:href="#c"/>
  <linearGradient id="p" x1="565.18" x2="564.34" y1="316.15" y2="313.68" gradientUnits="userSpaceOnUse" xlink:href="#d"/>
  <linearGradient id="o" x1="565.18" x2="564.34" y1="316.15" y2="313.68" gradientTransform="matrix(.8736 0 0 .83816 49.322 51.072)" gradientUnits="userSpaceOnUse" xlink:href="#d"/>
  <linearGradient id="n" x1="565.27" x2="564.34" y1="317.09" y2="313.68" gradientTransform="matrix(1.4213 .25418 0 1.1312 -188.57 -184.11)" gradientUnits="userSpaceOnUse" xlink:href="#d"/>
  <linearGradient id="af" x1="606.79" x2="595.48" y1="279.49" y2="281.57" gradientUnits="userSpaceOnUse" xlink:href="#e"/>
  <linearGradient id="ae" x1="603.69" x2="607.73" y1="278.54" y2="271.6" gradientUnits="userSpaceOnUse" xlink:href="#e"/>
  <linearGradient id="aa" x1="742.93" x2="729.86" y1="299.57" y2="311.59" gradientUnits="userSpaceOnUse" xlink:href="#a"/>
  <linearGradient id="z" x1="731.35" x2="737.92" y1="312.51" y2="303.26" gradientUnits="userSpaceOnUse" xlink:href="#c"/>
  <linearGradient id="y" x1="733.9" x2="731.22" y1="314.23" y2="308.16" gradientUnits="userSpaceOnUse" xlink:href="#b"/>
  <linearGradient id="x" x1="722.86" x2="708.04" y1="302.57" y2="315.88" gradientUnits="userSpaceOnUse" xlink:href="#a"/>
  <linearGradient id="v" x1="714.82" x2="715.36" y1="309.45" y2="319.09" gradientTransform="matrix(1 0 0 -1 -5e-5 629.44)" gradientUnits="userSpaceOnUse" xlink:href="#b"/>
  <linearGradient id="u" x1="714.7" x2="712.02" y1="318.02" y2="311.95" gradientUnits="userSpaceOnUse" xlink:href="#b"/>
  <linearGradient id="s" x1="705.21" x2="711.53" y1="268.19" y2="257.76" gradientUnits="userSpaceOnUse" xlink:href="#b"/>
  <linearGradient id="r" x1="654.64" x2="656.07" y1="305.17" y2="311.24" gradientTransform="matrix(1.0485 0 0 1.0546 -30.409 -17.239)" gradientUnits="userSpaceOnUse" xlink:href="#h"/>
  <linearGradient id="q" x1="610.18" x2="610.54" y1="322.67" y2="310.26" gradientUnits="userSpaceOnUse" xlink:href="#h"/>
  <radialGradient id="m" cx="598.05" cy="319.25" r="6.0268" gradientTransform="matrix(.88368 .18076 -.47543 1.8046 219.92 -363.97)" gradientUnits="userSpaceOnUse" xlink:href="#g"/>
  <radialGradient id="l" cx="585.39" cy="325.14" r="10.44" gradientTransform="matrix(1.291 -.052142 .025659 .63527 -179.42 146.46)" gradientUnits="userSpaceOnUse" xlink:href="#c"/>
  <radialGradient id="k" cx="598.05" cy="319.25" r="6.0268" gradientTransform="matrix(-2.392 .34807 -.2117 -1.1295 2094.7 472.69)" gradientUnits="userSpaceOnUse" xlink:href="#g"/>
  <radialGradient id="j" cx="595.85" cy="320.26" r="6.0268" gradientTransform="matrix(-.035003 -.97506 4.5655 -.15601 -845.43 951.21)" gradientUnits="userSpaceOnUse" xlink:href="#a"/>
  <radialGradient id="i" cx="534.46" cy="312.99" r="3.0893" gradientTransform="matrix(-.69364 .11561 -.15014 -.90087 952.19 533.2)" gradientUnits="userSpaceOnUse" xlink:href="#a"/>
  <radialGradient id="f" cx="721.68" cy="310.81" r="7.4107" gradientTransform="matrix(-2.5804 .38371 -.16034 -.82555 2637.3 291.41)" gradientUnits="userSpaceOnUse" xlink:href="#e"/>
 </defs>
 <g transform="translate(-425.71 -200.52)">
  <path d="m426.52 200.52h397.68a0.80475 0.45664 0 0 1 0.80475 0.45664v294.8a0.80475 0.45664 0 0 1 -0.80475 0.45664h-397.68a0.80475 0.45664 0 0 1 -0.80475 -0.45664v-294.8a0.80475 0.45664 0 0 1 0.80475 -0.45664" fill="url(#ad)" opacity=".97636"/>
  <g transform="translate(12 54.399)">
   <path d="m728.75 311.1c0.15757 3.5493 5.6726 5.0013 8.1938 5.1626s5.9878 0 7.721-0.484 5.1999-2.904 4.8847-7.7439-4.7272-5.4853-6.7756-5.8079-5.3575 0.32266-8.1938 1.452-5.0423 3.388-5.515 4.8399-0.31515 2.7426-0.31515 2.5813z" fill="url(#aa)" fill-rule="evenodd"/>
   <path d="m735.9 300.38 4.0406 2.2728s-4.5457 1.0102-6.0609 3.0305-11.112-3.5355-11.112-3.5355l5.3033-1.2627 7.8287-0.50507z" fill="url(#z)" fill-rule="evenodd"/>
   <path d="m736.52 305.65c-4.83 0-9.6429 2.3734-9.6429 5.2812s3.92 5.2812 8.75 5.2812c1.9901 0 3.8107-0.4192 5.2812-1.0938-3.2438-1.3366-0.29018-0.80295-0.29018-3.9107 0-0.80836-5.0203-4.8219-4.7411-5.558h0.64286z" fill="url(#y)" opacity=".70303"/>
   <path d="m706.79 315.34c0.17857 3.9286 6.4286 5.5357 9.2857 5.7143s6.7857 0 8.75-0.53572 5.8928-3.2143 5.5357-8.5714-5.3571-6.0714-7.6786-6.4286-6.0714 0.35714-9.2857 1.6071-5.7143 3.75-6.25 5.3571-0.35715 3.0357-0.35715 2.8571z" fill="url(#x)" fill-rule="evenodd"/>
   <path d="m721.61 302.76 32.054-3.4618s0.98214-0.13244 0.08929-0.71821-5.4464-6.2786-5.4464-6.2786l0.71429 5.9508-26.696 1.3514-0.71429 3.1564z" fill="url(#w)" fill-rule="evenodd"/>
   <path d="m716.44 320c-4.83 0-8.75-2.3734-8.75-5.2812s3.92-5.2812 8.75-5.2812c1.9901 0 3.8107 0.4192 5.2812 1.0938-3.2438 1.3366-5.4688 4.0172-5.4688 7.125 0 0.80836 0.15828 1.6076 0.4375 2.3438h-0.25z" fill="url(#v)" opacity=".70303"/>
   <path d="m717.33 309.44c-4.83 0-9.6429 2.3734-9.6429 5.2812s3.92 5.2812 8.75 5.2812c1.9901 0 3.8107-0.4192 5.2812-1.0938-3.2438-1.3366-0.29018-0.80295-0.29018-3.9107 0-0.80836-5.0203-4.8219-4.7411-5.558h0.64286z" fill="url(#u)" opacity=".70303"/>
   <path transform="matrix(.90215 0 0 .96653 69.705 10.972)" d="m732.68 312.58a7.4107 7.4107 0 1 1 -14.821 0 7.4107 7.4107 0 1 1 14.821 0z" fill="url(#f)"/>
   <path transform="matrix(.66265 0 0 .77108 244.49 72)" d="m732.68 312.58a7.4107 7.4107 0 1 1 -14.821 0 7.4107 7.4107 0 1 1 14.821 0z"/>
   <path transform="matrix(.834 0 0 .83022 138.83 49.539)" d="m732.68 312.58a7.4107 7.4107 0 1 1 -14.821 0 7.4107 7.4107 0 1 1 14.821 0z" fill="url(#f)"/>
   <path transform="matrix(.61259 0 0 .66234 300.41 101.96)" d="m732.68 312.58a7.4107 7.4107 0 1 1 -14.821 0 7.4107 7.4107 0 1 1 14.821 0z"/>
   <path d="m614.82 292.49-1.6071-1.0714s-8.0357-18.75-9.8214-22.679-4.1071-8.2143-4.1071-8.2143l-4.1072 2.8572h0.89286l5.5357 34.464s-1.6071 0.53572-2.3214 2.1429-0.35715 2.3214-0.35715 2.3214l0.89286 2.5s8.3929 9.8214 14.286 12.5 13.571 3.5714 16.786 3.5714 60-5.7143 66.25-6.4286 14.107-3.2143 21.607-8.5714 13.571-13.929 14.643-16.25 1.4286-8.0357-1.4286-11.25-15.714-14.107-15.714-14.107l-3.0357-2.8571s-2.8572-3.3929-7.3214-3.9286-17.321 3.3929-35 10.536-25.357 15.179-28.929 16.429-21.25 6.9643-23.214 7.6786-4.1071 0.53571-3.9286 0.35714z" fill="#fff5ff" fill-opacity=".97386" fill-rule="evenodd"/>
   <path d="m614.82 292.49-1.6071-1.0714s-8.0357-18.75-9.8214-22.679-4.1071-8.2143-4.1071-8.2143l-4.1072 2.8572h0.89286l5.5357 34.464s-1.6071 0.53572-2.3214 2.1429-0.35715 2.3214-0.35715 2.3214l0.89286 2.5s8.3299 9.712 14.286 12.247c5.597 2.3827 13.564 3.564 16.786 3.5714 3.2143 0.00747 60-5.4618 66.25-6.176s14.107-3.2143 21.607-8.5714 13.571-13.929 14.643-16.25 1.4286-8.0357-1.4286-11.25-15.714-14.107-15.714-14.107l-3.0357-2.8571s-2.8572-3.3929-7.3214-3.9286-17.321 3.3929-35 10.536-25.357 15.179-28.929 16.429-21.25 6.9643-23.214 7.6786-4.1071 0.53571-3.9286 0.35714z" fill="url(#t)" fill-rule="evenodd"/>
   <path d="m602.5 306.06 3.0357 0.35714s39.286-10.179 61.964-15 45.893-10 55.536-10.714 10.094-0.58802 10.094-0.58802c0.57478 0.19159-2.8771-4.6255-4.7366-5.662-1.4715-0.82021-1.4286-0.89286-1.4286-0.89286s-19.107 2.1429-39.464 6.4286-78.393 22.143-81.071 22.679-6.4286 0.71429-6.4286 0.71429l-0.89286 0.35714s0.35715 0.89286 1.0714 1.25 2.3214 1.25 2.3214 1.0714z" fill="#1e426e" fill-rule="evenodd"/>
   <path d="m726.93 273.87-10.859-9.2176s-5.8084-6.4397-9.7227-6.6923-7.3236 0.39912-14.016 2.9245-24.622 8.4397-28.537 10.839-4.9245 3.4093-4.9245 3.4093 28.789-10.48 35.608-11.238 7.0688-1.5937 11.112-0.75762c6.3188 1.3068 14.538 7.2061 19.698 10.733l1.6415-1e-5z" fill="url(#s)" fill-rule="evenodd"/>
   <path d="m733.66 288.6c0.43006 0 0.8487-4.5689 0.61866-4.5689 0 0-17.846 0.42028-47.132 6.1346s-71.607 15.357-71.607 15.357l4.1072 0.17858 5.5357-0.35715s46.25-8.3928 59.107-10.714 30-5.3572 38.036-5.7143 11.692-0.49424 11.335-0.31567z" fill="#8a1511" fill-rule="evenodd"/>
   <path d="m665 309.49s-1.6852-2.4482-5.9917-4.7081-7.3024-3.3898-11.796-2.6365-12.545 3.0132-12.545 3.0132l-8.2386 3.9548s17.039 5.838 21.533 6.403 8.9875-0.18832 12.358-1.3182 4.681-3.3898 4.681-3.3898v-1.3182z" fill="url(#r)" fill-rule="evenodd"/>
   <path d="m648.75 305.7-24.643 0.35715s-127.32 6.0714-136.07 6.6071c-5.8175 0.35617-9.8441 0.0977-11.291 0.24352-0.72944 0.07351-4.1553-6.2257-4.1553-6.2257 0.0232 0.04612 1.6308 5.0116 2.2567 6.1099 0.41818 0.73369 0.8767 1.2329 1.3178 1.2686 0.22234 0.01802 2.3343-0.32492 2.5862-0.32492l147.32 0.35714s10.357 1.0714 13.036 1.0714 6.25-1.0714 7.3214-1.4286 4.8214-1.4286 5.7143-2.3214 1.9643-2.1429-0.17857-3.75-3.0357-2.1429-3.2143-1.9643z" fill="url(#q)" fill-rule="evenodd"/>
   <path d="m653.57 309.81-177.32 3.3928 4.8329-0.67231 57.282-3.2727 84.492-3.555 26.25 1e-5 3.3929 1.7857 0.71429 2.1429 0.35714 0.17857z" fill="#e8ebeb" fill-rule="evenodd"/>
   <path d="m716.16 264.72-13.393 0.35714 0.71428-3.4821s4.8214-0.35714 6.5179-0.35714h2.4107l3.75 3.4821z" fill="#28393f" fill-rule="evenodd"/>
   <path d="m698.3 266.33 4.1072-1.0714 0.625-3.4822-2.8572 0.44643-2.2321 3.0357 0.35714 1.0714z" fill="#28393f" fill-rule="evenodd"/>
   <path transform="matrix(.98667,-.16275,0,1,0,0)" d="m722.20553,397.81461h.00886a.81845,.45664 0 0,1 .81845.45664v1.824a.81845,.45664 0 0,1 -.81845.45664h-.00886a.81845,.45664 0 0,1 -.81845-.45664v-1.824a.81845,.45664 0 0,1 .81845-.45664" fill="#10181a" opacity=".97636"/>
   <path transform="matrix(.98667,-.16275,0,1,0,0)" d="m719.67776,397.81461h.00886a.81845,.45664 0 0,1 .81845.45664v1.824a.81845,.45664 0 0,1 -.81845.45664h-.00886a.81845,.45664 0 0,1 -.81845-.45664v-1.824a.81845,.45664 0 0,1 .81845-.45664" fill="#10181a" opacity=".97636"/>
   <path transform="matrix(.98667,-.16275,0,1,0,0)" d="m717.14987,397.81461h.00886a.81845,.45664 0 0,1 .81845.45664v1.824a.81845,.45664 0 0,1 -.81845.45664h-.00886a.81845,.45664 0 0,1 -.81845-.45664v-1.824a.81845,.45664 0 0,1 .81845-.45664" fill="#10181a" opacity=".97636"/>
   <path transform="matrix(.98667,-.16275,0,1,0,0)" d="m714.62204,397.81461h.00886a.81845,.45664 0 0,1 .81845.45664v1.824a.81845,.45664 0 0,1 -.81845.45664h-.00886a.81845,.45664 0 0,1 -.81845-.45664v-1.824a.81845,.45664 0 0,1 .81845-.45664" fill="#10181a" opacity=".97636"/>
   <path transform="matrix(.98667,-.16275,0,1,0,0)" d="m712.09433,397.81461h.00886a.81845,.45664 0 0,1 .81845.45664v1.824a.81845,.45664 0 0,1 -.81845.45664h-.00886a.81845,.45664 0 0,1 -.81845-.45664v-1.824a.81845,.45664 0 0,1 .81845-.45664" fill="#10181a" opacity=".97636"/>
   <path transform="matrix(.98667,-.16275,0,1,0,0)" d="m709.56637,397.81461h.00886a.81845,.45664 0 0,1 .81845.45664v1.824a.81845,.45664 0 0,1 -.81845.45664h-.00886a.81845,.45664 0 0,1 -.81845-.45664v-1.824a.81845,.45664 0 0,1 .81845-.45664" fill="#10181a" opacity=".97636"/>
   <path transform="matrix(.98667,-.16275,0,1,0,0)" d="m707.03866,397.81461h.00886a.81845,.45664 0 0,1 .81845.45664v1.824a.81845,.45664 0 0,1 -.81845.45664h-.00886a.81845,.45664 0 0,1 -.81845-.45664v-1.824a.81845,.45664 0 0,1 .81845-.45664" fill="#10181a" opacity=".97636"/>
   <path transform="matrix(.98667,-.16275,0,1,0,0)" d="m704.51083,397.81461h.00886a.81845,.45664 0 0,1 .81845.45664v1.824a.81845,.45664 0 0,1 -.81845.45664h-.00886a.81845,.45664 0 0,1 -.81845-.45664v-1.824a.81845,.45664 0 0,1 .81845-.45664" fill="#10181a" opacity=".97636"/>
   <path transform="matrix(.98667,-.16275,0,1,0,0)" d="m701.98294,397.81461h.00886a.81845,.45664 0 0,1 .81845.45664v1.824a.81845,.45664 0 0,1 -.81845.45664h-.00886a.81845,.45664 0 0,1 -.81845-.45664v-1.824a.81845,.45664 0 0,1 .81845-.45664" fill="#10181a" opacity=".97636"/>
   <path transform="matrix(.98667,-.16275,0,1,0,0)" d="m699.45517,397.81461h.00886a.81845,.45664 0 0,1 .81845.45664v1.824a.81845,.45664 0 0,1 -.81845.45664h-.00886a.81845,.45664 0 0,1 -.81845-.45664v-1.824a.81845,.45664 0 0,1 .81845-.45664" fill="#10181a" opacity=".97636"/>
   <path transform="matrix(.98667,-.16275,0,1,0,0)" d="m696.92746,397.81461h.00886a.81845,.45664 0 0,1 .81845.45664v1.824a.81845,.45664 0 0,1 -.81845.45664h-.00886a.81845,.45664 0 0,1 -.81845-.45664v-1.824a.81845,.45664 0 0,1 .81845-.45664" fill="#10181a" opacity=".97636"/>
   <path transform="matrix(.98667,-.16275,0,1,0,0)" d="m694.39957,397.81461h.00886a.81845,.45664 0 0,1 .81845.45664v1.824a.81845,.45664 0 0,1 -.81845.45664h-.00886a.81845,.45664 0 0,1 -.81845-.45664v-1.824a.81845,.45664 0 0,1 .81845-.45664" fill="#10181a" opacity=".97636"/>
   <path transform="matrix(.98667,-.16275,0,1,0,0)" d="m691.87173,397.81461h.00886a.81845,.45664 0 0,1 .81845.45664v1.824a.81845,.45664 0 0,1 -.81845.45664h-.00886a.81845,.45664 0 0,1 -.81845-.45664v-1.824a.81845,.45664 0 0,1 .81845-.45664" fill="#10181a" opacity=".97636"/>
   <path transform="matrix(.98667,-.16275,0,1,0,0)" d="m689.3439,397.81461h.00886a.81845,.45664 0 0,1 .81845.45664v1.824a.81845,.45664 0 0,1 -.81845.45664h-.00886a.81845,.45664 0 0,1 -.81845-.45664v-1.824a.81845,.45664 0 0,1 .81845-.45664" fill="#10181a" opacity=".97636"/>
   <path transform="matrix(.98667,-.16275,0,1,0,0)" d="m686.81607,397.81461h.00886a.81845,.45664 0 0,1 .81845.45664v1.824a.81845,.45664 0 0,1 -.81845.45664h-.00886a.81845,.45664 0 0,1 -.81845-.45664v-1.824a.81845,.45664 0 0,1 .81845-.45664" fill="#10181a" opacity=".97636"/>
   <path transform="matrix(.98667,-.16275,0,1,0,0)" d="m684.2883,397.81461h.00886a.81845,.45664 0 0,1 .81845.45664v1.824a.81845,.45664 0 0,1 -.81845.45664h-.00886a.81845,.45664 0 0,1 -.81845-.45664v-1.824a.81845,.45664 0 0,1 .81845-.45664" fill="#10181a" opacity=".97636"/>
   <path transform="matrix(.98667,-.16275,0,1,0,0)" d="m681.76053,397.81461h.00886a.81845,.45664 0 0,1 .81845.45664v1.824a.81845,.45664 0 0,1 -.81845.45664h-.00886a.81845,.45664 0 0,1 -.81845-.45664v-1.824a.81845,.45664 0 0,1 .81845-.45664" fill="#10181a" opacity=".97636"/>
   <path transform="matrix(.98667,-.16275,0,1,0,0)" d="m679.2327,397.81461h.00886a.81845,.45664 0 0,1 .81845.45664v1.824a.81845,.45664 0 0,1 -.81845.45664h-.00886a.81845,.45664 0 0,1 -.81845-.45664v-1.824a.81845,.45664 0 0,1 .81845-.45664" fill="#10181a" opacity=".97636"/>
   <path transform="matrix(.98667,-.16275,0,1,0,0)" d="m676.70486,397.81461h.00886a.81845,.45664 0 0,1 .81845.45664v1.824a.81845,.45664 0 0,1 -.81845.45664h-.00886a.81845,.45664 0 0,1 -.81845-.45664v-1.824a.81845,.45664 0 0,1 .81845-.45664" fill="#10181a" opacity=".97636"/>
   <path d="m536.25 315.34-2.6786-4.2857-2.5 0.17857 3.75 4.4643 1.4286-0.35714z" fill="url(#i)" fill-rule="evenodd"/>
   <path d="m597.41 314.63-7.5-5.5357s-4.1072 1.4286-4.8214 2.1429 4.9107 3.9286 4.9107 3.9286l7.4107-0.53571z" fill="url(#ab)" fill-rule="evenodd"/>
   <path d="m602.77 322.22s0.31624 3.811-4.375 6.6964c-5.0308 3.0943-14.948-1.1656-15.268-5-0.13725-1.6444-0.3007-2.1665 0.71428-4.0179 0.69209-1.2624 3.3065-3.6241 5.1786-4.5536 1.9643-0.97521 5.4464-1.5536 7.8571-0.98215 2.3713 0.56212 4.5448 2.2438 5.4464 4.2857 0.79555 1.8018 0.58999 3.6414 0.44643 3.5714z" fill="url(#l)" fill-rule="evenodd"/>
   <path d="m588.75 315.88-2.1429 1.0714-5.7143-3.75 3.2143-1.0714 4.6429 3.75z" fill="url(#ac)" fill-rule="evenodd"/>
   <path transform="matrix(1.037 0 0 1.1769 -21.845 -55.187)" d="m601.87 320.26a6.0268 5.8036 0 1 1 -12.054 0 6.0268 5.8036 0 1 1 12.054 0z" fill="url(#m)"/>
   <path transform="matrix(.8963 0 0 .93077 62.595 23.734)" d="m601.87 320.26a6.0268 5.8036 0 1 1 -12.054 0 6.0268 5.8036 0 1 1 12.054 0z"/>
   <path d="m530.18 317.67 3.0357-1.7857-1.4286-3.5714-2.3214 1.6071 0.71428 3.75z" fill="#b0b3b3" fill-rule="evenodd"/>
   <path transform="matrix(1.3434 0 0 1.3769 -266 -118.43)" d="m601.87 320.26a6.0268 5.8036 0 1 1 -12.054 0 6.0268 5.8036 0 1 1 12.054 0z" fill="url(#j)"/>
   <path transform="matrix(1.0323 0 0 1.0846 -79.822 -25.09)" d="m601.87 320.26a6.0268 5.8036 0 1 1 -12.054 0 6.0268 5.8036 0 1 1 12.054 0z" fill="url(#k)"/>
   <path transform="matrix(.82222 0 0 .85385 45.348 48.815)" d="m601.87 320.26a6.0268 5.8036 0 1 1 -12.054 0 6.0268 5.8036 0 1 1 12.054 0z"/>
   <path d="m561.16 314.27s0.17857 1.7857 1.7857 2.1429 2.2321 0.35714 3.3036-0.17857 1.1607-2.6786 1.25-3.2143-0.17857-1.875-0.17857-1.875l-2.4107 0.08929-3.75 3.0357z" fill="url(#p)" fill-rule="evenodd"/>
   <path d="m539.55 314.48s0.156 1.4967 1.56 1.796 1.95 0.29934 2.886-0.14967 1.014-2.2451 1.092-2.6941-0.156-1.5715-0.156-1.5715l-2.106 0.07484-3.276 2.5444z" fill="url(#o)" fill-rule="evenodd"/>
   <path d="m609.02 314.02s0.00127 3.0755 2.2855 3.888 2.92 0.21374 4.4429-0.11989 2.1548-2.9874 2.2817-3.5707-0.25382-2.1663-0.25382-2.1663l-3.4264-0.51177-5.33 2.4807z" fill="url(#n)" fill-rule="evenodd"/>
   <path d="m599.73 285.88 8.125-4.0178-2.1429-4.9107-6.6964 4.2857 0.71428 4.6428z" fill="#214079" fill-rule="evenodd"/>
   <path d="m599.87 287.17 8.3482-4.1072 0.89286 1.875-8.8393 4.375-0.40179-2.1428z" fill="#801d22" fill-rule="evenodd"/>
   <path d="m600.45 290.34 9.3968-4.1878 1.005 1.8664-9.9495 4.4604-0.45225-2.139z" fill="#801d22" fill-rule="evenodd"/>
   <path d="m600.79 305.44-44.699-3.0305s-1.2627-0.50507-0.25254-0.75761 47.73 0.50507 47.73 0.50507h4.2932l-7.0711 3.283z" fill="#bac3c4" fill-rule="evenodd"/>
   <path transform="matrix(.95856,-.28488,0,1,0,0)" d="m713.08864,471.96405a.66768,.45664 0 0,1 .66768.45664v1.18169a.66768,.45664 0 0,1 -.66768.45664 .66768,.45664 0 0,1 -.66768-.45664v-1.18169a.66768,.45664 0 0,1 .66768-.45664" fill="#10181a" opacity=".97636"/>
   <path transform="matrix(.95856,-.28488,0,1,0,0)" d="m711.03768,471.96405a.66768,.45664 0 0,1 .66768.45664v1.18169a.66768,.45664 0 0,1 -.66768.45664 .66768,.45664 0 0,1 -.66768-.45664v-1.18169a.66768,.45664 0 0,1 .66768-.45664" fill="#10181a" opacity=".97636"/>
   <path transform="matrix(.95856,-.28488,0,1,0,0)" d="m708.98665,471.96405a.66768,.45664 0 0,1 .66768.45664v1.18169a.66768,.45664 0 0,1 -.66768.45664 .66768,.45664 0 0,1 -.66768-.45664v-1.18169a.66768,.45664 0 0,1 .66768-.45664" fill="#10181a" opacity=".97636"/>
   <path transform="matrix(.95856,-.28488,0,1,0,0)" d="m706.93544,471.96405a.66768,.45664 0 0,1 .66768.45664v1.18169a.66768,.45664 0 0,1 -.66768.45664 .66768,.45664 0 0,1 -.66768-.45664v-1.18169a.66768,.45664 0 0,1 .66768-.45664" fill="#10181a" opacity=".97636"/>
   <path transform="matrix(.95856,-.28488,0,1,0,0)" d="m704.88448,471.96405a.66768,.45664 0 0,1 .66768.45664v1.18169a.66768,.45664 0 0,1 -.66768.45664 .66768,.45664 0 0,1 -.66768-.45664v-1.18169a.66768,.45664 0 0,1 .66768-.45664" fill="#10181a" opacity=".97636"/>
   <path transform="matrix(.95856,-.28488,0,1,0,0)" d="m702.83357,471.96405a.66768,.45664 0 0,1 .66768.45664v1.18169a.66768,.45664 0 0,1 -.66768.45664 .66768,.45664 0 0,1 -.66768-.45664v-1.18169a.66768,.45664 0 0,1 .66768-.45664" fill="#10181a" opacity=".97636"/>
   <path transform="matrix(.95856,-.28488,0,1,0,0)" d="m700.78243,471.96405a.66768,.45664 0 0,1 .66768.45664v1.18169a.66768,.45664 0 0,1 -.66768.45664 .66768,.45664 0 0,1 -.66768-.45664v-1.18169a.66768,.45664 0 0,1 .66768-.45664" fill="#10181a" opacity=".97636"/>
   <path transform="matrix(.95856,-.28488,0,1,0,0)" d="m698.7314,471.96405a.66768,.45664 0 0,1 .66768.45664v1.18169a.66768,.45664 0 0,1 -.66768.45664 .66768,.45664 0 0,1 -.66768-.45664v-1.18169a.66768,.45664 0 0,1 .66768-.45664" fill="#10181a" opacity=".97636"/>
   <path transform="matrix(.93605,-.35187,0,1,0,0)" d="m710.47476,524.69464a.66958,.45664 0 0,1 .66958.45664v1.16275a.66958,.45664 0 0,1 -.66958.45664 .66958,.45664 0 0,1 -.66958-.45664v-1.16275a.66958,.45664 0 0,1 .66958-.45664" fill="#10181a" opacity=".97636"/>
   <path transform="matrix(.93605,-.35187,0,1,0,0)" d="m708.41793,524.69464a.66958,.45664 0 0,1 .66958.45664v1.16275a.66958,.45664 0 0,1 -.66958.45664 .66958,.45664 0 0,1 -.66958-.45664v-1.16275a.66958,.45664 0 0,1 .66958-.45664" fill="#10181a" opacity=".97636"/>
   <path transform="matrix(.93605,-.35187,0,1,0,0)" d="m706.36111,524.69464a.66958,.45664 0 0,1 .66958.45664v1.16275a.66958,.45664 0 0,1 -.66958.45664 .66958,.45664 0 0,1 -.66958-.45664v-1.16275a.66958,.45664 0 0,1 .66958-.45664" fill="#10181a" opacity=".97636"/>
   <path transform="matrix(.93605,-.35187,0,1,0,0)" d="m704.30422,524.69464a.66958,.45664 0 0,1 .66958.45664v1.16275a.66958,.45664 0 0,1 -.66958.45664 .66958,.45664 0 0,1 -.66958-.45664v-1.16275a.66958,.45664 0 0,1 .66958-.45664" fill="#10181a" opacity=".97636"/>
   <path transform="matrix(.93605,-.35187,0,1,0,0)" d="m702.2474,524.69464a.66958,.45664 0 0,1 .66958.45664v1.16275a.66958,.45664 0 0,1 -.66958.45664 .66958,.45664 0 0,1 -.66958-.45664v-1.16275a.66958,.45664 0 0,1 .66958-.45664" fill="#10181a" opacity=".97636"/>
   <path d="m612.72 292.49c0-0.50508-7.0711-15.657-7.0711-15.657l-6.6291-15.089-2.4622 2.3991 5.1139 31.188 11.049-2.841z" fill="url(#af)" fill-rule="evenodd"/>
   <path d="m612.72 292.49c0-0.50508-7.0711-15.657-7.0711-15.657l-6.566-15.468-2.9673 1.894 5.5558 32.072 11.049-2.841z" fill="url(#ae)" fill-rule="evenodd"/>
  </g>
  <path d="m435.55 258.36c-1.166 0.01361-2.2802 0.28879-4.125 0.75-1.2808 0.3202-3.1209 0.80591-5 1.4375v99.562c1.028 0.02618 2.324 0.0148 4.2812 0.40625 2.6086 0.52172 7.3047 2.7852 10 1.4375 2.8646-1.4323 3.5476-3.2381 7.875-2.1562 3.5439 0.88596 16.923 3.0771 20 0 1.1567-1.1567 5.0545-12.844 5.6875-12.844 0.55464 0 17.598 2.047 18.594 0.71875 3.0752-4.1003 2.8273-1.6209 7.8438-2.875 3.7015-0.92537 6.5426-2.2613 9.2812-5 1.2858-1.2858 2.5498-5.4261 5-6.4062 10.773-4.3093 7.5576-2.3866 9.2812-9.2812 1.9486-7.7944 15.392-4.3125 22.875-4.3125 3.3349 0 20.579 2.6271 17.125-4.2812-3.4936-6.9873-8.7269-0.16444-13.562-5-5.9359-5.936 16.216-2.8438 20.719-2.8438 10.032 0 21.384 1.7926 29.281-2.1562 4.6082-2.3041 12.212-2.7676 19.281-2.125 6.2571 0.56883 9.1062 1.55 14.281 2.8438 2.9914 0.74786 19.955 1.8081 24.312 0.71875 3.0822-0.77054 14.702-1.7038 10.688-5.7188-2.2462-2.2462-8.5108 0.95674-9.2812-2.125-0.72409-2.8964-10.894-3.6041-11.406-7.1562-0.71863-4.9835-16.259-2.0324-2.875-8.5625 0.42797-0.2088-3.447-0.97552-3.5625-1.4375-1.6261-6.5044-22.726-1.4375-30.719-1.4375h-6.4375c-10.757 0-25.841 4.4381-37.844 1.4375-4.1258-1.0314-5.508-3.5625-9.2812-3.5625-4.5967 0-6.3311 4.2812-9.2812 4.2812-3.9005 0-29.051 2.357-30-1.4375-0.44395-1.7758-2.4592-7.8437-5-7.8438-6.55 0-10.213 1.2248-14.312-2.875-1.1068-1.1068-5.2984-6.1754-7.125-5.7188-3.9717 0.99293-12.462 3.6552-15.719-0.6875-3.2857-4.381-20.31 3.8722-16.438 0-4.0262-0.80524-6.9715-4.3125-10-4.3125-3.7556 0-7.1019 0.03702-10-0.6875-2.0626-0.51564-3.2715-0.76361-4.4375-0.75z" fill="#f5fffa" fill-rule="evenodd"/>
  <path d="m807 389.09c-1.251-0.02279-2.4117 0.03225-3.3918 0.28125-4.1667 1.0586-5.1409 2.3933-11.435 1.5938-5.1547-0.65478-24.645-2.2741-29.121 0-1.5591 0.7922-8.0695 4.4231-8.3341 5.0938-0.84712-0.55506-6.3651-2.784-20.109-3.25-7.3286-0.2485-10.971 1.1981-18.267 2.125-5.3839 0.68389-9.5352 1.6635-13.519 3.6875-1.8702 0.9503-3.7042 3.9944-7.2681 4.7188-15.67 3.1848-10.963 1.7795-13.47 6.875-2.8343 5.7605-18.285-1.5312-29.169-1.5312-4.8507-1e-5 -14.812-1.9494-9.7878 3.1562 1.588 1.6137 1.9304 2.2428 1.8897 2.4375 0.43218 0.15418 1.1749 0.46825 2.7134 1.25 8.634 4.387-23.589 2.125-30.139 2.125-14.592 0-14.629-0.60591-26.117 2.3125-6.7028 1.7029-17.773 2.0374-28.055 1.5625-9.1011-0.4204-17.33 3.5499-24.857 2.5938-4.3511-0.55271-29.034-1.3363-35.372-0.53125-4.4831 0.56946-21.394 1.2827-15.554 4.25 3.2671 1.6601 12.398-0.71507 13.519 1.5625 1.0532 2.1406 15.826 2.656 16.571 5.2812 1.0453 3.683 23.635 1.5176 4.1671 6.3438-0.62243 0.15432 5.0166 0.72108 5.1846 1.0625 2.3653 4.8071 33.05 1.0625 44.675 1.0625h9.4001c12.582-1e-5 13.38 1.1297 22.24 2.7188-3.343 0.82522-6.558 1.6031-9.5939 1.125-3.5098-0.55272-23.379-1.3363-28.491-0.53125-3.6162 0.56948-17.26 1.2515-12.55 4.2188 2.6354 1.66 9.9982-0.71507 10.902 1.5625 0.84957 2.1406 12.772 2.6873 13.373 5.3125 0.84317 3.683 19.047 1.4864 3.3434 6.3125-0.50216 0.15431 4.08 0.72108 4.2155 1.0625 1.9079 4.8071 26.624 1.0625 36.001 1.0625h7.5589c12.621-1e-5 10.387 1.7199 24.469 3.9375 4.8408 0.7623 13.113-3.0938 17.54-3.0938 5.3933-1e-5 11.85 2.5625 15.312 2.5625 4.5764 0 20.788 6.1332 21.901 8.9375 0.52085 1.3124 10.683-3.5 13.664-3.5 7.6851 0 11.955-0.90498 16.765 2.125 1.2986 0.81794 6.2395 4.5562 8.3826 4.2188 4.66-0.73383 15.706-6.9907 19.527-3.7812 3.8552 3.2378 23.828-2.8618 19.285 0 4.7239 0.59512 8.1726 3.1875 11.726 3.1875 4.4064 1e-5 8.3256-0.03546 11.726 0.5 2.42 0.38108 3.865 0.57256 5.233 0.5625s2.6809-0.22164 4.8454-0.5625c1.5028-0.23665 3.6582-0.59572 5.863-1.0625v-89.281c-1.4954-0.01935-3.4038-0.0232-6.2506-0.3125s-7.3916-1.2754-11.144-1.3438zm-161.98 25.188c-0.92609-0.3304-0.06095 0.29208 0 0zm109.7-18.188c0.1319 0.0895 0.21349 0.11789 0.0969 0.09375-0.05346-0.01107-0.10486-0.05323-0.0969-0.09375z" fill="#f5fffa" fill-rule="evenodd"/>
  <path d="m817.49 270.13c0.88233-0.08892 1.7254-0.36764 3.1214-0.83327 0.96918-0.32327 2.3616-0.80668 3.7835-1.4006v-66.439c-0.77793 0.05018-1.7586 0.14624-3.2396-0.01069-1.974-0.20916-5.5275-1.5643-7.567-0.38608-2.1677 1.2523-2.6845 2.6331-5.959 2.1262-2.6817-0.4151-12.806-1.1296-15.134 1.3526-0.87525 0.93307-4.7488 5.4538-4.3038 5.5912 0.42382 0.13082-2.0992-2.6532-10.499-2.45-3.8127 0.09226-5.7108 1.7083-9.5068 2.9745-2.8009 0.93424-4.9508 2.1137-7.0232 4.323-0.97298 1.0373-1.9294 4.1826-3.7835 5.0727-8.1521 3.9134-5.7189 2.275-7.0232 7.487-1.4745 5.8923-9.504-0.6777-15.167-0.17157-2.5235 0.22554-7.7152-1.252-5.1014 3.62 2.6437 4.9277-1.2534 0.23356 2.4057 3.4802 4.4918 3.9855-12.271 3.1984-15.678 3.5029-7.5912 0.67848-7.6096 0.06958-13.586 3.5221-3.4871 2.0145-9.2408 2.8714-14.59 2.8745-4.7348 0.00279-9.0336 4.3762-12.95 3.77-2.2636-0.35039-15.1 0.01334-18.397 1.1131-2.3323 0.77793-11.125 2.2536-8.0873 4.9493 1.6997 1.5081 6.4402-1.2827 7.0232 0.94278 0.54792 2.0916 8.2436 1.9268 8.6312 4.5174 0.54379 3.6344 12.304 0.4024 2.1755 6.1337-0.32384 0.18326 2.6084 0.48784 2.6958 0.82145 1.2305 4.6972 17.197-0.47463 23.245-1.0152l4.8713-0.43538c8.1396-0.72749 6.6971 1.1214 15.779 2.5273 3.122 0.48326 8.4536-3.837 11.309-4.0922 3.4783-0.31089 7.6479 1.8667 9.8803 1.6672 2.9515-0.2638 13.412 4.9165 14.13 7.6567 0.33594 1.2824 6.8609-4.102 8.7835-4.2738 4.9564-0.44299 7.728-1.5959 10.83 1.1568 0.83749 0.7431 4.0094 4.2056 5.3915 3.7446 3.0054-1.0024 10.144-7.8937 12.609-4.9045 2.4863 3.0155 15.368-4.2354 12.438-1.1117 3.0466 0.32281 5.2754 2.7157 7.567 2.5108 2.8418-0.25399 5.3741-0.50767 7.567-0.16822 1.5608 0.2416 2.4756 0.3431 3.3579 0.25418z" fill="#f5fffa" fill-rule="evenodd"/>
 </g>
</svg>
