<?xml version="1.0" encoding="UTF-8" standalone="no"?>
<svg
   xmlns:xapRights="http://ns.adobe.com/xap/1.0/rights/"
   xmlns:x="adobe:ns:meta/"
   xmlns:dc="http://purl.org/dc/elements/1.1/"
   xmlns:cc="http://creativecommons.org/ns#"
   xmlns:rdf="http://www.w3.org/1999/02/22-rdf-syntax-ns#"
   xmlns:svg="http://www.w3.org/2000/svg"
   xmlns="http://www.w3.org/2000/svg"
   xmlns:sodipodi="http://sodipodi.sourceforge.net/DTD/sodipodi-0.dtd"
   xmlns:inkscape="http://www.inkscape.org/namespaces/inkscape"
   version="1.1"
   width="7680"
   height="4320"
   id="svg36"
   sodipodi:docname="arch-logo-blue.svg"
   inkscape:version="0.92.4 5da689c313, 2019-01-14">
  <sodipodi:namedview
     pagecolor="#ffffff"
     bordercolor="#666666"
     borderopacity="1"
     objecttolerance="10"
     gridtolerance="10"
     guidetolerance="10"
     inkscape:pageopacity="1"
     inkscape:pageshadow="2"
     inkscape:window-width="3840"
     inkscape:window-height="2105"
     id="namedview38"
     showgrid="false"
     inkscape:zoom="0.2445186"
     inkscape:cx="3224.1833"
     inkscape:cy="1984.6002"
     inkscape:window-x="0"
     inkscape:window-y="0"
     inkscape:window-maximized="1"
     inkscape:current-layer="g2424"
     inkscape:pagecheckerboard="false" />
  <metadata
     id="metadata2">
<?xpacket begin="" id=""?>    <x:xmpmeta>
      <metadata>
        <rdf:RDF>
          <rdf:Description
             rdf:about="">
            <xapRights:Marked>True</xapRights:Marked>
          </rdf:Description>
          <rdf:Description
             rdf:about="">
            <xapRights:WebStatement
               rdf:resource="http://www.xmple.com/wallpaper/linear-grey-black-gradient-highlight-3840x2160-c2-000000-2f4f4f-l-50-a-345-f-21-image/" />
          </rdf:Description>
          <rdf:Description
             rdf:about="">
            <xapRights:UsageTerms>
              <rdf:Alt>
                <rdf:li
                   xml:lang="en">This work is licensed under a &lt;a rel=&quot;license&quot; href=&quot;http://creativecommons.org/licenses/by-nc-nd/4.0/&quot;&gt;Creative Commons Attribution-NonCommercial-NoDerivatives 4.0 International License&lt;/a&gt;.</rdf:li>
              </rdf:Alt>
            </xapRights:UsageTerms>
          </rdf:Description>
          <rdf:Description
             rdf:about="">
            <dc:title>
              <rdf:Alt>
                <rdf:li
                   xml:lang="en">linear grey black gradient highlight dark slate gray 3840x2160 #000000 #2f4f4f 345째 50%</rdf:li>
              </rdf:Alt>
            </dc:title>
          </rdf:Description>
          <rdf:Description
             rdf:about="">
            <cc:license
               rdf:resource="http://creativecommons.org/licenses/by-nc-nd/4.0/" />
          </rdf:Description>
          <rdf:Description
             rdf:about="">
            <cc:attributionName>xmple.com</cc:attributionName>
          </rdf:Description>
          <rdf:Description
             rdf:about="">
            <cc:morePermissions
               rdf:resource="http://www.xmple.com" />
          </rdf:Description>
          <cc:Work
             rdf:about="">
            <dc:format>image/svg+xml</dc:format>
            <dc:type
               rdf:resource="http://purl.org/dc/dcmitype/StillImage" />
            <dc:title>linear grey black gradient highlight dark slate gray 3840x2160 #000000 #2f4f4f 345째 50%</dc:title>
          </cc:Work>
        </rdf:RDF>
      </metadata>
    </x:xmpmeta>
<?xpacket end="r"?>  </metadata>
  <title
     id="title4">linear grey black gradient highlight dark slate gray 3840x2160 #000000 #2f4f4f 345째 50%</title>
  <desc
     id="desc6">linear grey black gradient highlight dark slate gray 3840x2160 #000000 #2f4f4f 345째 50%</desc>
  <style
     type="text/css"
     id="style8"><![CDATA[.x{font:20px verdana;fill:#fff;stroke:#555;stroke-width:20px;opacity:0.35;}.o{stroke:none;opacity:0.01;}]]></style>
  <defs
     id="defs17">
    <linearGradient
       id="p1"
       x1="2880"
       y1="2125.95"
       x2="0"
       y2="754.05005"
       gradientTransform="scale(2.6666665,1.5)"
       gradientUnits="userSpaceOnUse">
      <stop
         offset="0%"
         style="stop-color:#000000;stop-opacity:1"
         id="stop10" />
      <stop
         offset="50%"
         style="stop-color:#2f4f4f;stop-opacity:1"
         id="stop12" />
      <stop
         offset="100%"
         style="stop-color:#000000;stop-opacity:1"
         id="stop14" />
    </linearGradient>
  </defs>
  <g
     transform="matrix(9,0,0,9,882.39039,332.16544)"
     id="layer1">
    <g
       transform="matrix(0.8746356,0,0,0.8746356,14.730518,23.408954)"
       id="g2424"
       style="fill:#000000">
      <g
         id="g3776">
        <g
           style="fill:#50a4dc;fill-opacity:0.85572139"
           id="g2809"
           transform="matrix(0.6378586,0,0,0.6378586,-53.9482,172.60178)">
          <path
             style="fill:#50a4dc;fill-opacity:0.85572139;fill-rule:evenodd;stroke:none"
             id="path2284"
             d="m 339.96875,309.09375 c -14.47141,-0.0239 -26.4812,2.94367 -31.125,4.5625 l -4.78125,25.8125 c -0.0116,0.0951 23.79543,-6.34855 34.28125,-5.96875 17.36158,0.62381 18.95948,6.63541 18.65625,14.75 0.29595,0.47462 -4.47933,-7.33192 -19.5,-7.59375 -18.94961,-0.32687 -45.69284,6.70947 -45.65625,35.3125 -0.51086,32.17412 24.03361,41.63882 40.75,41.8125 15.02821,-0.27364 22.0777,-5.69136 25.9375,-8.59375 5.07124,-5.30236 10.87308,-10.63447 16.40625,-17.03125 -5.23567,9.51278 -9.77472,16.0898 -14.5,21.125 v 4.25 l 22.84375,-3.84375 0.15625,-62.09375 c -0.23141,-8.78839 5.04123,-42.41827 -43.46875,-42.5 z m -3.28125,54.0625 c 9.46889,0.12995 20.32788,4.79708 20.34375,16.03125 0.049,10.21821 -12.80005,15.71183 -21.15625,15.625 -8.35976,-0.0868 -19.45093,-6.56982 -19.5,-16.53125 0.16016,-8.90444 10.45953,-15.35418 20.3125,-15.125 z"
             inkscape:connector-curvature="0" />
          <path
             style="fill:#50a4dc;fill-opacity:0.85572139;fill-rule:evenodd;stroke:none"
             id="path2286"
             d="m 398.50106,314.83145 -0.15505,102.82693 26.61213,-5.12724 0.0449,-58.30157 c 0.006,-8.68089 12.40554,-18.82451 27.9627,-18.66287 3.30202,-5.97408 9.5087,-21.24219 11.02088,-24.71514 -34.75649,-0.0833 -35.19897,9.98993 -41.24398,14.94517 -0.0631,-9.45285 -0.0213,-15.12741 -0.0213,-15.12741 l -24.2202,4.16213 z"
             inkscape:connector-curvature="0" />
          <path
             style="fill:#50a4dc;fill-opacity:0.85572139;fill-rule:evenodd;stroke:none"
             id="path2288"
             d="m 548.2688,328.33058 c -0.25696,-0.12068 -13.87938,-15.93419 -41.26638,-16.0589 -25.65249,-0.42638 -54.42578,9.51895 -54.88631,52.5328 0.22457,37.81852 27.6402,52.59809 55.0314,52.88627 29.31292,0.30451 40.97654,-18.32947 41.67615,-18.79124 -3.49762,-3.0321 -16.59792,-16.0131 -16.59792,-16.0131 0,0 -8.18236,11.65102 -24.05802,11.79913 -15.87942,0.1512 -29.68245,-12.27325 -29.87805,-29.60905 -0.20349,-17.33595 12.68881,-26.72821 29.99725,-27.48687 14.98466,-0.003 23.6297,9.67334 23.6297,9.67334 z"
             inkscape:connector-curvature="0" />
          <path
             style="fill:#50a4dc;fill-opacity:0.85572139;fill-rule:evenodd;stroke:none"
             id="path2290"
             d="m 581.8125,278.84375 -25.125,5.90625 0.1875,133.9375 24.75,-4.46875 0.28125,-63.03125 c 0.0529,-6.60927 9.56127,-16.75916 25.4375,-16.4375 15.17973,0.15775 18.57236,10.11767 18.53125,11.375 l 0.4375,72.96875 24.40625,-4.3125 0.0937,-77.375 c 0.1607,-7.44539 -16.30833,-23.16954 -42.78125,-23.28125 -12.58087,0.0202 -19.54815,2.86825 -23.09375,4.96875 -6.06656,4.68565 -12.9998,9.17543 -19.8125,14.90625 6.29809,-8.09099 11.58551,-13.68516 16.75,-17.84375 l -0.0625,-37.3125 z"
             inkscape:connector-curvature="0" />
        </g>
        <g
           style="fill:#50a4dc;fill-opacity:0.85572139;stroke:none"
           id="g5326"
           transform="matrix(0.9443373,0,0.01336345,0.9443373,-12.08903,-242.0584)">
          <path
             style="fill:#50a4dc;fill-opacity:0.85572139;fill-rule:evenodd;stroke:none"
             id="path2292"
             d="m 400.67581,629.79609 7.68167,-1.91575 -0.92851,91.20792 -7.79574,1.32426 z"
             inkscape:connector-curvature="0" />
          <path
             style="fill:#50a4dc;fill-opacity:0.85572139;fill-rule:evenodd;stroke:none"
             id="path2294"
             d="m 421.10266,657.01757 6.75064,-2.9867 -0.86808,65.39931 -6.49779,1.33915 z m -1.26059,-23.58316 5.47167,-4.41533 4.42261,4.99952 -5.47558,4.53221 z"
             inkscape:connector-curvature="0" />
          <path
             style="fill:#50a4dc;fill-opacity:0.85572139;fill-rule:evenodd;stroke:none"
             id="path2296"
             d="m 440.44273,655.82614 7.67755,-1.56201 -0.1573,13.6722 c -0.007,0.58717 4.4194,-15.27364 24.68502,-14.92094 19.67986,0.10952 22.68401,15.34634 22.5291,18.76237 l -0.43759,48.0783 -6.73044,1.45631 0.63316,-47.489 c 0.0974,-1.38684 -2.88144,-13.11441 -16.78906,-13.15754 -13.90509,-0.0404 -23.68364,10.10048 -23.75821,16.57937 l -0.48127,41.83477 -7.80388,2.0313 z"
             inkscape:connector-curvature="0" />
          <path
             style="fill:#50a4dc;fill-opacity:0.85572139;fill-rule:evenodd;stroke:none"
             id="path2298"
             d="m 561.53301,720.20203 -7.6776,1.56186 0.15737,-13.67198 c 0.007,-0.58742 -4.42201,15.27361 -24.68504,14.92086 -19.67983,-0.10944 -22.68399,-15.34626 -22.52908,-18.76229 l 0.43757,-48.07861 8.15674,-1.64226 -0.54644,47.48988 c -0.0149,1.29682 1.36845,13.29979 15.27604,13.3426 13.90511,0.0405 23.76622,-8.37359 24.01453,-21.04416 l 0.43105,-37.46902 7.5978,-1.93195 z"
             inkscape:connector-curvature="0" />
          <path
             style="fill:#50a4dc;fill-opacity:0.85572139;fill-rule:evenodd;stroke:none"
             id="path2300"
             d="m 577.45461,655.28678 -5.42715,4.20017 20.19894,26.93328 -22.39092,31.11622 5.63499,4.226 21.04365,-28.8967 20.8779,29.58159 5.32727,-4.20103 -22.37578,-31.62866 18.56963,-25.5775 -5.53193,-4.73429 -16.92109,23.66778 z"
             inkscape:connector-curvature="0" />
        </g>
        <g
           transform="translate(-120.56798,175.62578)"
           style="font-style:normal;font-weight:normal;font-size:8.44138241px;font-family:'DejaVu Sans Mono';fill:#50a4dc;fill-opacity:0.85572139;stroke:none"
           id="text2634">
          <path
             id="path4714"
             d="m 685.46692,263.83624 v -5.32944 h -1.99082 v -0.71307 h 4.7895 v 0.71307 h -1.99906 v 5.32944 h -0.79962"
             inkscape:connector-curvature="0"
             style="fill:#50a4dc;fill-opacity:0.85572139" />
          <path
             id="path4716"
             d="m 689.0982,263.83624 v -6.04251 h 1.20355 l 1.43026,4.2784 c 0.13189,0.39843 0.22806,0.69658 0.28852,0.89442 0.0687,-0.21983 0.17586,-0.5427 0.3215,-0.96862 l 1.44674,-4.2042 h 1.07578 v 6.04251 h -0.77077 v -5.05741 l -1.75587,5.05741 h -0.72131 l -1.74763,-5.14396 v 5.14396 h -0.77077"
             inkscape:connector-curvature="0"
             style="fill:#50a4dc;fill-opacity:0.85572139" />
        </g>
      </g>
      <g
         id="g3746">
        <path
           style="fill:#50a4dc;fill-opacity:0.85572139;fill-rule:evenodd;stroke:none;stroke-width:1.71499991"
           id="path2518"
           d="m 358.85727,62.932662 c -12.68564,31.101795 -20.33699,51.446028 -34.46078,81.623278 8.65965,9.17923 19.28897,19.8689 36.55094,31.94187 -18.55832,-7.63663 -31.21736,-15.30362 -40.67766,-23.25968 -18.07575,37.71784 -46.39527,91.44524 -103.86468,194.70609 45.16903,-26.07687 80.18326,-42.15354 112.81483,-48.28797 -1.40121,-6.02659 -2.19786,-12.54553 -2.14374,-19.34734 l 0.0535,-1.44704 c 0.71673,-28.9386 15.77057,-51.19238 33.60329,-49.6814 17.83272,1.51098 31.6939,26.20936 30.97719,55.14797 -0.13485,5.44533 -0.74901,10.68368 -1.82219,15.54219 32.27729,6.31401 66.91712,22.34951 111.47499,48.07359 -8.78593,-16.17553 -16.62816,-30.75661 -24.11718,-44.6436 -11.79643,-9.14302 -24.10071,-21.0427 -49.19907,-33.92484 17.25117,4.48259 29.60279,9.65429 39.23063,15.435 C 391.13438,143.04573 384.96841,124.20808 358.85727,62.932662 Z"
           inkscape:connector-curvature="0" />
        <g
           transform="matrix(1.5,0,0,1.5,105.39419,-123.88539)"
           style="font-style:normal;font-weight:normal;font-size:8.25130367px;font-family:'DejaVu Sans Mono';fill:#50a4dc;fill-opacity:0.85572139;stroke:none"
           id="text2638">
          <path
             id="path4719"
             d="m 239.84053,313.69965 v -5.20945 h -1.94598 v -0.697 h 4.68164 v 0.697 h -1.95404 v 5.20945 h -0.78162"
             inkscape:connector-curvature="0"
             style="fill:#50a4dc;fill-opacity:0.85572139" />
          <path
             id="path4721"
             d="m 243.39004,313.69965 v -5.90645 h 1.17646 l 1.39805,4.18205 c 0.12892,0.38947 0.22293,0.6809 0.28202,0.87429 0.0671,-0.21488 0.1719,-0.53048 0.31426,-0.94681 l 1.41417,-4.10953 h 1.05155 v 5.90645 h -0.75341 v -4.94353 l -1.71634,4.94353 h -0.70506 l -1.70828,-5.02814 v 5.02814 h -0.75342"
             inkscape:connector-curvature="0"
             style="fill:#50a4dc;fill-opacity:0.85572139" />
        </g>
      </g>
    </g>
  </g>
</svg>
