<?xml version="1.0" encoding="UTF-8" standalone="no"?>
<svg
   xmlns:xapRights="http://ns.adobe.com/xap/1.0/rights/"
   xmlns:x="adobe:ns:meta/"
   xmlns:dc="http://purl.org/dc/elements/1.1/"
   xmlns:cc="http://creativecommons.org/ns#"
   xmlns:rdf="http://www.w3.org/1999/02/22-rdf-syntax-ns#"
   xmlns:svg="http://www.w3.org/2000/svg"
   xmlns="http://www.w3.org/2000/svg"
   xmlns:xlink="http://www.w3.org/1999/xlink"
   xmlns:sodipodi="http://sodipodi.sourceforge.net/DTD/sodipodi-0.dtd"
   xmlns:inkscape="http://www.inkscape.org/namespaces/inkscape"
   version="1.1"
   width="3840px"
   height="2160px"
   id="svg44"
   sodipodi:docname="hexaagon.svg"
   inkscape:version="0.92.4 5da689c313, 2019-01-14">
  <sodipodi:namedview
     pagecolor="#ffffff"
     bordercolor="#666666"
     borderopacity="1"
     objecttolerance="10"
     gridtolerance="10"
     guidetolerance="10"
     inkscape:pageopacity="0"
     inkscape:pageshadow="2"
     inkscape:window-width="3840"
     inkscape:window-height="2098"
     id="namedview46"
     showgrid="false"
     inkscape:zoom="0.575"
     inkscape:cx="1920"
     inkscape:cy="1261.9286"
     inkscape:window-x="0"
     inkscape:window-y="0"
     inkscape:window-maximized="1"
     inkscape:current-layer="svg44" />
  <metadata
     id="metadata2">
<?xpacket begin="" id=""?>    <x:xmpmeta>
      <metadata>
        <rdf:RDF>
          <rdf:Description
             rdf:about="">
            <xapRights:Marked>True</xapRights:Marked>
          </rdf:Description>
          <rdf:Description
             rdf:about="">
            <xapRights:WebStatement
               rdf:resource="http://www.xmple.com/wallpaper/black-white-hexagon-purple-glow-gradient-3840x2160-c4-000000-ffffff-483d8b-000000-l2-1-29-a-45-f-6-image/" />
          </rdf:Description>
          <rdf:Description
             rdf:about="">
            <xapRights:UsageTerms>
              <rdf:Alt>
                <rdf:li
                   xml:lang="en">This work is licensed under a &lt;a rel=&quot;license&quot; href=&quot;http://creativecommons.org/licenses/by-nc-nd/4.0/&quot;&gt;Creative Commons Attribution-NonCommercial-NoDerivatives 4.0 International License&lt;/a&gt;.</rdf:li>
              </rdf:Alt>
            </xapRights:UsageTerms>
          </rdf:Description>
          <rdf:Description
             rdf:about="">
            <dc:title>
              <rdf:Alt>
                <rdf:li
                   xml:lang="en">black white hexagon purple glow gradient dark slate blue 3840x2160 #000000 #ffffff #483d8b diagonal 45° 1px 29px</rdf:li>
              </rdf:Alt>
            </dc:title>
          </rdf:Description>
          <rdf:Description
             rdf:about="">
            <cc:license
               rdf:resource="http://creativecommons.org/licenses/by-nc-nd/4.0/" />
          </rdf:Description>
          <rdf:Description
             rdf:about="">
            <cc:attributionName>xmple.com</cc:attributionName>
          </rdf:Description>
          <rdf:Description
             rdf:about="">
            <cc:morePermissions
               rdf:resource="http://www.xmple.com" />
          </rdf:Description>
          <cc:Work
             rdf:about="">
            <dc:format>image/svg+xml</dc:format>
            <dc:type
               rdf:resource="http://purl.org/dc/dcmitype/StillImage" />
          </cc:Work>
        </rdf:RDF>
      </metadata>
    </x:xmpmeta>
<?xpacket end="r"?>  </metadata>
  <title
     id="title4">black white hexagon purple glow gradient dark slate blue 3840x2160 #000000 #ffffff #483d8b diagonal 45° 1px 29px</title>
  <desc
     id="desc6">black white hexagon purple glow gradient dark slate blue 3840x2160 #000000 #ffffff #483d8b diagonal 45° 1px 29px</desc>
  <style
     type="text/css"
     id="style8"><![CDATA[.x{font:20px verdana;fill:#fff;stroke:#555;stroke-width:20px;opacity:0.35;}.o{stroke:none;opacity:0.01;}]]></style>
  <defs
     id="defs25">
    <radialGradient
       id="gr"
       fx="50%"
       fy="50%"
       r="70%"
       spreadMethod="pad">
      <stop
         offset="0%"
         stop-color="#ffffff"
         stop-opacity="1"
         id="stop10" />
      <stop
         offset="50%"
         stop-color="#483d8b"
         stop-opacity="1"
         id="stop12" />
      <stop
         offset="100%"
         stop-color="#000000"
         stop-opacity="1"
         id="stop14" />
    </radialGradient>
    <pattern
       id="p1"
       patternUnits="userSpaceOnUse"
       x="0"
       y="0"
       width="29"
       height="50.2294734204"
       patternTransform="translate(1920,1080) rotate(315 0 0)">
      <path
         stroke="#fff"
         stroke-width="1"
         fill="none"
         d="M0 0V8.3715789034 L14.5 16.7431578068 L29 8.3715789034V0M0 50.2294734204 V41.857894517L14.5 33.4863156136 L29 41.857894517V50.2294734204M14.5 16.7431578068v16.7431578068"
         id="path17" />
    </pattern>
    <mask
       id="msk"
       x="0"
       y="0"
       width="3840"
       height="2160">
      <path
         fill="#000"
         d="M0 0H3840V2160H0z"
         id="path20" />
      <path
         fill="url(#p1)"
         d="M0 0H3840V2160H0z"
         id="path22" />
    </mask>
  </defs>
  <path
     fill="#000000"
     d="M0 0H3840V2160H0z"
     id="path27" />
  <path
     mask="url(#msk)"
     fill="url(#gr)"
     d="M0 0H3840V2160H0z"
     id="path29" />
  <path
     class="x o"
     d="M5 5h2v1H6v1h1v1H5zM4 3h4v1h1v5H8v1H4V9H3V4h1v5h4V4H4zm7 1h1v2h1V4h1v2h-1v1h1v2h-1V7h-1v2h-1V7h1V6h-1zm4 0h5v5h-1V5h-1v4h-1V5h-1v4h-1zm6 0h3l-1 1h-1v3h1V5l1-1v5h-2v2h-1zm4-2h1v6h1v1h-2zm3 2h3l-1 1h-1v1h1V5l1-1v3h-2v1h2v1h-3V4zm4 4h1v1h-1zm2-4h3v1h-2v3h2v1h-3zm4 0h3v5h-3l1-1h1V5h-1v3l-1 1zm4 0h5v5h-1V5h-1v4h-1V5h-1v4h-1z"
     id="path31" />
  <text
     x="4"
     y="2154"
     class="x o"
     id="text33">© xmple.com</text>
  <a
     xlink:href="https://www.xmple.com"
     id="a37">
    <text
       text-anchor="end"
       x="3830"
       y="22"
       class="x o"
       id="text35">xmple.com</text>
  </a>
</svg>
