<?xml version="1.0" encoding="UTF-8" standalone="no"?>
<svg
   xmlns:xapRights="http://ns.adobe.com/xap/1.0/rights/"
   xmlns:x="adobe:ns:meta/"
   xmlns:dc="http://purl.org/dc/elements/1.1/"
   xmlns:cc="http://creativecommons.org/ns#"
   xmlns:rdf="http://www.w3.org/1999/02/22-rdf-syntax-ns#"
   xmlns:svg="http://www.w3.org/2000/svg"
   xmlns="http://www.w3.org/2000/svg"
   xmlns:xlink="http://www.w3.org/1999/xlink"
   xmlns:sodipodi="http://sodipodi.sourceforge.net/DTD/sodipodi-0.dtd"
   xmlns:inkscape="http://www.inkscape.org/namespaces/inkscape"
   version="1.1"
   width="7680"
   height="4320"
   id="svg36"
   sodipodi:docname="ladybug.svg"
   inkscape:version="0.92.4 5da689c313, 2019-01-14">
  <sodipodi:namedview
     pagecolor="#ffffff"
     bordercolor="#666666"
     borderopacity="1"
     objecttolerance="10"
     gridtolerance="10"
     guidetolerance="10"
     inkscape:pageopacity="0"
     inkscape:pageshadow="2"
     inkscape:window-width="3840"
     inkscape:window-height="2107"
     id="namedview38"
     showgrid="false"
     inkscape:zoom="0.30254595"
     inkscape:cx="3840"
     inkscape:cy="2160"
     inkscape:window-x="0"
     inkscape:window-y="0"
     inkscape:window-maximized="1"
     inkscape:current-layer="svg36" />
  <metadata
     id="metadata2">
<?xpacket begin="" id=""?>    <x:xmpmeta>
      <metadata>
        <rdf:RDF>
          <rdf:Description
             rdf:about="">
            <xapRights:Marked>True</xapRights:Marked>
          </rdf:Description>
          <rdf:Description
             rdf:about="">
            <xapRights:WebStatement
               rdf:resource="http://www.xmple.com/wallpaper/linear-grey-black-gradient-highlight-3840x2160-c2-000000-2f4f4f-l-50-a-345-f-21-image/" />
          </rdf:Description>
          <rdf:Description
             rdf:about="">
            <xapRights:UsageTerms>
              <rdf:Alt>
                <rdf:li
                   xml:lang="en">This work is licensed under a &lt;a rel=&quot;license&quot; href=&quot;http://creativecommons.org/licenses/by-nc-nd/4.0/&quot;&gt;Creative Commons Attribution-NonCommercial-NoDerivatives 4.0 International License&lt;/a&gt;.</rdf:li>
              </rdf:Alt>
            </xapRights:UsageTerms>
          </rdf:Description>
          <rdf:Description
             rdf:about="">
            <dc:title>
              <rdf:Alt>
                <rdf:li
                   xml:lang="en">linear grey black gradient highlight dark slate gray 3840x2160 #000000 #2f4f4f 345째 50%</rdf:li>
              </rdf:Alt>
            </dc:title>
          </rdf:Description>
          <rdf:Description
             rdf:about="">
            <cc:license
               rdf:resource="http://creativecommons.org/licenses/by-nc-nd/4.0/" />
          </rdf:Description>
          <rdf:Description
             rdf:about="">
            <cc:attributionName>xmple.com</cc:attributionName>
          </rdf:Description>
          <rdf:Description
             rdf:about="">
            <cc:morePermissions
               rdf:resource="http://www.xmple.com" />
          </rdf:Description>
          <cc:Work
             rdf:about="">
            <dc:format>image/svg+xml</dc:format>
            <dc:type
               rdf:resource="http://purl.org/dc/dcmitype/StillImage" />
            <dc:title>linear grey black gradient highlight dark slate gray 3840x2160 #000000 #2f4f4f 345째 50%</dc:title>
          </cc:Work>
        </rdf:RDF>
      </metadata>
    </x:xmpmeta>
<?xpacket end="r"?>  </metadata>
  <title
     id="title4">linear grey black gradient highlight dark slate gray 3840x2160 #000000 #2f4f4f 345째 50%</title>
  <desc
     id="desc6">linear grey black gradient highlight dark slate gray 3840x2160 #000000 #2f4f4f 345째 50%</desc>
  <style
     type="text/css"
     id="style8"><![CDATA[.x{font:20px verdana;fill:#fff;stroke:#555;stroke-width:20px;opacity:0.35;}.o{stroke:none;opacity:0.01;}]]></style>
  <defs
     id="defs17">
    <linearGradient
       id="p1"
       x1="2880"
       y1="2125.95"
       x2="0"
       y2="754.05005"
       gradientTransform="matrix(2.6666666,0,0,1.5,1.1640625e-4,2.2265625e-5)"
       gradientUnits="userSpaceOnUse">
      <stop
         offset="0%"
         style="stop-color:#000000;stop-opacity:1"
         id="stop10" />
      <stop
         offset="50%"
         style="stop-color:#2f4f4f;stop-opacity:1"
         id="stop12" />
      <stop
         offset="100%"
         style="stop-color:#000000;stop-opacity:1"
         id="stop14" />
    </linearGradient>
    <filter
       id="l">
      <feGaussianBlur
         stdDeviation="1.7785"
         id="feGaussianBlur2" />
    </filter>
    <radialGradient
       id="f"
       cx="334.95001"
       cy="422.14999"
       r="91.720001"
       gradientTransform="matrix(1.3188,0.69204,-0.8178,1.5584,242.18,-465.22)"
       gradientUnits="userSpaceOnUse">
      <stop
         stop-color="#fc2000"
         offset="0"
         id="stop26" />
      <stop
         offset="1"
         id="stop28" />
    </radialGradient>
    <radialGradient
       id="c"
       cx="343.47"
       cy="419.51999"
       r="81.707001"
       gradientTransform="matrix(1,0,0,1.1441,0,-62.009)"
       gradientUnits="userSpaceOnUse">
      <stop
         stop-color="#f1f1f1"
         stop-opacity=".6239"
         offset="0"
         id="stop21" />
      <stop
         stop-color="#f1f1f1"
         stop-opacity="0"
         offset="1"
         id="stop23" />
    </radialGradient>
    <radialGradient
       id="b"
       cx="427.07999"
       cy="331.97"
       r="109.97"
       gradientTransform="matrix(0.25074,0.0311,-0.00997,0.08043,284.7,350.08)"
       gradientUnits="userSpaceOnUse">
      <stop
         stop-color="#808080"
         stop-opacity=".9944"
         offset="0"
         id="stop16" />
      <stop
         offset="1"
         id="stop18" />
    </radialGradient>
    <filter
       id="n">
      <feGaussianBlur
         stdDeviation=".5938"
         id="feGaussianBlur5" />
    </filter>
    <radialGradient
       id="e"
       cx="343.22"
       cy="304.14001"
       r="70.791"
       gradientTransform="matrix(1,0,0,0.41008,0,181.96)"
       gradientUnits="userSpaceOnUse"
       xlink:href="#a" />
    <linearGradient
       id="a">
      <stop
         stop-color="#fff"
         offset="0"
         id="stop11" />
      <stop
         stop-color="#fff"
         stop-opacity="0"
         offset="1"
         id="stop13" />
    </linearGradient>
    <filter
       id="m"
       x="-0.094779998"
       y="-0.34103"
       width="1.1896"
       height="1.6821001">
      <feGaussianBlur
         stdDeviation="4.8112"
         id="feGaussianBlur8" />
    </filter>
    <radialGradient
       id="d"
       cx="346.12"
       cy="290.23001"
       r="41.664001"
       gradientTransform="matrix(1.0728,0.01872,-0.00849,0.48641,-31.297,141.67)"
       gradientUnits="userSpaceOnUse"
       xlink:href="#a" />
    <radialGradient
       id="g"
       cx="531.31"
       cy="279.63"
       r="5.2284999"
       gradientTransform="matrix(-0.98752,-0.4346,0.32386,-0.7359,802.73,722.33)"
       gradientUnits="userSpaceOnUse">
      <stop
         stop-color="#4f4f4f"
         offset="0"
         id="stop31" />
      <stop
         stop-color="#070000"
         stop-opacity=".9922"
         offset=".7786"
         id="stop33" />
      <stop
         stop-opacity=".9833"
         offset="1"
         id="stop35" />
    </radialGradient>
    <radialGradient
       id="radialGradient160"
       cx="531.31"
       cy="279.63"
       r="5.2284999"
       gradientTransform="matrix(-0.98752,-0.4346,0.32386,-0.7359,802.73,722.33)"
       gradientUnits="userSpaceOnUse">
      <stop
         stop-color="#4f4f4f"
         offset="0"
         id="stop154" />
      <stop
         stop-color="#070000"
         stop-opacity=".9922"
         offset=".7786"
         id="stop156" />
      <stop
         stop-opacity=".9833"
         offset="1"
         id="stop158" />
    </radialGradient>
    <radialGradient
       id="radialGradient168"
       cx="531.31"
       cy="279.63"
       r="5.2284999"
       gradientTransform="matrix(-0.98752,-0.4346,0.32386,-0.7359,802.73,722.33)"
       gradientUnits="userSpaceOnUse">
      <stop
         stop-color="#4f4f4f"
         offset="0"
         id="stop162" />
      <stop
         stop-color="#070000"
         stop-opacity=".9922"
         offset=".7786"
         id="stop164" />
      <stop
         stop-opacity=".9833"
         offset="1"
         id="stop166" />
    </radialGradient>
    <radialGradient
       inkscape:collect="always"
       xlink:href="#g"
       id="radialGradient324"
       gradientUnits="userSpaceOnUse"
       gradientTransform="matrix(-0.98752,-0.4346,0.32386,-0.7359,802.73,722.33)"
       cx="531.31"
       cy="279.63"
       r="5.2284999" />
  </defs>
  <rect
     width="7680"
     height="4320"
     x="0"
     y="0"
     id="rect21"
     style="opacity:0.98000004;fill:url(#p1);stroke-width:2" />
  <g
     transform="matrix(10,0,0,10,-245.69753,-2935.6772)"
     id="g108">
    <g
       style="opacity:0.4"
       transform="translate(68.833,77.829)"
       id="g44">
      <path
         style="filter:url(#l)"
         inkscape:connector-curvature="0"
         d="m 404.47,257.82 c -1.6191,0.28303 -4.2194,3.8202 -4.375,10.594 -4.6292,7.951 -10.13,15.47 -21.625,21.531 -0.32342,-0.44641 -0.66381,-0.87729 -1.0312,-1.3125 0.0637,-0.33278 0.0913,-0.69994 0.0625,-1.125 -0.17469,-2.5781 -4.3504,-5.2592 -7.3438,-5.4375 3.9756,-1.9644 7.3896,-4.9467 9.1875,-10.281 4.2968,-12.749 -3.5609,-12.76 -3.7812,-12.688 -0.2203,0.072 -2.4262,-1.7599 -5.2188,11.562 -1.05,5.0092 -2.5421,7.193 -5.5938,8.9688 -6.326,-5.3913 -15.874,-7.7485 -24.031,-7.9688 v -0.0312 h -2.0938 v 0.0312 c -8.0921,0.21848 -17.576,2.5435 -23.906,7.8438 -1.9834,-1.7662 -3.0084,-4.0195 -3.625,-8.1875 -1.9922,-13.465 -4.3156,-11.789 -4.5312,-11.875 -0.2156,-0.086 -8.028,-0.54506 -4.5,12.438 1.3789,5.0741 4.2676,8.1924 7.7812,10.375 -0.0682,0.0355 -0.11971,0.089 -0.1875,0.125 -2.7754,0.43433 -6.21,2.7026 -6.6875,5 -0.16901,0.17459 -0.33797,0.35382 -0.5,0.53125 -11.197,-4.2066 -17.467,-10.462 -23,-17.25 -2.5816,-14.222 -13.821,-12.03 -1,1 5.1774,7.1089 11.126,13.87 22,18.781 -2.5101,3.6841 -3.449,7.6219 -2.0625,10.656 -12.732,8.0669 -18.203,19.697 -19.719,29.719 -0.47663,3.1522 -0.0929,5.3815 1.0312,6.9062 -1.3637,1.047 -2.8018,2.2107 -4.3438,3.5625 -3.9698,3.4804 -7.3985,7.5482 -10.375,12.062 -10.483,-6.7809 -20.731,-15.923 -28.656,-26.312 -13.063,13.358 -33.449,20.987 -53.906,26 0,0 -7.9514,-2.7837 -10.469,-7.125 l -1.4062,-0.75 c 1.0994,4.1391 5.0576,7.0551 12.094,9.25 16.672,-2.2456 40.909,-7.265 53.438,-24.156 4.7274,8.4964 14.269,19.226 26.219,27.469 -10.138,18.081 -13.781,42.19 -13.781,66.094 0,3.0423 0.0703,6.0476 0.25,9.0312 -12.696,-1.8182 -26.295,-6.0405 -38.156,-12.5 -6.4731,17.527 -21.965,32.824 -38.594,45.75 0,0 -8.3987,0.6857 -12.469,-2.25 l -1.5938,-0.125 c 2.6931,3.3299 7.4932,4.3682 14.812,3.5 14.303,-8.8549 34.394,-23.31 38.938,-43.844 8.2112,6.147 22.318,12.38 37.5,14.781 2.9448,30.588 15.193,57.511 33.031,76.062 -10.012,9.398 -23.108,17.934 -36.875,23.188 9.112,16.312 10.673,38.055 9.6875,59.094 0,0 -4.9048,6.8152 -9.7812,8 l -1.1562,1.1562 c 4.281,0.11778 8.2148,-2.8735 12.312,-9 2.5678,-16.625 4.6203,-41.294 -8.0312,-58.094 10.586,-2.3741 25.552,-9.7027 37.625,-20.656 15.19,14.193 33.928,22.594 54.219,22.594 21.27,0 40.848,-9.1973 56.406,-24.656 15.738,5.006 32.705,5.381 43.438,3.0312 -4.3702,20.572 7.8993,42.047 17.25,56.031 6.3022,3.8219 11.107,4.8528 14.938,2.9375 l -1.5,-0.53125 c -4.9205,0.98613 -12.25,-3.125 -12.25,-3.125 -9.7814,-18.653 -17.556,-38.991 -16.188,-57.625 -14.114,1.0123 -28.949,-1.0115 -41.656,-4.9688 18.042,-20.126 29.827,-49.118 31.156,-81.625 14.567,-2.5751 27.985,-8.6013 35.906,-14.531 4.5433,20.534 24.634,35.02 38.938,43.875 7.3193,0.86817 12.119,-0.17013 14.812,-3.5 l -1.5938,0.125 c -4.0701,2.9357 -12.438,2.25 -12.438,2.25 -16.629,-12.926 -32.152,-28.254 -38.625,-45.781 -11.465,6.2436 -24.548,10.43 -36.875,12.344 0.002,-0.31409 0,-0.62283 0,-0.9375 0,-26.883 -5.0499,-53.597 -18.125,-72.344 13.145,-13.359 21.475,-31.75 23.594,-44.031 17.408,11.8 41.929,8.5163 58.406,5.125 5.9152,-4.3973 8.7055,-8.4489 8.375,-12.719 l -1.0625,1.1875 c -0.9409,4.9294 -7.5312,10.188 -7.5312,10.188 -20.964,2.0308 -42.724,1.5396 -59.469,-6.75 -5.2776,16.208 -14.979,31.759 -25.562,42.688 -1.7142,-2.0784 -3.5445,-4.0542 -5.5,-5.875 -1.8634,-1.735 -3.5172,-3.1908 -5.0938,-4.5 0.80348,-1.4708 1.2188,-3.4137 1.2188,-5.9688 0,-11.32 -6.6996,-22.646 -20.062,-30.281 0.81418,-2.3235 0.3735,-5.1105 -1,-7.875 11.556,-6.8591 16.793,-14.999 21.094,-23.406 5.316,-7.435 5.1021,-11.279 3.5312,-11.438 -0.0982,-0.01 -0.20456,-0.0189 -0.3125,0 z"
         id="path42" />
    </g>
    <g
       transform="translate(68.833,77.829)"
       id="g58">
      <path
         inkscape:connector-curvature="0"
         d="m 432.21,304.04 c -6.0373,18.541 -17.876,36.215 -30.186,47.102 l 3.6106,3.8919 c 15.607,-13.459 25.529,-34.476 27.869,-48.037 17.408,11.8 41.936,8.521 58.413,5.1297 5.9152,-4.3973 8.699,-8.4541 8.3684,-12.724 l -1.073,1.1879 c -0.94087,4.9294 -7.5116,10.182 -7.5116,10.182 -20.964,2.0308 -42.746,1.5567 -59.49,-6.7328 z"
         id="path46" />
      <path
         inkscape:connector-curvature="0"
         d="m 232.41,326.59 c 11.827,15.503 28.842,28.271 44.059,34.477 l -2.1213,4.8666 c -19.178,-7.5441 -35.49,-24.099 -42.181,-36.125 -12.529,16.891 -36.762,21.903 -53.434,24.149 -7.0362,-2.1949 -11.004,-5.1035 -12.104,-9.2426 l 1.4053,0.76651 c 2.5173,4.3413 10.455,7.1269 10.455,7.1269 20.457,-5.0129 40.858,-12.66 53.921,-26.018 z"
         id="path48" />
      <path
         inkscape:connector-curvature="0"
         d="m 464.92,411.97 c -17.124,9.3257 -37.869,14.036 -54.294,13.491 l -0.0499,5.3086 c 20.587,0.94102 42.235,-7.5145 53.253,-15.762 4.5433,20.534 24.62,35.001 38.923,43.856 7.3193,0.86817 12.129,-0.16738 14.822,-3.4972 l -1.5958,0.12614 c -4.0701,2.9357 -12.453,2.2388 -12.453,2.2388 -16.629,-12.926 -32.132,-28.234 -38.605,-45.761 z"
         id="path50" />
      <path
         inkscape:connector-curvature="0"
         d="m 206.69,419.89 c 17.124,9.3257 37.869,14.036 54.294,13.491 l 0.0499,5.3086 c -20.587,0.94102 -42.235,-7.5145 -53.253,-15.762 -4.5433,20.534 -24.62,35.001 -38.923,43.856 -7.3193,0.86817 -12.129,-0.16738 -14.822,-3.4972 l 1.5958,0.12614 c 4.0701,2.9357 12.453,2.2388 12.453,2.2388 16.629,-12.926 32.132,-28.234 38.605,-45.761 z"
         id="path52" />
      <path
         inkscape:connector-curvature="0"
         d="m 438.41,516.11 c -19.449,1.3949 -40.282,-2.9106 -55.005,-10.21 l -2.2443,4.8111 c 18.348,9.3841 41.554,10.655 54.998,7.7117 -4.3703,20.572 7.9107,42.055 17.261,56.039 6.3022,3.8219 11.109,4.8717 14.94,2.9564 l -1.5047,-0.54616 c -4.9205,0.98613 -12.262,-3.1207 -12.262,-3.1207 -9.7813,-18.653 -17.551,-39.008 -16.182,-57.642 z"
         id="path54" />
      <path
         inkscape:connector-curvature="0"
         d="m 241.45,536.99 c 18.218,-6.9519 35.281,-19.655 45.543,-32.491 l 4.0666,3.4126 c -12.667,16.257 -33.163,27.212 -46.592,30.224 12.652,16.8 10.596,41.46 8.0281,58.085 -4.0977,6.1265 -8.011,9.1086 -12.292,8.9908 l 1.1331,-1.1307 c 4.8765,-1.1848 9.796,-8.0087 9.796,-8.0087 0.98571,-21.039 -0.57088,-42.77 -9.6829,-59.082 z"
         id="path56" />
    </g>
    <g
       transform="translate(68.833,77.829)"
       id="g62">
      <path
         style="fill:url(#f)"
         inkscape:connector-curvature="0"
         d="m 428.03,423.37 c 0,64.452 -41.064,116.7 -91.72,116.7 -50.656,0 -91.72,-52.249 -91.72,-116.7 0,-32.226 6.6666,-64.812 26.864,-82.52 19.569,-17.157 22.462,-8.3106 67.551,-10.376 42.354,-1.9397 43.912,-6.6161 62.161,10.376 19.658,18.304 26.864,50.294 26.864,82.52 z"
         id="path60" />
    </g>
    <g
       transform="translate(68.833,77.829)"
       id="g80">
      <path
         inkscape:connector-curvature="0"
         transform="matrix(1.4872,0,0,1.4872,-168.24,-121.65)"
         d="m 387.41,375.85 c 0,7.8503 -5.8205,13.696 -13,12.838 -7.1292,-0.85208 -12.697,-4.8368 -12.697,-11.927 0,-7.0902 6.4355,-11.899 13.608,-12.231 6.5727,-0.30364 12.09,4.2295 12.09,11.32 z"
         id="path64" />
      <path
         inkscape:connector-curvature="0"
         transform="matrix(1.4872,0,0,1.4872,-278.57,-130.88)"
         d="m 387.41,375.85 c 0,7.0902 -5.2132,14.356 -13,12.838 -7.0473,-1.374 -12.393,-6.0514 -13,-12.838 -0.63194,-7.062 5.844,-12.257 13,-12.838 7.4836,-0.60729 13,8.4806 13,12.838 z"
         id="path66" />
      <path
         inkscape:connector-curvature="0"
         d="m 316,491.87 c 2.4162,10.264 1.3408,19.299 -9.0534,21.746 -10.3942,2.447 -20.895,-5.1145 -25.654,-14.525 -5.3238,-10.528 1.1174,-18.93 11.512,-21.376 10.3946,-2.446 20.779,3.8906 23.195,14.155 z"
         id="path68" />
      <path
         inkscape:connector-curvature="0"
         d="m 347.45,492.78 c -2.4221,10.263 -1.3518,19.299 9.041,21.751 10.3928,2.452 20.898,-5.1026 25.662,-14.51 5.3298,-10.525 -1.1066,-18.93 -11.499,-21.383 -10.3924,-2.453 -20.781,3.8787 -23.203,14.142 z"
         id="path70" />
      <path
         inkscape:connector-curvature="0"
         d="m 291.24,383.45 c -10.336,-2.0867 -18.099,-6.8337 -15.986,-17.301 2.113,-10.4673 13.366,-16.856 23.903,-17.254 11.789,-0.44557 16.737,8.9134 14.624,19.381 -2.113,10.4676 -12.205,17.261 -22.542,15.174 z"
         id="path72" />
      <path
         inkscape:connector-curvature="0"
         d="m 379.93,383.99 c 10.205,-2.3493 15.818,-7.928 15.57,-19.278 -0.248,-11.35 -13.651,-16.767 -25.479,-14.828 -11.642,1.9083 -15.783,10.511 -12.654,20.721 3.129,10.21 12.357,15.735 22.563,13.386 z"
         id="path74" />
      <path
         style="opacity:0.75220002;fill:url(#c)"
         inkscape:connector-curvature="0"
         d="m 423.34,430.42 c -3.3947,64.393 -42.583,105.94 -87.708,105.94 -45.125,0 -86.609,-52.011 -87.246,-103.63 -1.3849,-112.1 44.033,-89.163 88.17,-98.556 53.215,-11.326 91.182,12.847 86.785,96.248 z"
         id="path76" />
      <path
         style="fill:url(#b);stroke:#000000;stroke-width:2;filter:url(#n)"
         inkscape:connector-curvature="0"
         transform="rotate(-90,361.793,425.697)"
         d="m 248.44,400.66 c 63.105,-13.035 180.29,-12.47 216.09,5.4835 -46.999,-24.133 -150.05,-30.438 -216.09,-5.4835 z"
         id="path78" />
    </g>
    <g
       transform="translate(68.833,77.829)"
       id="g106">
      <path
         inkscape:connector-curvature="0"
         id="j"
         d="m 352.45,297.3 1.8199,3.8907 c 28.229,-7.987 36.646,-19.89 43.037,-32.383 10.632,-14.87 -0.80147,-15.296 -1.1334,-0.84567 -6.9206,11.887 -15.793,22.817 -43.724,29.338 z" />
      <use
         y="0"
         x="0"
         transform="matrix(-0.98776,0.15596,0.15596,0.98776,625.07,-56.255)"
         width="380.7489"
         height="359.60327"
         xlink:href="#j"
         id="use83" />
      <path
         inkscape:connector-curvature="0"
         d="m 347.44,284.95 1.5788,2.2572 c 8.6677,-3.6523 22.085,-3.1251 26.382,-15.874 4.297,-12.7489 -3.5496,-12.755 -3.77,-12.683 -0.2204,0.072 -2.4307,-1.7598 -5.2233,11.563 -2.021,9.6417 -5.6535,8.8436 -18.968,14.737 z"
         id="path85" />
      <path
         inkscape:connector-curvature="0"
         d="m 325.21,286.71 -1.7108,2.1589 c -8.4342,-4.1633 -21.859,-4.4382 -25.387,-17.421 -3.528,-12.9828 4.3049,-12.521 4.5205,-12.435 0.2156,0.086 2.5314,-1.6116 4.5236,11.854 1.4418,9.7452 5.1154,9.1654 18.054,15.843 z"
         id="path87" />
      <path
         inkscape:connector-curvature="0"
         d="m 397.28,330.37 c 0,10.078 -6.5254,10.767 -17.369,9.705 -25.858,-2.5314 -38.03,12.149 -46.68,11.683 -8.65,-0.466 -7.6326,-14.406 -41.09,-11.768 -11.799,0.93057 -18.895,0.34436 -17.388,-9.6201 2.5906,-17.133 16.683,-38.979 59,-39.656 42.317,-0.677 63.527,19.501 63.527,39.656 z"
         id="path89" />
      <path
         style="opacity:0.43360003;fill:url(#e);filter:url(#m)"
         inkscape:connector-curvature="0"
         transform="matrix(0.85487,0,0,1.0473,49.236,-7.385)"
         d="m 339.53,291.51 c -38.641,0.0612 -73.839,15.489 -62.702,30.342 6.419,8.5614 42.188,-1.251 60.861,-0.89158 18.673,0.35942 59.951,8.7539 58.854,-1.2973 0.21401,-16.732 -18.372,-28.215 -57.014,-28.154 z"
         id="path91" />
      <path
         inkscape:connector-curvature="0"
         transform="translate(147.75,254.31)"
         d="m 187.44,16.875 v 0.03125 c -8.7011,0.23492 -19.013,2.9081 -25.281,9.0938 -11.918,4.1286 -19.822,16.907 -13.188,22.688 6.0168,6.2696 28.459,-3.3171 38.844,-3.375 0.29057,-0.0016 0.57267,-0.01387 0.84375,0 10.385,0.05792 32.796,9.6446 38.812,3.375 6.6345,-5.7802 -1.2696,-18.559 -13.188,-22.688 -6.2679,-6.1856 -16.549,-8.8588 -25.25,-9.0938 V 16.875 h -1.5938 z"
         id="path93" />
      <path
         style="opacity:0.30530001;fill:url(#d)"
         inkscape:connector-curvature="0"
         d="m 334.69,271.18 v 0.0312 c -8.7011,0.23492 -19.013,2.9081 -25.281,9.0938 -11.918,4.1286 -19.822,16.907 -13.188,22.688 6.0168,6.2696 28.459,-3.3171 38.844,-3.375 0.29057,-0.002 0.57267,-0.0139 0.84375,0 10.385,0.0579 32.796,9.6446 38.812,3.375 6.6345,-5.7802 -1.2696,-18.559 -13.188,-22.688 -6.2679,-6.1856 -16.549,-8.8588 -25.25,-9.0938 V 271.18 h -1.5938 z"
         id="path95" />
      <path
         style="fill:#e3e2db"
         inkscape:connector-curvature="0"
         id="k"
         d="m 351.6,292.87 c -4.6734,-0.88039 -8.2308,-4.5467 -6.5168,-8.1188 0.98791,-2.0589 6.0529,-2.8985 8.3208,-2.5732 2.2679,0.3253 5.3683,2.6309 4.9876,5.1922 -0.38714,4.3095 -2.1182,6.3802 -6.7916,5.4998 z" />
      <use
         y="0"
         x="0"
         transform="matrix(-0.98407,0.17776,0.17776,0.98407,615.56,-57.773)"
         width="380.7489"
         height="359.60327"
         xlink:href="#k"
         id="use98" />
      <path
         style="fill:#e3e2db"
         inkscape:connector-curvature="0"
         id="i"
         d="m 368.24,306.03 c 4.741,0.0876 6.1748,-0.78156 9.6563,-4.0291 5.8848,1.8386 13.907,10.801 15.142,16.521 -3.8465,3.9348 -10.263,0.9677 -18.479,1.2835 -6.2476,-8.1756 -1.6968,-5.5681 -6.319,-13.775 z" />
      <use
         y="0"
         x="0"
         transform="matrix(-0.99894,0.04613,0.04613,0.99894,657.91,-16.945)"
         width="380.7489"
         height="359.60327"
         xlink:href="#i"
         id="use101" />
      <path
         style="fill:url(#radialGradient324)"
         inkscape:connector-curvature="0"
         id="h"
         d="m 367.53,289.48 c -3.3518,-1.3496 -5.9289,-4.9482 -3.6505,-7.1836 2.2784,-2.2354 9.4368,1.3674 9.6672,4.7679 0.2304,3.4005 -2.6648,3.7654 -6.0166,2.4157 z" />
      <use
         y="0"
         x="0"
         transform="matrix(-1,0,0,1,672.53,0.23377)"
         width="380.7489"
         height="359.60327"
         xlink:href="#h"
         id="use104" />
    </g>
  </g>
</svg>
