<?xml version="1.0" encoding="utf-8"?>

<!DOCTYPE svg PUBLIC "-//W3C//DTD SVG 1.1//EN" "http://www.w3.org/Graphics/SVG/1.1/DTD/svg11.dtd">
<svg version="1.1" id="Layer_1" xmlns="http://www.w3.org/2000/svg" xmlns:xlink="http://www.w3.org/1999/xlink" x="0px" y="0px"
	 viewBox="0 0 2560 1600" enable-background="new 0 0 2560 1600" xml:space="preserve">
<pattern  width="250" height="250" patternUnits="userSpaceOnUse" id="New_Pattern" viewBox="70.7407 -320.7408 250 250" overflow="visible">
	<g>
		<polygon fill="none" points="70.7407,-320.7408 320.7407,-320.7408 320.7407,-70.7408 70.7407,-70.7408 		"/>
		<g>
			<path fill="#419931" stroke="#419931" stroke-width="0.0616" d="M136.756-28.9822c0.2126,8.2588,1.6533,17.2341,7.4557,23.5403
				c4.5034,4.8655,11.6363,6.4401,17.9426,4.7632c-4.7002-8.6131-5.6922-18.6118-5.023-28.2563
				c0.3464,7.3298,0.685,15.0768,3.9444,21.7295c1.921,1.3305,3.0311,3.3854,3.8342,5.519c1.7399-0.992,3.6373-1.6691,5.6213-1.9919
				c3.039-1.6533,4.6608-5.2356,5.456-8.4871c1.614-7.7549-0.4803-15.7145-2.9524-23.0601
				c-3.9759-12.2583-10.353-23.5482-15.0453-35.5152c-2.3776,1.1101-3.6295,3.5744-5.3615,5.4166
				C144.1173-55.0577,136.8741-42.697,136.756-28.9822z"/>
			<path fill="#419931" stroke="#419931" stroke-width="0.0616" d="M254.7254-28.9822c-0.2126,8.2588-1.6533,17.2341-7.4557,23.5403
				c-4.5034,4.8655-11.6363,6.4401-17.9426,4.7632c4.7002-8.6131,5.6922-18.6118,5.023-28.2563
				c-0.3464,7.3298-0.685,15.0768-3.9444,21.7295c-1.921,1.3305-3.0311,3.3854-3.8342,5.519
				c-1.7399-0.992-3.6373-1.6691-5.6213-1.9919c-3.039-1.6533-4.6608-5.2356-5.456-8.4871
				c-1.614-7.7549,0.4803-15.7145,2.9524-23.0601c3.9759-12.2583,10.353-23.5482,15.0453-35.5152
				c2.3776,1.1101,3.6295,3.5744,5.3615,5.4166C247.3642-55.0577,254.6073-42.697,254.7254-28.9822z"/>
		</g>
		<g>
			<path fill="#419931" stroke="#419931" stroke-width="0.0616" d="M362.4992-136.756c8.2588-0.2126,17.234-1.6533,23.5403-7.4557
				c4.8655-4.5034,6.4402-11.6363,4.7632-17.9426c-8.6131,4.7002-18.6118,5.6922-28.2563,5.023
				c7.3298-0.3464,15.0768-0.685,21.7295-3.9444c1.3305-1.921,3.3854-3.0311,5.519-3.8342
				c-0.992-1.7399-1.6691-3.6373-1.9919-5.6213c-1.6534-3.039-5.2356-4.6608-8.4871-5.456
				c-7.7549-1.614-15.7145,0.4803-23.0601,2.9524c-12.2583,3.9759-23.5482,10.353-35.5152,15.0453
				c1.1101,2.3776,3.5744,3.6295,5.4166,5.3615C336.4238-144.1173,348.7844-136.8741,362.4992-136.756z"/>
			<path fill="#419931" stroke="#419931" stroke-width="0.0616" d="M362.4992-254.7254c8.2588,0.2126,17.234,1.6533,23.5403,7.4557
				c4.8655,4.5034,6.4402,11.6363,4.7632,17.9426c-8.6131-4.7002-18.6118-5.6922-28.2563-5.023
				c7.3298,0.3464,15.0768,0.685,21.7295,3.9444c1.3305,1.921,3.3854,3.0311,5.519,3.8342
				c-0.992,1.7399-1.6691,3.6373-1.9919,5.6213c-1.6534,3.039-5.2356,4.6608-8.4871,5.456
				c-7.7549,1.614-15.7145-0.4803-23.0601-2.9524c-12.2583-3.9759-23.5482-10.353-35.5152-15.0453
				c1.1101-2.3776,3.5744-3.6295,5.4166-5.3615C336.4238-247.3642,348.7844-254.6073,362.4992-254.7254z"/>
		</g>
		<g>
			<path fill="#367D2D" stroke="#367D2D" stroke-width="0.0616" d="M180.5158-210.9657c4.2332-1.7641,9.5924-2.8604,13.3905,0.3528
				c0.7644,2.0944,1.4283,4.2692,1.8344,6.4785c0.4061-2.2093,1.07-4.3842,1.8344-6.4785
				c3.7981-3.2132,9.1573-2.1169,13.3905-0.3528c1.7641,4.2332,2.8604,9.5924-0.3528,13.3905
				c-2.0944,0.7644-4.2692,1.4283-6.4785,1.8344c2.2093,0.4061,4.3842,1.07,6.4785,1.8344
				c3.2132,3.7981,2.1169,9.1573,0.3528,13.3905c-4.2332,1.7641-9.5924,2.8604-13.3905-0.3528
				c-0.7644-2.0944-1.4283-4.2692-1.8344-6.4785c-0.4061,2.2093-1.07,4.3842-1.8344,6.4785
				c-3.7981,3.2132-9.1573,2.1169-13.3905,0.3528c-1.7641-4.2332-2.8604-9.5924,0.3528-13.3905
				c2.0944-0.7644,4.2692-1.4283,6.4785-1.8344c-2.2093-0.4061-4.3842-1.07-6.4785-1.8344
				C177.6554-201.3732,178.7517-206.7325,180.5158-210.9657z"/>
			<path fill="#367D2D" stroke="#367D2D" stroke-width="0.0616" d="M231.3639-231.3639c0.797,3.8309,0.7894,7.7915-0.4229,11.5711
				c-1.8029,6.3772-6.3378,11.534-11.4552,15.5571c-1.1765-3.6848-2.7059-7.2669-4.6321-10.618
				c-3.351-1.9262-6.9332-3.4556-10.618-4.6321c4.0231-5.1175,9.1799-9.6523,15.5571-11.4552
				C223.5724-232.1533,227.5331-232.1609,231.3639-231.3639z"/>
			<path fill="#367D2D" stroke="#367D2D" stroke-width="0.0616" d="M231.3639-160.1175c-3.8309,0.797-7.7915,0.7894-11.5711-0.4229
				c-6.3772-1.8029-11.534-6.3378-15.5571-11.4552c3.6848-1.1765,7.2669-2.7059,10.618-4.6321
				c1.9262-3.351,3.4556-6.9332,4.6321-10.618c5.1175,4.0231,9.6523,9.1799,11.4552,15.5571
				C232.1533-167.909,232.1609-163.9484,231.3639-160.1175z"/>
			<path fill="#367D2D" stroke="#367D2D" stroke-width="0.0616" d="M160.1175-160.1175c-0.797-3.8309-0.7894-7.7915,0.4229-11.5711
				c1.8029-6.3772,6.3378-11.534,11.4552-15.5571c1.1765,3.6848,2.7059,7.2669,4.6321,10.618
				c3.351,1.9262,6.9332,3.4556,10.618,4.6321c-4.0231,5.1175-9.1799,9.6523-15.5571,11.4552
				C167.909-159.3281,163.9484-159.3205,160.1175-160.1175z"/>
			<path fill="#367D2D" stroke="#367D2D" stroke-width="0.0616" d="M160.1175-231.3639c3.8309-0.797,7.7915-0.7894,11.5711,0.4229
				c6.3772,1.8029,11.534,6.3378,15.5571,11.4552c-3.6848,1.1765-7.2669,2.7059-10.618,4.6321
				c-1.9262,3.351-3.4556,6.9332-4.6321,10.618c-5.1175-4.0231-9.6523-9.1799-11.4552-15.5571
				C159.3281-223.5724,159.3205-227.5331,160.1175-231.3639z"/>
			<path fill="#419931" stroke="#419931" stroke-width="0.0616" d="M136.756-278.9822c0.2126,8.2588,1.6533,17.234,7.4557,23.5403
				c4.5034,4.8655,11.6363,6.4401,17.9426,4.7632c-4.7002-8.6131-5.6922-18.6118-5.023-28.2563
				c0.3464,7.3298,0.685,15.0768,3.9444,21.7295c1.921,1.3305,3.0311,3.3854,3.8342,5.519c1.7399-0.992,3.6373-1.6691,5.6213-1.9919
				c3.039-1.6534,4.6608-5.2356,5.456-8.4871c1.614-7.7549-0.4803-15.7145-2.9524-23.0601
				c-3.9759-12.2583-10.353-23.5482-15.0453-35.5152c-2.3776,1.1101-3.6295,3.5744-5.3615,5.4166
				C144.1173-305.0576,136.8741-292.697,136.756-278.9822z"/>
			<path fill="#419931" stroke="#419931" stroke-width="0.0616" d="M112.4992-136.756c8.2588-0.2126,17.2341-1.6533,23.5403-7.4557
				c4.8655-4.5034,6.4401-11.6363,4.7632-17.9426c-8.6131,4.7002-18.6118,5.6922-28.2563,5.023
				c7.3298-0.3464,15.0768-0.685,21.7295-3.9444c1.3305-1.921,3.3854-3.0311,5.519-3.8342
				c-0.992-1.7399-1.6691-3.6373-1.9919-5.6213c-1.6534-3.039-5.2356-4.6608-8.4871-5.456
				c-7.7549-1.614-15.7146,0.4803-23.0601,2.9524c-12.2583,3.9759-23.5482,10.353-35.5152,15.0453
				c1.1101,2.3776,3.5744,3.6295,5.4166,5.3615C86.4238-144.1173,98.7844-136.8741,112.4992-136.756z"/>
			<path fill="#419931" stroke="#419931" stroke-width="0.0616" d="M254.7254-112.4992
				c-0.2126-8.2588-1.6533-17.2341-7.4557-23.5403c-4.5034-4.8655-11.6363-6.4401-17.9426-4.7632
				c4.7002,8.6131,5.6922,18.6118,5.023,28.2563c-0.3464-7.3298-0.685-15.0768-3.9444-21.7295
				c-1.921-1.3305-3.0311-3.3854-3.8342-5.519c-1.7399,0.992-3.6373,1.6691-5.6213,1.9919c-3.039,1.6534-4.6608,5.2356-5.456,8.4871
				c-1.614,7.7549,0.4803,15.7146,2.9524,23.0601c3.9759,12.2583,10.353,23.5482,15.0453,35.5152
				c2.3776-1.1101,3.6295-3.5744,5.3615-5.4166C247.3642-86.4238,254.6073-98.7844,254.7254-112.4992z"/>
			<path fill="#419931" stroke="#419931" stroke-width="0.0616" d="M278.9822-254.7254c-8.2588,0.2126-17.234,1.6533-23.5403,7.4557
				c-4.8655,4.5034-6.4401,11.6363-4.7632,17.9426c8.6131-4.7002,18.6118-5.6922,28.2563-5.023
				c-7.3298,0.3464-15.0768,0.685-21.7295,3.9444c-1.3305,1.921-3.3854,3.0311-5.519,3.8342
				c0.992,1.7399,1.6691,3.6373,1.9919,5.6213c1.6534,3.039,5.2356,4.6608,8.4871,5.456c7.7549,1.614,15.7145-0.4803,23.0601-2.9524
				c12.2583-3.9759,23.5482-10.353,35.5152-15.0453c-1.1101-2.3776-3.5744-3.6295-5.4166-5.3615
				C305.0576-247.3642,292.697-254.6073,278.9822-254.7254z"/>
			<path fill="#419931" stroke="#419931" stroke-width="0.0616" d="M254.7254-278.9822c-0.2126,8.2588-1.6533,17.234-7.4557,23.5403
				c-4.5034,4.8655-11.6363,6.4401-17.9426,4.7632c4.7002-8.6131,5.6922-18.6118,5.023-28.2563
				c-0.3464,7.3298-0.685,15.0768-3.9444,21.7295c-1.921,1.3305-3.0311,3.3854-3.8342,5.519
				c-1.7399-0.992-3.6373-1.6691-5.6213-1.9919c-3.039-1.6534-4.6608-5.2356-5.456-8.4871
				c-1.614-7.7549,0.4803-15.7145,2.9524-23.0601c3.9759-12.2583,10.353-23.5482,15.0453-35.5152
				c2.3776,1.1101,3.6295,3.5744,5.3615,5.4166C247.3642-305.0576,254.6073-292.697,254.7254-278.9822z"/>
			<path fill="#419931" stroke="#419931" stroke-width="0.0616" d="M112.4992-254.7254c8.2588,0.2126,17.2341,1.6533,23.5403,7.4557
				c4.8655,4.5034,6.4401,11.6363,4.7632,17.9426c-8.6131-4.7002-18.6118-5.6922-28.2563-5.023
				c7.3298,0.3464,15.0768,0.685,21.7295,3.9444c1.3305,1.921,3.3854,3.0311,5.519,3.8342
				c-0.992,1.7399-1.6691,3.6373-1.9919,5.6213c-1.6534,3.039-5.2356,4.6608-8.4871,5.456
				c-7.7549,1.614-15.7146-0.4803-23.0601-2.9524c-12.2583-3.9759-23.5482-10.353-35.5152-15.0453
				c1.1101-2.3776,3.5744-3.6295,5.4166-5.3615C86.4238-247.3642,98.7844-254.6073,112.4992-254.7254z"/>
			<path fill="#419931" stroke="#419931" stroke-width="0.0616" d="M136.756-112.4992c0.2126-8.2588,1.6533-17.2341,7.4557-23.5403
				c4.5034-4.8655,11.6363-6.4401,17.9426-4.7632c-4.7002,8.6131-5.6922,18.6118-5.023,28.2563
				c0.3464-7.3298,0.685-15.0768,3.9444-21.7295c1.921-1.3305,3.0311-3.3854,3.8342-5.519c1.7399,0.992,3.6373,1.6691,5.6213,1.9919
				c3.039,1.6534,4.6608,5.2356,5.456,8.4871c1.614,7.7549-0.4803,15.7146-2.9524,23.0601
				c-3.9759,12.2583-10.353,23.5482-15.0453,35.5152c-2.3776-1.1101-3.6295-3.5744-5.3615-5.4166
				C144.1173-86.4238,136.8741-98.7844,136.756-112.4992z"/>
			<path fill="#419931" stroke="#419931" stroke-width="0.0616" d="M278.9822-136.756c-8.2588-0.2126-17.234-1.6533-23.5403-7.4557
				c-4.8655-4.5034-6.4401-11.6363-4.7632-17.9426c8.6131,4.7002,18.6118,5.6922,28.2563,5.023
				c-7.3298-0.3464-15.0768-0.685-21.7295-3.9444c-1.3305-1.921-3.3854-3.0311-5.519-3.8342
				c0.992-1.7399,1.6691-3.6373,1.9919-5.6213c1.6534-3.039,5.2356-4.6608,8.4871-5.456c7.7549-1.614,15.7145,0.4803,23.0601,2.9524
				c12.2583,3.9759,23.5482,10.353,35.5152,15.0453c-1.1101,2.3776-3.5744,3.6295-5.4166,5.3615
				C305.0576-144.1173,292.697-136.8741,278.9822-136.756z"/>
			<path fill="#A9BD04" stroke="#A9BD04" stroke-width="0.0616" d="M205.3694-234.9877l0.2992-0.1496
				c2.4879-4.464,4.3616-9.4712,4.1963-14.6517c-0.3028-12.2278-5.7809-23.9503-14.1242-32.7667
				c-8.3433,8.8165-13.8214,20.5389-14.1242,32.7667c-0.1653,5.1805,1.7084,10.1877,4.1963,14.6517l0.2992,0.1496
				c3.3269,1.627,6.0791,4.2951,9.6287,5.4482C199.2903-230.6926,202.0426-233.3608,205.3694-234.9877z"/>
			<path fill="#A9BD04" stroke="#A9BD04" stroke-width="0.0616" d="M229.5395-195.7407c1.1531-3.5496,3.8213-6.3018,5.4482-9.6287
				l0.1496-0.2992c4.464-2.4879,9.4712-4.3616,14.6517-4.1963c12.2278,0.3028,23.9503,5.7809,32.7667,14.1242
				c-8.8165,8.3433-20.5389,13.8214-32.7667,14.1242c-5.1805,0.1653-10.1877-1.7084-14.6517-4.1963l-0.1496-0.2992
				C233.3608-189.4389,230.6926-192.1911,229.5395-195.7407z"/>
			<path fill="#A9BD04" stroke="#A9BD04" stroke-width="0.0616" d="M195.7407-161.9419c3.5496,1.1531,6.3018,3.8213,9.6287,5.4482
				l0.2992,0.1496c2.4879,4.464,4.3616,9.4712,4.1963,14.6517c-0.3028,12.2278-5.7809,23.9503-14.1242,32.7667
				c-8.3433-8.8165-13.8214-20.5389-14.1242-32.7667c-0.1653-5.1805,1.7084-10.1877,4.1963-14.6517l0.2992-0.1496
				C189.4389-158.1207,192.1911-160.7888,195.7407-161.9419z"/>
			<path fill="#A9BD04" stroke="#A9BD04" stroke-width="0.0616" d="M161.9419-195.7407c-1.1531,3.5496-3.8213,6.3018-5.4482,9.6287
				l-0.1496,0.2992c-4.464,2.4879-9.4712,4.3616-14.6517,4.1963c-12.2278-0.3028-23.9503-5.7809-32.7667-14.1242
				c8.8165-8.3433,20.5389-13.8214,32.7667-14.1242c5.1805-0.1653,10.1877,1.7084,14.6517,4.1963l0.1496,0.2992
				C158.1207-202.0426,160.7888-199.2903,161.9419-195.7407z"/>
			<path fill="#46803A" stroke="#46803A" stroke-width="0.0616" d="M224.1545-244.6794c2.417-3.9916,4.9443-8.0226,6.2512-12.526
				c-1.921,1.3305-3.0311,3.3854-3.8342,5.519c-1.7399-0.992-3.6373-1.6691-5.6213-1.9919
				c1.4801,1.3935,3.3382,2.2517,5.1962,3.0232c-5.5899,10.2428-14.2187,18.6118-23.871,25.0362
				c-2.1268,1.3949-4.3074,2.6951-6.5346,3.9028c-2.2272-1.2077-4.4078-2.5079-6.5346-3.9028
				c-9.6523-6.4244-18.2811-14.7934-23.871-25.0362c1.858-0.7715,3.7161-1.6297,5.1962-3.0232
				c-1.984,0.3228-3.8814,0.9999-5.6213,1.9919c-0.803-2.1336-1.9131-4.1884-3.8342-5.519
				c1.3069,4.5034,3.8342,8.5343,6.2512,12.526c7.1551,10.8191,17.1219,19.5347,28.4137,25.869
				C207.0325-225.1448,216.9994-233.8604,224.1545-244.6794z"/>
			<path fill="#46803A" stroke="#46803A" stroke-width="0.0616" d="M218.8104-195.7407c6.3344-11.2918,15.05-21.2586,25.869-28.4137
				c3.9916-2.417,8.0226-4.9443,12.526-6.2512c-1.3305,1.921-3.3854,3.0311-5.519,3.8342c0.992,1.7399,1.6691,3.6373,1.9919,5.6213
				c-1.3935-1.4801-2.2517-3.3382-3.0232-5.1962c-10.2428,5.5899-18.6118,14.2187-25.0362,23.871
				c-1.3949,2.1268-2.6951,4.3074-3.9028,6.5346c1.2077,2.2272,2.5079,4.4078,3.9028,6.5346
				c6.4244,9.6523,14.7934,18.2811,25.0362,23.871c0.7715-1.858,1.6297-3.7161,3.0232-5.1962
				c-0.3228,1.984-0.9999,3.8814-1.9919,5.6213c2.1336,0.803,4.1884,1.9131,5.519,3.8342
				c-4.5034-1.3069-8.5343-3.8342-12.526-6.2512C233.8604-174.4821,225.1448-184.4489,218.8104-195.7407z"/>
			<path fill="#46803A" stroke="#46803A" stroke-width="0.0616" d="M195.7407-172.6711c11.2918,6.3344,21.2586,15.05,28.4137,25.869
				c2.417,3.9916,4.9443,8.0226,6.2512,12.526c-1.921-1.3305-3.0311-3.3854-3.8342-5.519c-1.7399,0.992-3.6373,1.6691-5.6213,1.9919
				c1.4801-1.3935,3.3382-2.2517,5.1962-3.0232c-5.5899-10.2428-14.2187-18.6118-23.871-25.0362
				c-2.1268-1.3949-4.3074-2.6951-6.5346-3.9028c-2.2272,1.2077-4.4078,2.5079-6.5346,3.9028
				c-9.6523,6.4244-18.2811,14.7934-23.871,25.0362c1.858,0.7715,3.7161,1.6297,5.1962,3.0232
				c-1.984-0.3228-3.8814-0.9999-5.6213-1.9919c-0.803,2.1336-1.9131,4.1884-3.8342,5.519
				c1.3069-4.5034,3.8342-8.5343,6.2512-12.526C174.4821-157.6211,184.4489-166.3367,195.7407-172.6711z"/>
			<path fill="#46803A" stroke="#46803A" stroke-width="0.0616" d="M172.6711-195.7407
				c-6.3344,11.2918-15.05,21.2586-25.869,28.4137c-3.9916,2.417-8.0226,4.9443-12.526,6.2512
				c1.3305-1.921,3.3854-3.0311,5.519-3.8342c-0.992-1.7399-1.6691-3.6373-1.9919-5.6213c1.3935,1.4801,2.2517,3.3382,3.0232,5.1962
				c10.2428-5.5899,18.6118-14.2187,25.0362-23.871c1.3949-2.1268,2.6951-4.3074,3.9028-6.5346
				c-1.2077-2.2272-2.5079-4.4078-3.9028-6.5346c-6.4244-9.6523-14.7934-18.2811-25.0362-23.871
				c-0.7715,1.858-1.6297,3.7161-3.0232,5.1962c0.3228-1.984,0.9999-3.8814,1.9919-5.6213c-2.1336-0.803-4.1884-1.9131-5.519-3.8342
				c4.5034,1.3069,8.5343,3.8342,12.526,6.2512C157.6211-216.9994,166.3367-207.0325,172.6711-195.7407z"/>
			<path fill="#477823" stroke="#477823" stroke-width="0.0616" d="M205.3694-234.9878c-3.3269,1.627-6.0791,4.2951-9.6287,5.4482
				c-3.5496-1.1531-6.3018-3.8213-9.6287-5.4482c2.2667,3.5868,5.7606,6.0886,9.6287,7.682
				C199.6089-228.8992,203.1028-231.401,205.3694-234.9878z"/>
			<path fill="#477823" stroke="#477823" stroke-width="0.0616" d="M227.3057-195.7407c1.5934-3.8681,4.0952-7.362,7.682-9.6287
				c-1.627,3.3269-4.2951,6.0791-5.4482,9.6287c1.1531,3.5496,3.8213,6.3018,5.4482,9.6287
				C231.401-188.3787,228.8992-191.8726,227.3057-195.7407z"/>
			<path fill="#477823" stroke="#477823" stroke-width="0.0616" d="M195.7407-164.1757c3.8681,1.5934,7.362,4.0952,9.6287,7.682
				c-3.3269-1.627-6.0791-4.2951-9.6287-5.4482c-3.5496,1.1531-6.3018,3.8213-9.6287,5.4482
				C188.3787-160.0805,191.8726-162.5823,195.7407-164.1757z"/>
			<path fill="#477823" stroke="#477823" stroke-width="0.0616" d="M164.1757-195.7407c-1.5934,3.8681-4.0952,7.362-7.682,9.6287
				c1.627-3.3269,4.2951-6.0791,5.4482-9.6287c-1.1531-3.5496-3.8213-6.3018-5.4482-9.6287
				C160.0805-203.1028,162.5823-199.6089,164.1757-195.7407z"/>
		</g>
		<g>
			<path fill="#419931" stroke="#419931" stroke-width="0.0616" d="M28.9822-254.7254c-8.2588,0.2126-17.2341,1.6533-23.5403,7.4557
				c-4.8655,4.5034-6.4401,11.6363-4.7632,17.9426c8.6131-4.7002,18.6118-5.6922,28.2563-5.023
				c-7.3298,0.3464-15.0768,0.685-21.7295,3.9444c-1.3305,1.921-3.3854,3.0311-5.519,3.8342
				c0.992,1.7399,1.6691,3.6373,1.9919,5.6213c1.6533,3.039,5.2356,4.6608,8.4871,5.456c7.7549,1.614,15.7145-0.4803,23.0601-2.9524
				c12.2583-3.9759,23.5482-10.353,35.5152-15.0453c-1.1101-2.3776-3.5744-3.6295-5.4166-5.3615
				C55.0577-247.3642,42.697-254.6073,28.9822-254.7254z"/>
			<path fill="#419931" stroke="#419931" stroke-width="0.0616" d="M28.9822-136.756c-8.2588-0.2126-17.2341-1.6533-23.5403-7.4557
				c-4.8655-4.5034-6.4401-11.6363-4.7632-17.9426c8.6131,4.7002,18.6118,5.6922,28.2563,5.023
				c-7.3298-0.3464-15.0768-0.685-21.7295-3.9444c-1.3305-1.921-3.3854-3.0311-5.519-3.8342
				c0.992-1.7399,1.6691-3.6373,1.9919-5.6213c1.6533-3.039,5.2356-4.6608,8.4871-5.456c7.7549-1.614,15.7145,0.4803,23.0601,2.9524
				c12.2583,3.9759,23.5482,10.353,35.5152,15.0453c-1.1101,2.3776-3.5744,3.6295-5.4166,5.3615
				C55.0577-144.1173,42.697-136.8741,28.9822-136.756z"/>
		</g>
		<g>
			<path fill="#419931" stroke="#419931" stroke-width="0.0616" d="M254.7254-362.4992c-0.2126-8.2588-1.6533-17.234-7.4557-23.5403
				c-4.5034-4.8655-11.6363-6.4402-17.9426-4.7632c4.7002,8.6131,5.6922,18.6118,5.023,28.2563
				c-0.3464-7.3298-0.685-15.0768-3.9444-21.7295c-1.921-1.3305-3.0311-3.3854-3.8342-5.519
				c-1.7399,0.992-3.6373,1.6691-5.6213,1.9919c-3.039,1.6534-4.6608,5.2356-5.456,8.4871
				c-1.614,7.7549,0.4803,15.7145,2.9524,23.0601c3.9759,12.2583,10.353,23.5482,15.0453,35.5152
				c2.3776-1.1101,3.6295-3.5744,5.3615-5.4166C247.3642-336.4238,254.6073-348.7844,254.7254-362.4992z"/>
			<path fill="#419931" stroke="#419931" stroke-width="0.0616" d="M136.756-362.4992c0.2126-8.2588,1.6533-17.234,7.4557-23.5403
				c4.5034-4.8655,11.6363-6.4402,17.9426-4.7632c-4.7002,8.6131-5.6922,18.6118-5.023,28.2563
				c0.3464-7.3298,0.685-15.0768,3.9444-21.7295c1.921-1.3305,3.0311-3.3854,3.8342-5.519c1.7399,0.992,3.6373,1.6691,5.6213,1.9919
				c3.039,1.6534,4.6608,5.2356,5.456,8.4871c1.614,7.7549-0.4803,15.7145-2.9524,23.0601
				c-3.9759,12.2583-10.353,23.5482-15.0453,35.5152c-2.3776-1.1101-3.6295-3.5744-5.3615-5.4166
				C144.1173-336.4238,136.8741-348.7844,136.756-362.4992z"/>
		</g>
	</g>
</pattern>
<rect fill="url(#New_Pattern)" width="2560" height="1600"/>
</svg>
