<?xml version="1.0" encoding="UTF-8" standalone="no"?>
<svg
   xmlns:dc="http://purl.org/dc/elements/1.1/"
   xmlns:cc="http://creativecommons.org/ns#"
   xmlns:rdf="http://www.w3.org/1999/02/22-rdf-syntax-ns#"
   xmlns:svg="http://www.w3.org/2000/svg"
   xmlns="http://www.w3.org/2000/svg"
   xmlns:sodipodi="http://sodipodi.sourceforge.net/DTD/sodipodi-0.dtd"
   xmlns:inkscape="http://www.inkscape.org/namespaces/inkscape"
   enable-background="new 0 0 2560 1600"
   version="1.1"
   viewBox="0 0 2560 1600"
   xml:space="preserve"
   id="svg70"
   sodipodi:docname="sun.svg"
   inkscape:version="0.92.4 5da689c313, 2019-01-14"><metadata
     id="metadata74"><rdf:RDF><cc:Work
         rdf:about=""><dc:format>image/svg+xml</dc:format><dc:type
           rdf:resource="http://purl.org/dc/dcmitype/StillImage" /><dc:title></dc:title></cc:Work></rdf:RDF></metadata><sodipodi:namedview
     pagecolor="#ffffff"
     bordercolor="#666666"
     borderopacity="1"
     objecttolerance="10"
     gridtolerance="10"
     guidetolerance="10"
     inkscape:pageopacity="0"
     inkscape:pageshadow="2"
     inkscape:window-width="3840"
     inkscape:window-height="2107"
     id="namedview72"
     showgrid="false"
     inkscape:zoom="0.84375"
     inkscape:cx="1280"
     inkscape:cy="894.81481"
     inkscape:window-x="0"
     inkscape:window-y="0"
     inkscape:window-maximized="1"
     inkscape:current-layer="svg70" /><defs
     id="defs19"><filter
       id="c"
       x="-.2208"
       y="-.2208"
       width="1.4416"
       height="1.4416"
       color-interpolation-filters="sRGB"><feGaussianBlur
         stdDeviation="67.616687"
         id="feGaussianBlur2" /></filter><filter
       id="b"
       x="-.024"
       y="-.024"
       width="1.048"
       height="1.048"
       color-interpolation-filters="sRGB"><feGaussianBlur
         stdDeviation="4.52978"
         id="feGaussianBlur5" /></filter><filter
       id="a"
       x="-.034208"
       y="-.068368"
       width="1.0684"
       height="1.1367"
       color-interpolation-filters="sRGB"><feGaussianBlur
         result="fbSourceGraphic"
         stdDeviation="7.831021"
         id="feGaussianBlur8" /><feColorMatrix
         in="fbSourceGraphic"
         result="fbSourceGraphicAlpha"
         values="0 0 0 -1 0 0 0 0 -1 0 0 0 0 -1 0 0 0 0 1 0"
         id="feColorMatrix10" /><feTurbulence
         baseFrequency="0.002 0.107"
         in="fbSourceGraphic"
         id="feTurbulence12" /><feColorMatrix
         result="result91"
         values="2 0 0 0 0 0 0 0 0 0 0 0 0 0 0 0 0 0 0.5 0.5"
         id="feColorMatrix14" /><feDisplacementMap
         in="fbSourceGraphic"
         in2="result91"
         scale="20.800000000000001"
         xChannelSelector="R"
         id="feDisplacementMap16" /></filter></defs><linearGradient
     id="h"
     x1="1280"
     x2="1280"
     y1="909"
     y2="1285"
     gradientUnits="userSpaceOnUse"><stop
       stop-color="#8C712F"
       offset="0"
       id="stop21" /><stop
       stop-color="#194A6B"
       offset="1"
       id="stop23" /></linearGradient><linearGradient
     id="g"
     x1="1280"
     x2="1280"
     y1="909"
     y2="-5.7467e-8"
     gradientUnits="userSpaceOnUse"><stop
       stop-color="#E7AD00"
       offset="0"
       id="stop26" /><stop
       stop-color="#E75F01"
       offset="1"
       id="stop28" /></linearGradient><radialGradient
     id="f"
     cx="2090"
     cy="381.61"
     r="367.48"
     gradientUnits="userSpaceOnUse"><stop
       stop-color="#EBBD00"
       offset="0"
       id="stop31" /><stop
       stop-color="#EBCB3F"
       offset="1"
       id="stop33" /></radialGradient><radialGradient
     id="e"
     cx="2082.6"
     cy="1282.1"
     r="337.49"
     gradientUnits="userSpaceOnUse"><stop
       stop-color="#729B3F"
       offset="0"
       id="stop36" /><stop
       stop-color="#EEFE45"
       offset="1"
       id="stop38" /></radialGradient><rect
     y="1285"
     width="2560"
     height="315"
     id="rect41" /><rect
     y="909"
     width="2560"
     height="376"
     fill="url(#h)"
     id="rect43" /><rect
     width="2560"
     height="909"
     fill="url(#g)"
     id="rect45" /><path
     d="m2364.8 1284.8c0-151.72-122.99-274.71-274.71-274.71s-274.71 122.99-274.71 274.71h105.4c0 0.065-2e-3 0.129-2e-3 0.194h338.62c0-0.065-2e-3 -0.129-2e-3 -0.194h105.4z"
     fill="url(#e)"
     filter="url(#a)"
     id="path55" /><g
     transform="translate(0,100)"
     id="g61"><circle
       cx="2090"
       cy="381.61"
       r="367.48"
       fill="url(#f)"
       filter="url(#c)"
       id="circle57" /><circle
       cx="2090"
       cy="381.61"
       r="226.49"
       fill="url(#d)"
       filter="url(#b)"
       id="circle59" /></g><polygon
     points="2560 833 2497 833 2453 833 1751 833 1707 833 1005 833 961 833 259 833 215 833 0 833 0 877 215 877 215 1285 259 1285 259 877 961 877 961 1285 1005 1285 1005 877 1707 877 1707 1285 1751 1285 1751 877 2453 877 2453 1285 2497 1285 2497 877 2560 877"
     id="polygon63" /><radialGradient
     id="d"
     cx="2090"
     cy="381.61"
     r="226.49"
     gradientUnits="userSpaceOnUse"><stop
       stop-color="#ff0"
       offset="0"
       id="stop65" /><stop
       stop-color="#EEFE45"
       offset="1"
       id="stop67" /></radialGradient></svg>