<?xml version="1.0" encoding="UTF-8" standalone="no"?>
<svg
   xmlns:xapRights="http://ns.adobe.com/xap/1.0/rights/"
   xmlns:x="adobe:ns:meta/"
   xmlns:dc="http://purl.org/dc/elements/1.1/"
   xmlns:cc="http://creativecommons.org/ns#"
   xmlns:rdf="http://www.w3.org/1999/02/22-rdf-syntax-ns#"
   xmlns:svg="http://www.w3.org/2000/svg"
   xmlns="http://www.w3.org/2000/svg"
   xmlns:sodipodi="http://sodipodi.sourceforge.net/DTD/sodipodi-0.dtd"
   xmlns:inkscape="http://www.inkscape.org/namespaces/inkscape"
   version="1.1"
   width="7680"
   height="4320"
   id="svg36"
   sodipodi:docname="usa-flag.svg"
   inkscape:version="0.92.4 5da689c313, 2019-01-14">
  <sodipodi:namedview
     pagecolor="#ffffff"
     bordercolor="#666666"
     borderopacity="1"
     objecttolerance="10"
     gridtolerance="10"
     guidetolerance="10"
     inkscape:pageopacity="0"
     inkscape:pageshadow="2"
     inkscape:window-width="3840"
     inkscape:window-height="2107"
     id="namedview38"
     showgrid="false"
     inkscape:zoom="0.16561397"
     inkscape:cx="452.78255"
     inkscape:cy="1657.8118"
     inkscape:window-x="0"
     inkscape:window-y="0"
     inkscape:window-maximized="1"
     inkscape:current-layer="svg36" />
  <metadata
     id="metadata2">
<?xpacket begin="" id=""?>    <x:xmpmeta>
      <metadata>
        <rdf:RDF>
          <rdf:Description
             rdf:about="">
            <xapRights:Marked>True</xapRights:Marked>
          </rdf:Description>
          <rdf:Description
             rdf:about="">
            <xapRights:WebStatement
               rdf:resource="http://www.xmple.com/wallpaper/linear-grey-black-gradient-highlight-3840x2160-c2-000000-2f4f4f-l-50-a-345-f-21-image/" />
          </rdf:Description>
          <rdf:Description
             rdf:about="">
            <xapRights:UsageTerms>
              <rdf:Alt>
                <rdf:li
                   xml:lang="en">This work is licensed under a &lt;a rel=&quot;license&quot; href=&quot;http://creativecommons.org/licenses/by-nc-nd/4.0/&quot;&gt;Creative Commons Attribution-NonCommercial-NoDerivatives 4.0 International License&lt;/a&gt;.</rdf:li>
              </rdf:Alt>
            </xapRights:UsageTerms>
          </rdf:Description>
          <rdf:Description
             rdf:about="">
            <dc:title>
              <rdf:Alt>
                <rdf:li
                   xml:lang="en">linear grey black gradient highlight dark slate gray 3840x2160 #000000 #2f4f4f 345째 50%</rdf:li>
              </rdf:Alt>
            </dc:title>
          </rdf:Description>
          <rdf:Description
             rdf:about="">
            <cc:license
               rdf:resource="http://creativecommons.org/licenses/by-nc-nd/4.0/" />
          </rdf:Description>
          <rdf:Description
             rdf:about="">
            <cc:attributionName>xmple.com</cc:attributionName>
          </rdf:Description>
          <rdf:Description
             rdf:about="">
            <cc:morePermissions
               rdf:resource="http://www.xmple.com" />
          </rdf:Description>
          <cc:Work
             rdf:about="">
            <dc:format>image/svg+xml</dc:format>
            <dc:type
               rdf:resource="http://purl.org/dc/dcmitype/StillImage" />
            <dc:title>linear grey black gradient highlight dark slate gray 3840x2160 #000000 #2f4f4f 345째 50%</dc:title>
          </cc:Work>
        </rdf:RDF>
      </metadata>
    </x:xmpmeta>
<?xpacket end="r"?>  </metadata>
  <title
     id="title4">linear grey black gradient highlight dark slate gray 3840x2160 #000000 #2f4f4f 345째 50%</title>
  <desc
     id="desc6">linear grey black gradient highlight dark slate gray 3840x2160 #000000 #2f4f4f 345째 50%</desc>
  <style
     type="text/css"
     id="style8"><![CDATA[.x{font:20px verdana;fill:#fff;stroke:#555;stroke-width:20px;opacity:0.35;}.o{stroke:none;opacity:0.01;}]]></style>
  <defs
     id="defs17">
    <linearGradient
       id="p1"
       x1="2880"
       y1="2125.95"
       x2="0"
       y2="754.05005"
       gradientTransform="matrix(2.6666666,0,0,1.5,1.1640625e-4,2.2265625e-5)"
       gradientUnits="userSpaceOnUse">
      <stop
         offset="0%"
         style="stop-color:#000000;stop-opacity:1"
         id="stop10" />
      <stop
         offset="50%"
         style="stop-color:#2f4f4f;stop-opacity:1"
         id="stop12" />
      <stop
         offset="100%"
         style="stop-color:#000000;stop-opacity:1"
         id="stop14" />
    </linearGradient>
  </defs>
  <rect
     width="7680"
     height="4320"
     x="0"
     y="0"
     id="rect21"
     style="opacity:0.98000004;fill:#999999;stroke-width:2;fill-opacity:1" />
  <polygon
     transform="matrix(2,0,0,2,1210.035,541.50279)"
     style="fill:#3c3a6e"
     points=""
     id="polygon2" />
  <polygon
     transform="matrix(2,0,0,2,1210.035,541.50279)"
     style="fill:#3c3a6e"
     points=""
     id="polygon4" />
  <path
     inkscape:connector-curvature="0"
     style="fill:#3c3a6e;stroke-width:2"
     d="m 1386.753,2098.7428 c -8.85,7.536 -20.782,14.114 -21.56,26.33 5.248,7.772 11.758,14.648 17.78,21.89 1.708,3.092 3.418,6.266 5.126,9.44 l 1.384,-1.018 c 4.004,10.714 8.234,21.358 12.694,31.91 l 20.304,-62.568 z"
     id="path6" />
  <path
     inkscape:connector-curvature="0"
     style="fill:#3c3a6e;stroke-width:2"
     d="M 3659.835,2038.1828 V 867.70279 c -76.54,-0.678 -153.058,-1.012 -229.6,-2.392 -13.182,0.122 -26.528,-1.952 -39.548,0.122 -40.936,-3.74 -82.138,-3.172 -123.128,-6.224 l 8.556,26.316 h 70.924 l -57.386,41.608 22.016,67.448 -57.448,-41.78 -57.32,41.78 21.878,-67.416 -57.432,-41.642 h 70.924 l 9.33,-28.696 c -5.594,-0.318 -11.196,-0.384 -16.796,0.058 -107.008,-5.696 -213.82,-14.688 -320.5,-24.778 -7.772,-0.814 -15.542,-1.586 -23.314,-2.318 -7.648,-0.732 -15.294,-1.49 -22.938,-2.256 l 18.856,57.992 h 70.924 l -57.386,41.608 22.016,67.448 -57.448,-41.78 -57.32,41.78 21.878,-67.416 -57.432,-41.642 h 70.924 l 19.048,-58.584 c -26.444,-2.672 -52.868,-5.52 -79.268,-8.504 -21.53,-2.46 -43,-5.296 -64.424,-8.398 l 4.35,13.404 -22.08,-16.046 c -19.234,-2.926 -38.432,-6.072 -57.598,-9.396 l -35.088,25.442 9.772,-29.934 c -96.064,-17.418 -191.468,-38.752 -287.08,-58.512 l -29.006,21.03 21.878,67.416 -57.32,-41.652 -57.448,41.652 22.016,-67.45 -57.386,-41.608 h 54.394 c -8.56,-3.08 -17.84,-4.138 -26.688,-6.13 -114.332,-23.396 -228.54,-47.522 -342.58,-72.18 -2.522,0.082 -7.608,0.286 -10.132,0.366 l 0.896,-2.482 c -34.746,-7.854 -69.576,-15.584 -104.118,-24.372 -21.728,-5.534 -41.786,-15.786 -62.088,-25.022 -0.366,12.816 1.668,26.202 -2.726,38.53 -7.08,4.19 -15.054,6.55 -22.662,9.602 0.326,12.246 3.824,24.168 3.988,36.334 -8.87,17.006 -33.282,19.936 -49.72,13.426 -27.464,-13.914 -48.784,-36.944 -70.674,-58.102 -6.876,7.608 -5.208,18.594 -9.276,27.504 -3.744,8.706 -7.528,17.414 -10.498,26.446 4.15,7.852 10.05,14.484 17.252,19.692 0.958,5.454 1.962,10.914 2.922,16.384 h 19.008 l -16.99,12.32 c 1.184,7.878 2.116,15.784 2.466,23.744 -0.122,30.962 -17.048,58.346 -20.71,88.74 -8.504,32.224 1.018,67.338 -14.322,98.014 -7.242,14.566 5.452,30.15 -1.384,44.716 -4.72,14.526 -10.132,28.76601 -15.42,43.04801 -2.9,7.264 -5.434,14.65 -7.646,22.14 l 3.042,9.374 h 70.964 l -57.432,41.768 21.878,67.288 -57.292,-41.632 -13.21,9.598 c -14.336,32.24 -36.02,61.082 -47.662,94.574 -17.658,16.682 -41.582,30.23 -48.336,55.294 -5.126,13.182 5.778,25.592 4.476,38.816 -4.476,8.016 -14.078,11.636 -20.222,18.35 1.872,13.304 2.686,26.934 6.184,39.996 10.782,25.632 10.822,54.44 6.47,81.536 -1.83,10.904 -15.218,14.526 -18.756,24.698 -4.882,15.38 -2.848,31.9 -6.184,47.562 -8.748,12.614 -23.274,19.734 -32.388,32.062 -5.614,10.62 -5.818,22.988 -8.218,34.544 19.53,21.036 26.488,49.882 31.37,77.306 2.278,15.542 -21.036,20.67 -19,36.294 -0.814,16.804 6.184,34.502 -1.018,50.574 -1.668,5.818 -7.406,13.346 -1.18,18.472 23.152,24.534 34.584,56.718 49.19,86.502 -4.556,8.83 -8.788,17.822 -12.124,27.178 10.62,9.724 18.798,22.052 30.84,30.272 4.964,-9.358 4.15,-19.978 5.29,-30.108 6.794,-6.104 15.624,-1.14 22.052,2.808 2.686,17.454 0.854,34.992 -5.452,51.51 6.672,3.418 13.264,6.958 19.774,10.7 -5.208,7.974 -10.7,15.828 -16.398,23.476 -10.212,-7.894 -20.018,-16.356 -28.236,-26.324 0.896,22.296 -0.57,44.716 1.546,66.93 10.986,13.834 26.812,23.598 40.24,35.114 2.33,7.262 2.202,14.522 0.052,21.306 h 39.018 l 21.88,-67.424 21.88,67.424 h 70.966 l -57.448,41.78 21.894,67.462 -57.292,-41.76 -54.506,39.728 c 13.592,31.802 29.396,62.694 48.098,91.748 h 2208.4 v -243.72 z m -2166.6,-255.66 21.912,67.392 -57.292,-41.632 -57.292,41.632 21.912,-67.392 -57.466,-41.666 h 70.966 l 21.88,-67.424 21.88,67.424 h 70.966 z m 0.034,-342.12 21.878,67.416 -57.292,-41.76 -57.292,41.76 21.878,-67.416 -57.432,-41.64 h 70.924 l 21.922,-67.424 21.922,67.424 h 70.924 z m 221.56,580.64 -57.384,-41.606 -57.384,41.606 21.89,-67.45 -57.258,-41.608 h 70.74 l 21.922,-67.424 22.05,67.424 h 70.794 l -57.258,41.608 z m -21.904,-409.58 21.904,67.494 -57.384,-41.734 -57.384,41.734 21.904,-67.494 -57.274,-41.746 h 70.78 l 21.88,-67.424 22.008,67.424 h 70.84 z m 0.02,-342.24 21.888,67.45 -57.384,-41.606 -57.384,41.606 21.89,-67.45 -57.258,-41.608 h 70.78 l 21.88,-67.424 22.008,67.424 h 70.838 z m 0,-342.10001 21.888,67.448 -57.384,-41.734 -57.384,41.734 21.89,-67.448 -57.258,-41.608 h 70.74 l 21.922,-67.424 22.05,67.424 h 70.794 z m 221.4,1265.04001 -57.292,-41.76 -57.292,41.76 21.894,-67.462 -57.448,-41.78 h 70.966 l 21.88,-67.424 21.88,67.424 h 70.964 l -57.448,41.78 z m -21.91,-409.66 21.912,67.392 -57.292,-41.632 -57.292,41.632 21.912,-67.392 -57.466,-41.666 h 70.966 l 21.88,-67.424 21.88,67.424 h 70.964 z m 0.032,-342.12 21.878,67.416 -57.292,-41.76 -57.292,41.76 21.878,-67.416 -57.432,-41.642 h 70.924 l 21.922,-67.424 21.922,67.424 h 70.924 z m 0,-342.16 21.878,67.288 -57.292,-41.632 -57.292,41.632 21.878,-67.288 -57.432,-41.768 h 70.964 l 21.882,-67.42401 21.88,67.42401 h 70.964 z m 0,-342.22001 21.878,67.416 -57.292,-41.632 -57.292,41.632 21.878,-67.416 -57.432,-41.642 h 70.966 l 21.88,-67.424 21.88,67.424 h 70.964 z m 221.58,1265.02001 -57.384,-41.606 -57.384,41.606 21.89,-67.45 -57.26,-41.608 h 70.74 l 21.922,-67.424 21.922,67.424 h 70.924 l -57.26,41.608 z m -21.904,-409.58 21.904,67.494 -57.384,-41.734 -57.384,41.734 21.904,-67.494 -57.274,-41.746 h 70.78 l 21.88,-67.424 21.88,67.424 h 70.966 z m 0.02,-342.24 21.89,67.45 -57.384,-41.606 -57.384,41.606 21.888,-67.45 -57.258,-41.608 h 70.78 l 21.88,-67.424 21.88,67.424 h 70.966 z m 0,-342.10001 21.89,67.448 -57.384,-41.734 -57.384,41.734 21.888,-67.448 -57.258,-41.608 h 70.74 l 21.922,-67.424 21.922,67.424 h 70.924 z m 221.4,1265.04001 -57.32,-41.78 -57.448,41.78 22.032,-67.494 -57.402,-41.746 h 70.964 l 21.88,-67.424 21.88,67.424 h 70.966 l -57.448,41.78 z m -21.912,-409.66 21.912,67.392 -57.32,-41.652 -57.448,41.652 22.05,-67.424 -57.42,-41.632 h 70.964 l 21.88,-67.424 21.88,67.424 h 70.966 z m 0.034,-342.12 21.878,67.416 -57.32,-41.78 -57.448,41.78 22.016,-67.45 -57.386,-41.608 h 70.924 l 21.922,-67.424 21.922,67.424 h 70.924 z m 0,-342.16 21.878,67.288 -57.32,-41.652 -57.448,41.652 22.016,-67.322 -57.386,-41.736 h 70.964 l 21.882,-67.42401 21.88,67.42401 h 70.966 z m 221.56,922.8 -57.384,-41.606 -57.384,41.606 21.89,-67.45 -57.26,-41.608 h 70.74 l 21.922,-67.424 21.922,67.424 h 70.924 l -57.284,41.534 z m -21.928,-409.66 21.928,67.57 -57.384,-41.734 -57.384,41.734 21.904,-67.494 -57.274,-41.746 h 70.78 l 21.88,-67.424 21.88,67.424 h 70.964 z m 0.02,-342.24 21.914,67.524 -57.384,-41.606 -57.384,41.606 21.89,-67.45 -57.26,-41.608 h 70.78 l 21.88,-67.424 21.88,67.424 h 70.964 z m 0,-342.10001 21.914,67.524 -57.384,-41.734 -57.384,41.734 21.89,-67.448 -57.26,-41.608 h 70.74 l 21.922,-67.424 21.922,67.424 h 70.924 z m 221.42,1265.12001 -57.32,-41.78 -57.448,41.78 22.032,-67.494 -57.402,-41.746 h 70.966 l 21.88,-67.424 21.882,67.424 h 70.964 l -57.448,41.78 z m -21.912,-409.66 21.912,67.392 -57.32,-41.652 -57.448,41.652 22.05,-67.424 -57.42,-41.632 h 70.966 l 21.88,-67.424 21.882,67.424 h 70.964 z m 0.034,-342.12 21.878,67.416 -57.32,-41.78 -57.448,41.78 22.016,-67.448 -57.386,-41.608 h 70.924 l 21.922,-67.424 21.922,67.424 h 70.924 z m 0,-342.16 21.878,67.288 -57.32,-41.652 -57.448,41.652 22.016,-67.322 -57.386,-41.736 h 70.964 l 21.88,-67.42401 21.882,67.42401 h 70.964 z m 221.58,922.8 -57.448,-41.652 -57.32,41.652 21.878,-67.416 -57.432,-41.642 h 70.924 l 21.922,-67.424 21.922,67.424 h 70.924 l -57.386,41.608 z m -22.032,-409.58 22.032,67.494 -57.448,-41.78 -57.32,41.78 21.894,-67.462 -57.448,-41.78 h 70.966 l 21.88,-67.424 21.88,67.424 h 70.966 z m 0.02,-342.24 22.016,67.45 -57.448,-41.652 -57.32,41.652 21.878,-67.416 -57.432,-41.642 h 70.966 l 21.88,-67.424 21.88,67.424 h 70.966 z m 221.52,922.96 -57.384,-41.734 -57.384,41.734 21.928,-67.57 -57.298,-41.672 h 70.966 l 21.88,-67.424 21.88,67.424 h 70.782 l -57.274,41.748 z m -21.924,-409.7 21.922,67.424 -57.384,-41.606 -57.384,41.606 21.946,-67.5 -57.316,-41.558 h 70.966 l 21.88,-67.424 21.88,67.424 h 70.782 z m 0.034,-342.12 21.888,67.45 -57.384,-41.734 -57.384,41.734 21.914,-67.524 -57.284,-41.534 h 70.924 l 21.922,-67.424 21.922,67.424 h 70.74 z m 0,-342.16 21.888,67.322 -57.384,-41.606 -57.384,41.606 21.914,-67.396 -57.284,-41.66 h 70.966 l 21.88,-67.42401 21.88,67.42401 h 70.78 z m 221.58,922.84 -57.448,-41.652 -57.32,41.652 21.878,-67.416 -57.432,-41.642 h 70.924 l 21.922,-67.424 21.922,67.424 h 70.924 l -57.386,41.608 z m -22.032,-409.58 22.032,67.494 -57.448,-41.78 -57.32,41.78 21.894,-67.462 -57.448,-41.78 h 70.966 l 21.88,-67.424 21.88,67.424 h 70.964 z m 0.02,-342.24 22.016,67.45 -57.448,-41.652 -57.32,41.652 21.878,-67.416 -57.432,-41.642 h 70.966 l 21.88,-67.424 21.88,67.424 h 70.964 z m 221.52,922.96 -57.384,-41.734 -57.384,41.734 21.904,-67.494 -57.274,-41.746 h 70.966 l 21.88,-67.424 21.88,67.424 h 70.78 l -57.274,41.746 z m -21.922,-409.7 21.922,67.424 -57.384,-41.606 -57.384,41.606 21.922,-67.424 -57.292,-41.632 h 70.966 l 21.88,-67.424 21.88,67.424 h 70.78 z m 0.032,-342.12 21.89,67.45 -57.384,-41.734 -57.384,41.734 21.888,-67.45 -57.258,-41.608 h 70.924 l 21.922,-67.424 21.922,67.424 h 70.74 z m 0,-342.16 21.89,67.322 -57.384,-41.606 -57.384,41.606 21.888,-67.322 -57.258,-41.736 h 70.964 l 21.882,-67.42401 21.882,67.42401 h 70.78 z"
     id="path8" />
  <path
     inkscape:connector-curvature="0"
     style="fill:#ffffff;stroke-width:2"
     d="m 1531.715,714.39879 c 0.718,4.1 1.4,8.206 2.018,12.32 l 16.99,-12.32 z"
     id="path10" />
  <polygon
     transform="matrix(2,0,0,2,1210.035,541.50279)"
     style="fill:#ffffff"
     points="341.23,107.27 369.95,86.448 334.46,86.448 323.52,52.736 312.58,86.448 277.1,86.448 305.82,107.27 294.88,140.98 323.52,120.16 352.17,140.98 "
     id="polygon12" />
  <path
     inkscape:connector-curvature="0"
     style="fill:#ffffff;stroke-width:2"
     d="m 2220.815,756.00279 -22.016,67.45 57.448,-41.652 57.32,41.652 -21.878,-67.416 29.006,-21.03 c -6.932,-1.432 -13.866,-2.868 -20.8,-4.282 -25.266,-4.678 -50.086,-12.246 -75.882,-13.67 -2.002,-1.054 -4.08,-1.9 -6.188,-2.658 h -54.394 z"
     id="path14" />
  <path
     inkscape:connector-curvature="0"
     style="fill:#ffffff;stroke-width:2"
     d="m 2633.095,798.02279 c -8.444,-1.464 -16.884,-2.964 -25.318,-4.494 l -9.772,29.934 z"
     id="path16" />
  <path
     inkscape:connector-curvature="0"
     style="fill:#ffffff;stroke-width:2"
     d="m 2708.435,810.06279 c -5.914,-0.856 -11.824,-1.742 -17.73,-2.642 l 22.08,16.046 z"
     id="path18" />
  <polygon
     transform="matrix(2,0,0,2,1210.035,541.50279)"
     style="fill:#ffffff"
     points="241.47,192.82 270.1,172.02 234.7,172.02 223.68,138.31 212.72,172.02 177.35,172.02 205.98,192.82 195.03,226.55 223.72,205.68 252.42,226.55 "
     id="polygon20" />
  <polygon
     transform="matrix(2,0,0,2,1210.035,541.50279)"
     style="fill:#ffffff"
     points="441.07,192.82 469.7,172.02 434.24,172.02 423.28,138.31 412.32,172.02 376.95,172.02 405.58,192.82 394.63,226.55 423.32,205.68 452.02,226.55 "
     id="polygon22" />
  <polygon
     transform="matrix(2,0,0,2,1210.035,541.50279)"
     style="fill:#ffffff"
     points="640.66,192.78 669.3,172.02 633.84,172.02 622.88,138.31 611.92,172.02 576.55,172.02 605.18,192.82 594.23,226.55 622.92,205.68 651.62,226.55 "
     id="polygon24" />
  <path
     inkscape:connector-curvature="0"
     style="fill:#ffffff;stroke-width:2"
     d="m 2762.155,885.54279 57.432,41.642 -21.878,67.416 57.32,-41.78 57.448,41.78 -22.016,-67.448 57.386,-41.608 h -70.924 l -18.856,-57.992 c -1.98,-0.198 -3.962,-0.392 -5.942,-0.592 l -19.048,58.584 h -70.922 z"
     id="path26" />
  <path
     inkscape:connector-curvature="0"
     style="fill:#ffffff;stroke-width:2"
     d="m 3161.355,885.54279 57.432,41.642 -21.878,67.416 57.32,-41.78 57.448,41.78 -22.016,-67.448 57.386,-41.608 h -70.924 l -8.556,-26.316 c -1.38,-0.102 -2.762,-0.176 -4.142,-0.288 -7.25,-0.828 -14.528,-1.68 -21.816,-2.092 l -9.33,28.696 h -70.924 z"
     id="path28" />
  <path
     inkscape:connector-curvature="0"
     style="fill:#ffffff;stroke-width:2"
     d="m 1515.175,1165.5428 -21.878,-67.288 57.432,-41.768 h -70.964 l -3.042,-9.374 c -1.046,3.544 -2.044,7.102 -2.932,10.696 -2.888,3.052 -4.924,6.672 -6.062,10.822 -4.19,12.368 -8.586,24.656 -13.142,36.904 -2.478,9.708 -5.908,18.974 -9.912,27.976 l 13.21,-9.598 z"
     id="path30" />
  <polygon
     transform="matrix(2,0,0,2,1210.035,541.50279)"
     style="fill:#ffffff"
     points="341.23,278.38 369.95,257.5 334.46,257.5 323.52,223.78 312.58,257.5 277.1,257.5 305.82,278.38 294.88,312.02 323.52,291.21 352.17,312.02 "
     id="polygon32" />
  <polygon
     transform="matrix(2,0,0,2,1210.035,541.50279)"
     style="fill:#ffffff"
     points="540.83,278.38 569.55,257.5 534.06,257.5 523.12,223.78 512.18,257.5 476.7,257.5 505.39,278.36 494.39,312.02 523.11,291.2 551.77,312.02 "
     id="polygon34" />
  <polygon
     transform="matrix(2,0,0,2,1210.035,541.50279)"
     style="fill:#ffffff"
     points="740.43,278.38 769.15,257.5 733.66,257.5 722.72,223.78 711.78,257.5 676.3,257.5 705,278.36 693.99,312.02 722.71,291.2 751.37,312.02 "
     id="polygon36" />
  <polygon
     transform="matrix(2,0,0,2,1210.035,541.50279)"
     style="fill:#ffffff"
     points="940.03,278.36 968.66,257.5 933.26,257.5 922.32,223.78 911.38,257.5 875.9,257.5 904.54,278.32 893.59,312.02 922.28,291.22 950.97,312.02 "
     id="polygon38" />
  <polygon
     transform="matrix(2,0,0,2,1210.035,541.50279)"
     style="fill:#ffffff"
     points="1139.6,278.36 1168.3,257.5 1132.9,257.5 1121.9,223.78 1111,257.5 1075.5,257.5 1104.1,278.36 1093.2,312.02 1121.9,291.22 1150.6,312.02 "
     id="polygon40" />
  <polygon
     transform="matrix(2,0,0,2,1210.035,541.50279)"
     style="fill:#ffffff"
     points="241.47,363.87 270.1,343.06 234.68,343.06 223.68,309.35 212.74,343.06 177.35,343.06 205.98,363.87 195.03,397.59 223.72,376.79 252.42,397.59 "
     id="polygon42" />
  <polygon
     transform="matrix(2,0,0,2,1210.035,541.50279)"
     style="fill:#ffffff"
     points="441.07,363.87 469.7,343.06 434.22,343.06 423.28,309.35 412.34,343.06 376.95,343.06 405.58,363.87 394.63,397.59 423.32,376.79 452.02,397.59 "
     id="polygon44" />
  <polygon
     transform="matrix(2,0,0,2,1210.035,541.50279)"
     style="fill:#ffffff"
     points="640.66,363.83 669.3,343.06 633.82,343.06 622.88,309.35 611.94,343.06 576.55,343.06 605.18,363.87 594.23,397.59 622.92,376.79 651.62,397.59 "
     id="polygon46" />
  <polygon
     transform="matrix(2,0,0,2,1210.035,541.50279)"
     style="fill:#ffffff"
     points="840.21,363.87 868.9,343.06 833.42,343.06 822.48,309.35 811.54,343.06 776.06,343.06 804.77,363.88 793.83,397.59 822.49,376.77 851.22,397.59 "
     id="polygon48" />
  <polygon
     transform="matrix(2,0,0,2,1210.035,541.50279)"
     style="fill:#ffffff"
     points="1039.8,363.87 1068.5,343.06 1033,343.06 1022.1,309.35 1011.1,343.06 975.66,343.06 1004.4,363.88 993.43,397.59 1022.1,376.77 1050.8,397.59 "
     id="polygon50" />
  <polygon
     transform="matrix(2,0,0,2,1210.035,541.50279)"
     style="fill:#ffffff"
     points="141.63,449.45 170.35,428.63 134.88,428.63 123.92,394.92 112.96,428.63 77.5,428.63 106.22,449.45 95.277,483.16 123.92,462.28 152.57,483.16 "
     id="polygon52" />
  <polygon
     transform="matrix(2,0,0,2,1210.035,541.50279)"
     style="fill:#ffffff"
     points="341.23,449.45 369.95,428.63 334.48,428.63 323.52,394.92 312.56,428.63 277.1,428.63 305.82,449.45 294.88,483.16 323.52,462.28 352.17,483.16 "
     id="polygon54" />
  <polygon
     transform="matrix(2,0,0,2,1210.035,541.50279)"
     style="fill:#ffffff"
     points="540.83,449.45 569.55,428.63 534.08,428.63 523.12,394.92 512.16,428.63 476.7,428.63 505.39,449.44 494.39,483.16 523.11,462.27 551.77,483.16 "
     id="polygon56" />
  <polygon
     transform="matrix(2,0,0,2,1210.035,541.50279)"
     style="fill:#ffffff"
     points="740.43,449.45 769.15,428.63 733.69,428.63 722.72,394.92 711.76,428.63 676.3,428.63 705,449.44 693.99,483.16 722.71,462.27 751.37,483.16 "
     id="polygon58" />
  <polygon
     transform="matrix(2,0,0,2,1210.035,541.50279)"
     style="fill:#ffffff"
     points="940.03,449.44 968.66,428.63 933.29,428.63 922.32,394.92 911.36,428.63 875.9,428.63 904.54,449.4 893.59,483.16 922.28,462.3 950.97,483.16 "
     id="polygon60" />
  <polygon
     transform="matrix(2,0,0,2,1210.035,541.50279)"
     style="fill:#ffffff"
     points="1139.6,449.44 1168.3,428.63 1132.9,428.63 1121.9,394.92 1111,428.63 1075.5,428.63 1104.1,449.44 1093.2,483.16 1121.9,462.3 1150.6,483.16 "
     id="polygon62" />
  <polygon
     transform="matrix(2,0,0,2,1210.035,541.50279)"
     style="fill:#ffffff"
     points="241.46,534.98 270.1,514.11 234.68,514.11 223.68,480.4 212.74,514.11 177.35,514.11 205.98,534.98 195.03,568.73 223.72,547.86 252.42,568.73 "
     id="polygon64" />
  <polygon
     transform="matrix(2,0,0,2,1210.035,541.50279)"
     style="fill:#ffffff"
     points="441.06,534.98 469.7,514.11 434.22,514.11 423.28,480.4 412.34,514.11 376.95,514.11 405.58,534.98 394.63,568.73 423.32,547.86 452.02,568.73 "
     id="polygon66" />
  <polygon
     transform="matrix(2,0,0,2,1210.035,541.50279)"
     style="fill:#ffffff"
     points="640.65,534.95 669.3,514.11 633.82,514.11 622.88,480.4 611.94,514.11 576.55,514.11 605.18,534.98 594.23,568.73 622.92,547.86 651.62,568.73 "
     id="polygon68" />
  <polygon
     transform="matrix(2,0,0,2,1210.035,541.50279)"
     style="fill:#ffffff"
     points="840.2,534.98 868.9,514.11 833.42,514.11 822.48,480.4 811.54,514.11 776.06,514.11 804.78,535 793.83,568.73 822.49,547.84 851.22,568.73 "
     id="polygon70" />
  <polygon
     transform="matrix(2,0,0,2,1210.035,541.50279)"
     style="fill:#ffffff"
     points="1039.8,534.98 1068.5,514.11 1033,514.11 1022.1,480.4 1011.1,514.11 975.66,514.11 1004.4,535 993.43,568.73 1022.1,547.84 1050.8,568.73 "
     id="polygon72" />
  <polygon
     transform="matrix(2,0,0,2,1210.035,541.50279)"
     style="fill:#ffffff"
     points="141.61,620.51 170.35,599.68 134.86,599.68 123.92,565.97 112.98,599.68 77.5,599.68 106.23,620.51 95.277,654.21 123.92,633.39 152.57,654.21 "
     id="polygon74" />
  <polygon
     transform="matrix(2,0,0,2,1210.035,541.50279)"
     style="fill:#ffffff"
     points="341.21,620.51 369.95,599.68 334.46,599.68 323.52,565.97 312.58,599.68 277.1,599.68 305.83,620.51 294.88,654.21 323.52,633.39 352.17,654.21 "
     id="polygon76" />
  <polygon
     transform="matrix(2,0,0,2,1210.035,541.50279)"
     style="fill:#ffffff"
     points="540.81,620.51 569.55,599.68 534.06,599.68 523.12,565.97 512.18,599.68 476.7,599.68 505.41,620.5 494.39,654.21 523.11,633.38 551.77,654.21 "
     id="polygon78" />
  <polygon
     transform="matrix(2,0,0,2,1210.035,541.50279)"
     style="fill:#ffffff"
     points="740.41,620.51 769.15,599.68 733.66,599.68 722.72,565.97 711.78,599.68 676.3,599.68 705.01,620.5 693.99,654.21 722.71,633.38 751.37,654.21 "
     id="polygon80" />
  <polygon
     transform="matrix(2,0,0,2,1210.035,541.50279)"
     style="fill:#ffffff"
     points="940.01,620.5 968.66,599.68 933.26,599.68 922.32,565.97 911.38,599.68 875.9,599.68 904.56,620.46 893.59,654.21 922.28,633.4 950.97,654.21 "
     id="polygon82" />
  <polygon
     transform="matrix(2,0,0,2,1210.035,541.50279)"
     style="fill:#ffffff"
     points="1139.6,620.5 1168.3,599.68 1132.9,599.68 1121.9,565.97 1111,599.68 1075.5,599.68 1104.1,620.5 1093.2,654.21 1121.9,633.4 1150.6,654.21 "
     id="polygon84" />
  <polygon
     transform="matrix(2,0,0,2,1210.035,541.50279)"
     style="fill:#ffffff"
     points="252.42,739.78 241.47,706.05 270.1,685.25 234.7,685.25 223.68,651.54 212.72,685.25 177.35,685.25 205.98,706.05 195.03,739.78 223.72,718.98 "
     id="polygon86" />
  <path
     inkscape:connector-curvature="0"
     style="fill:#ffffff;stroke-width:2"
     d="m 2078.515,1912.0028 -21.922,-67.424 -21.922,67.424 h -70.74 l 57.26,41.608 -21.89,67.45 57.384,-41.606 57.384,41.606 -21.89,-67.45 57.26,-41.608 z m -21.83,30.12 z"
     id="path88" />
  <polygon
     transform="matrix(2,0,0,2,1210.035,541.50279)"
     style="fill:#ffffff"
     points="651.62,739.78 640.66,706.02 669.3,685.25 633.84,685.25 622.88,651.54 611.92,685.25 576.55,685.25 605.18,706.05 594.23,739.78 622.92,718.98 "
     id="polygon90" />
  <path
     inkscape:connector-curvature="0"
     style="fill:#ffffff;stroke-width:2"
     d="m 2876.915,1912.0028 -21.922,-67.424 -21.922,67.424 h -70.924 l 57.432,41.642 -21.878,67.416 57.32,-41.652 57.448,41.652 -22.016,-67.448 57.386,-41.608 h -70.924 z m -21.922,30.12 z"
     id="path92" />
  <polygon
     transform="matrix(2,0,0,2,1210.035,541.50279)"
     style="fill:#ffffff"
     points="1050.8,739.78 1039.8,706.05 1068.5,685.25 1033,685.25 1022.1,651.54 1011.1,685.25 975.66,685.25 1004.4,706.07 993.43,739.78 1022.1,718.95 "
     id="polygon94" />
  <path
     inkscape:connector-curvature="0"
     style="fill:#ffffff;stroke-width:2"
     d="m 1515.175,2192.2028 -21.894,-67.462 57.448,-41.78 h -70.966 l -21.88,-67.424 -21.88,67.424 h -39.018 c -1.378,4.352 -3.58,8.51 -6.522,12.342 -1.134,1.188 -2.388,2.33 -3.706,3.454 l 35.728,25.984 -20.306,62.568 c 0.402,0.952 0.796,1.908 1.202,2.86 l 54.502,-39.726 z"
     id="path96" />
  <polygon
     transform="matrix(2,0,0,2,1210.035,541.50279)"
     style="fill:#ffffff"
     points="352.17,825.35 341.22,791.62 369.95,770.73 334.46,770.73 323.52,737.02 312.58,770.73 277.1,770.73 305.82,791.62 294.88,825.35 323.52,804.47 "
     id="polygon98" />
  <polygon
     transform="matrix(2,0,0,2,1210.035,541.50279)"
     style="fill:#ffffff"
     points="551.77,825.35 540.82,791.62 569.55,770.73 534.06,770.73 523.12,737.02 512.18,770.73 476.7,770.73 505.4,791.6 494.39,825.35 523.11,804.46 "
     id="polygon100" />
  <polygon
     transform="matrix(2,0,0,2,1210.035,541.50279)"
     style="fill:#ffffff"
     points="751.37,825.35 740.42,791.62 769.15,770.73 733.66,770.73 722.72,737.02 711.78,770.73 676.3,770.73 705,791.6 693.99,825.35 722.71,804.46 "
     id="polygon102" />
  <polygon
     transform="matrix(2,0,0,2,1210.035,541.50279)"
     style="fill:#ffffff"
     points="950.97,825.35 940.02,791.6 968.66,770.73 933.26,770.73 922.32,737.02 911.38,770.73 875.9,770.73 904.55,791.56 893.59,825.35 922.28,804.48 "
     id="polygon104" />
  <polygon
     transform="matrix(2,0,0,2,1210.035,541.50279)"
     style="fill:#ffffff"
     points="1150.6,825.35 1139.6,791.6 1168.3,770.73 1132.9,770.73 1121.9,737.02 1111,770.73 1075.5,770.73 1104.1,791.6 1093.2,825.35 1121.9,804.48 "
     id="polygon106" />
  <path
     inkscape:connector-curvature="0"
     style="fill:#ffffff;stroke-width:2"
     d="m 3659.835,1794.4628 v 243.72 h 2139.2 c -5.072,-14.688 -21.002,-25.866 -32.326,-35.74 -15.624,-11.514 -19.326,-31.41 -21.28,-49.476 3.052,-0.814 9.236,-2.442 12.288,-3.296 -7.446,-34.218 -14.73,-71.488 -1.18,-105.258 5.208,-15.176 20.262,-23.152 33.608,-30.028 2.564,25.836 -18.758,48.256 -10.416,74.132 0.854,8.666 11.474,6.226 17.658,8.016 0.732,20.506 -3.5,41.42 0.976,61.64 7.852,6.226 13.59,-5.696 20.71,-4.8 8.462,19.326 18.268,38.042 31.41,54.642 7.346,8.526 6.83,19.476 6.012,30.166 h 18.04 c 2.82,-18.16 4.078,-36.51 5,-54.864 0.61,-18.756 17.822,-31.288 20.914,-49.15 -1.71,-8.178 -5.29,-15.746 -8.504,-23.314 -7.16,-2.116 -15.054,-3.824 -18.878,-10.904 -18.92,-27.586 -38.532,-54.846 -54.154,-84.508 7.242,-4.476 14.932,-9.846 24.046,-8.626 5.9,8.422 5.858,19.57 8.26,29.376 12.41,6.266 25.226,11.8 38.084,17.17 0.568,3.54 1.668,10.66 2.236,14.2 5.656,-3.214 12.492,-5.248 16.764,-10.538 5.086,-13.956 1.952,-29.986 9.44,-43.25 3.414,-6.588 7.246,-12.934 11.028,-19.314 h -2268.8 z"
     id="path108" />
  <path
     inkscape:connector-curvature="0"
     style="fill:#ffffff;stroke-width:2"
     d="m 6094.035,868.16279 c -2.156,14.81 -10.172,27.912 -13.67,42.356 -1.914,8.992 9.316,11.596 14.646,16.316 -4.068,15.542 -11.514,29.782 -19.976,43.332 -5.046,6.794 -3.174,15.258 -2.766,23.07 -13.834,16.47801 -20.67,38.41001 -38.856,51.14401 -5.266,4.886 -8.336,12.41 -12.272,18.922 h 236.64 c 4.734,-5.214 11.668,-8.452 17.23,-12.734 -0.412,4.254 -0.812,8.494 -1.19,12.734 h 27.634 c 0.496,-1.326 0.998,-2.646 1.468,-3.988 6.184,-0.244 12.492,0.082 18.756,-0.814 4.516,-4.434 8.138,-9.602 12.288,-14.444 h 0.53 c 17.17,-26.812 41.704,-47.44001 65.466,-68.15201 -8.79,-8.058 -16.926,-16.804 -25.796,-24.698 -7.446,-7.486 -21.442,-3.866 -26.896,-13.67 -4.638,-6.754 1.058,-14.85 1.832,-21.93 -12.126,-2.848 -24.086,-6.224 -35.764,-10.456 0.488,-19.978 -16.804,-33.852 -20.14,-52.852 -2.256,-10.964 -4.716,-21.876 -7.462,-32.716 h -188.98 c -0.304,16.232 -0.402,32.476 -2.726,48.58 z"
     id="path110" />
  <path
     inkscape:connector-curvature="0"
     style="fill:#ffffff;stroke-width:2"
     d="m 4559.435,1043.6228 c 12.856,-5.656 20.14,-19.368 22.338,-32.794 -16.764,7.486 -31.288,19.082 -42.844,33.282 h -2.4 c -8.634,6.206 -17.068,12.664 -25.434,19.208 h 31.516 c 6.008,-6.168 10.992,-13.342 16.824,-19.696 z"
     id="path112" />
  <path
     inkscape:connector-curvature="0"
     style="fill:#ffffff;stroke-width:2"
     d="m 4277.835,1063.3028 c 7.526,-7.218 15.57,-13.898 24.198,-19.858 31.574,-17.74 59.606,-41.624 92.93,-56.39401 7.568,-2.806 12.206,-9.562 16.844,-15.826 -6.958,-2.156 -13.874,-4.232 -20.792,-6.306 -0.854,-2.442 -2.564,-7.284 -3.418,-9.724 -19.53,-2.196 -38.734,1.912 -57.938,4.76 -5.656,-5.248 -11.352,-10.376 -17.13,-15.462 -6.428,11.148 -11.352,23.64 -20.71,32.712 -7.364,7.12 -19,4.964 -27.22,0.692 -13.224,-6.714 -20.588,-20.262 -31.696,-29.416 -19.124,-9.968 -38.776,11.556 -57.166,0.082 -18.432,-7.568 -25.836,-30.394 -46.016,-34.95 -7.976,-3.214 -14.932,2.604 -21.89,5.452 -12.816,7.854 -27.178,-0.896 -39.956,-4.232 -21.89,-8.584 -47.034,-2.482 -68.028,-13.914 -8.056,-4.19 -17.414,-10.172 -16.804,-20.548 -2.034,-18.146 -0.854,-41.704 -20.262,-50.9 -1.586,13.956 6.184,41.338 -16.072,40.524 -84.02,-0.08 -168.12,-1.424 -252.18,-1.954 -11.54,-0.122 -23.078,-0.232 -34.616,-0.334 v 195.59401 h 617.92 z"
     id="path114" />
  <path
     inkscape:connector-curvature="0"
     style="fill:#ffffff;stroke-width:2"
     d="m 1451.475,2281.9028 c 1.742,2.708 3.508,5.4 5.302,8.074 10.05,24.656 -11.596,46.912 -8.382,71.65 2.442,15.908 14.688,29.782 30.068,34.502 23.68,7.568 47.726,15.624 68.354,29.906 10.376,7.12 9.968,21.402 13.386,32.306 18.676,9.806 38.652,17.008 59.566,20.14 19.734,1.424 24.942,25.266 20.71,41.298 2.038,1.902 4.094,3.788 6.168,5.66 h 4098.8 c -4.088,-7.726 -10.386,-14.326 -15.16,-21.568 9.074,-6.55 19,-12.736 25.104,-22.46 12.002,-17.618 18.146,-40.646 38.45,-51.104 18.594,-16.356 43.658,-3.662 65.424,-7.772 8.992,-1.546 20.63,-5.94 22.256,-16.194 -1.954,-9.766 -6.308,-19.042 -12.206,-26.976 -4.882,-0.406 -9.724,-0.204 -14.486,-0.082 -2.766,-10.05 -5.208,-20.18 -7.526,-30.272 -10.458,-0.406 -20.832,-1.14 -31.044,-3.01 6.144,-11.678 18.188,-18.432 30.516,-21.808 11.596,3.988 21.728,11.23 32.956,16.152 9.642,-16.804 17.334,-34.828 29.05,-50.412 0.794,-2.644 1.588,-5.328 2.34,-8.034 h -4459.6 z"
     id="path116" />
  <path
     inkscape:connector-curvature="0"
     style="fill:#ffffff;stroke-width:2"
     d="m 5119.435,1546.7428 h 1.262 c 2.97,-13.02 10.782,-27.83 2.564,-40.484 -6.346,-12.694 -20.628,-17.414 -31.94,-24.412 0.772,-9.968 0.366,-20.018 -3.418,-29.376 -5.696,-15.054 -6.794,-31.208 -10.62,-46.668 -1.302,-5.37 -4.72,-12.614 -11.392,-10.986 -11.474,1.384 -23.518,3.58 -33.16,10.132 -13.182,10.782 -11.514,28.97 -17.21,43.454 -16.274,7.812 -38.368,0.936 -49.19,-12.938 -6.754,-17.78 4.272,-37.31 21.768,-43.496 2.686,-10.782 3.826,-22.012 7.282,-32.59 4.516,-8.544 12.492,-15.094 15.502,-24.454 1.84,-9.172 1.914,-18.554 1.72,-27.906 h -232.88 c -10.018,11.904 -15.906,27.302 -30.456,34.864 4.314,19.368 6.632,39.67 3.01,59.362 -2.604,9.684 -15.46,18.31 -8.504,28.726 8.87,14.24 5.534,32.834 -6.794,43.902 5.248,5.534 11.312,10.66 14.648,17.74 8.3,20.424 24.738,35.846 35.316,55.01 0,1.372 0.02,2.746 0.02,4.118 h 331.3 c 0.404,-1.348 0.79,-2.692 1.18,-3.998 z"
     id="path118" />
  <path
     inkscape:connector-curvature="0"
     style="fill:#ffffff;stroke-width:2"
     d="m 5671.035,1325.4228 c -0.488,8.34 -7.526,14.484 -11.758,21.238 -9.766,1.912 -21.118,1.506 -28.684,8.87 -6.876,7.364 -9.968,17.252 -15.666,25.388 -16.152,8.83 -35.48,4.68 -52.608,9.684 -8.952,1.954 -17.82,7.324 -27.098,4.434 -15.014,-3.458 -30.964,-5.858 -45.896,-0.692 -27.3,9.886 -55.458,17.374 -81.986,29.294 7.854,18.024 27.14,28.074 33.812,46.668 0.204,10.132 0.57,22.46 -7.976,29.62 -17.088,16.072 -36.536,29.58 -52.608,46.79 -1.06,1.384 -2.192,2.7 -3.3,4.036 h 630.82 c 1.634,-0.63 3.264,-1.274 4.88,-1.962 l 2.562,0.488 -1.668,-2.522 c 14.16,-9.642 26.61,-22.012 42.03,-29.742 15.258,-7.608 34.624,7.528 48.214,-5.004 9.318,-8.096 21.2,-11.676 32.184,-16.884 8.544,-10.58 13.426,-23.598 20.708,-35.032 6.836,0.04 13.712,0.082 20.63,0.04 9.114,-13.508 25.756,-14.81 39.262,-21.524 -19.164,-29.458 -43.698,-54.888 -65.018,-82.676 0.692,-12.45 4.396,-24.86 2.238,-37.352 -0.586,-4.076 -1.86,-7.894 -3.522,-11.552 h -498.4 c 6.136,6.244 13.212,11.606 18.834,18.392 z"
     id="path120" />
  <path
     inkscape:connector-curvature="0"
     style="fill:#ffffff;stroke-width:2"
     d="m 3659.835,1307.0228 v 243.72 h 962.28 c 0.034,-1.324 0.16,-2.678 0.414,-4.078 -1.18,-18.92 -2.034,-38.734 7.812,-55.782 13.02,-19.692 -6.712,-42.314 2.4,-62.902 5.33,-6.918 12.45,-12.166 17.984,-18.878 2.93,-12.816 -9.52,-24.494 -5.492,-37.352 6.342,-21.468 14.802,-42.408 17.774,-64.728 h -1.638 c -3.592,4.116 -6.972,8.372 -9.666,13.138 -8.952,16.518 -23.274,29.662 -38.896,39.792 -5.778,4.19 -13.06,2.196 -19.53,2.156 0.57,-7.242 -0.854,-15.664 4.718,-21.36 8.452,-10.702 18.204,-21.382 24.066,-33.724 h -962.22 z"
     id="path122" />
  <path
     inkscape:connector-curvature="0"
     style="fill:#ffffff;stroke-width:2"
     d="m 4284.235,3257.7028 c 3.228,-0.258 6.446,-0.612 9.662,-1 h -20.164 c 3.474,0.486 6.972,0.84 10.502,1 z"
     id="path124" />
  <path
     inkscape:connector-curvature="0"
     style="fill:#ffffff;stroke-width:2"
     d="m 3085.115,3293.9028 c 10.864,11.962 22.418,25.756 39.466,28.156 18.554,5.412 27.382,-16.764 38.572,-27.424 5.006,-13.218 12.402,-25.324 18.544,-38.026 h -154.502 c 16.598,15.758 37.916,26.562 57.92,37.294 z"
     id="path126" />
  <path
     inkscape:connector-curvature="0"
     style="fill:#ffffff;stroke-width:2"
     d="m 3351.235,3270.3028 c 5.248,8.3 11.392,16.072 17.006,24.25 14.85,17.74 41.5,26.61 46.628,51.184 3.01,11.434 11.392,20.1 18.472,29.214 11.474,14.362 17.006,32.184 25.104,48.458 13.308,28.466 36.52,50.398 53.038,76.838 h 277.46 c 5.876,-2.866 11.474,-6.026 14.608,-12.024 10.66,-19.612 20.71,-40.89 38.206,-55.416 6.998,-0.204 14.038,0.936 21.118,0.366 8.26,-2.644 12.368,-10.946 17.334,-17.374 -11.638,-5.046 -29.54,-11.312 -23.436,-27.668 15.298,-1.302 31.37,-3.744 45.65,3.58 12.166,-2.848 25.022,-5.858 34.422,-14.648 16.52,-14.892 33.2,-29.702 51.632,-42.234 18.432,-13.63 40.768,-22.378 55.498,-40.646 1.586,-3.702 3.174,-7.404 4.678,-11.066 -6.834,-0.57 -13.792,-0.406 -20.466,-1.79 -5.9,-5.412 -7.404,-13.59 -9.764,-20.792 5.676,-1.274 11.338,-2.606 16.982,-4.01 h -690.28 c 1.634,4.768 3.422,9.47 6.114,13.778 z"
     id="path128" />
  <path
     inkscape:connector-curvature="0"
     style="fill:#ffffff;stroke-width:2"
     d="m 4068.835,3281.3028 c 26.516,-4.604 51.482,-15.34 76.816,-24.598 h -88.772 c -1.464,9.722 2.804,20.072 11.956,24.598 z"
     id="path130" />
  <path
     inkscape:connector-curvature="0"
     style="fill:#ffffff;stroke-width:2"
     d="m 4410.635,3259.3028 c 2.448,-0.66 6.796,-1.848 10.136,-2.75 h -15.19 c 1.638,0.984 3.308,1.92 5.054,2.75 z"
     id="path132" />
  <path
     inkscape:connector-curvature="0"
     style="fill:#ffffff;stroke-width:2"
     d="m 5368.435,3294.5028 c -1.466,25.51 -7.324,50.452 -10.458,75.76 9.236,1.79 18.512,3.458 27.79,5.208 -2.604,-5.614 -5.452,-11.148 -6.918,-17.088 3.826,-10.132 13.956,-13.02 23.924,-12.124 3.866,10.294 10.13,20.71 8.748,32.184 -5.9,12.328 -27.666,16.112 -23.518,32.672 9.074,14.648 24.292,24.78 31.452,40.81 5.248,9.114 7.202,21.93 18.35,26.04 12.346,5.524 23.58,13.152 33.38,22.318 h 216.5 c 0.264,-17.468 -0.416,-35.012 0.02,-52.386 1.872,-24.128 -20.222,-38.53 -32.998,-55.742 -24.534,-31.858 -48.294,-64.49 -69.332,-98.748 l -1.18,0.082 c -6.9,-12.136 -16.268,-23.262 -19.908,-36.928 h -197.262 c 2.348,12.292 1.236,25.724 1.408,37.942 z"
     id="path134" />
  <path
     inkscape:connector-curvature="0"
     style="fill:#ffffff;stroke-width:2"
     d="m 4589.035,3276.3028 c 27.26,8.748 54.032,24.372 83.694,17.454 -1.18,-2.442 -3.54,-7.406 -4.72,-9.846 -16.802,-11.954 -35.95,-19.796 -55.046,-27.366 h -52.892 c 8.948,7.67 17.784,15.59 28.964,19.758 z"
     id="path136" />
  <path
     inkscape:connector-curvature="0"
     style="fill:#ffffff;stroke-width:2"
     d="m 4448.235,3294.7028 c 14.118,10.538 38.898,17.17 50.33,-0.162 4.232,-5.452 8.462,-10.986 13.874,-15.338 5.046,0.284 10.01,1.18 14.972,2.686 1.546,4.232 3.092,8.504 4.72,12.858 10.05,0.244 20.14,0.284 30.23,0.326 2.074,-4.924 4.19,-9.806 6.306,-14.648 -7.772,-5.736 -16.316,-10.376 -23.598,-16.682 -1.772,-1.62 -2.552,-4.376 -2.498,-7.104 h -118.528 c 10.436,10.968 19.85,23.286 24.192,38.064 z"
     id="path138" />
  <path
     inkscape:connector-curvature="0"
     style="fill:#ffffff;stroke-width:2"
     d="m 2011.555,2770.7028 c 16.518,9.886 31.858,22.622 49.842,29.58 25.104,21.686 55.254,36.048 83.612,52.812 60.42,33.486 120.638,67.296 182.076,98.87 16.112,10.13 35.356,3.58 53.016,6.306 55.7,6.672 111.402,13.06 167.062,20.1 26.244,2.888 50.656,15.42 77.346,14.932 -0.854,-12.124 -3.5,-24.33 -2.198,-36.496 3.622,-8.708 13.508,-12.084 22.174,-13.182 52.812,-8.138 105.95,4.68 158.884,-0.53 13.182,7.324 17.374,23.842 26.772,35.032 9.578,11.678 19.274,23.33 29.268,34.72 h 2586.8 c -3.576,-12.522 -6.772,-25.116 -8.14,-38.096 2.034,-14.892 8.626,-28.806 10.212,-43.78 4.11,-33.934 12.654,-68.68 33.2,-96.632 7.528,-9.724 8.586,-22.296 9.968,-34.014 3.418,-10.742 10.01,-20.302 20.262,-25.47 2.848,-1.678 5.406,-3.608 7.75,-5.73 h -3510.6 c 0.882,0.534 1.746,1.09 2.666,1.578 z"
     id="path140" />
  <path
     inkscape:connector-curvature="0"
     style="fill:#b22134;stroke-width:2"
     d="m 6257.635,742.08279 c -7.404,-8.91 -12.246,-19.652 -19.814,-28.36 -9.846,-5.126 -21.036,-6.632 -31.614,-9.196 -8.34,9.886 -15.462,22.174 -28.114,27.138 -12.696,5.534 -25.796,9.968 -38.776,14.73 3.296,-6.754 6.51,-13.59 9.236,-20.628 -8.87,-0.57 -17.74,-0.61 -26.528,-0.448 0.692,8.708 7.77,19.896 -1.222,26.446 -12.41,11.148 -22.092,25.146 -22.906,42.356 -0.616,8.472 -0.826,16.968 -0.982,25.468 h 188.98 c -2.156,-8.51 -4.486,-16.976 -7.062,-25.386 -7.16,-17.372 -7.282,-38.164 -21.198,-52.12 z"
     id="path142" />
  <path
     inkscape:connector-curvature="0"
     style="fill:#b22134;stroke-width:2"
     d="m 4663.235,1304.8228 c -0.654,0.728 -1.29,1.466 -1.93,2.202 h 1.638 c 0.096,-0.734 0.206,-1.464 0.292,-2.202 z"
     id="path144" />
  <path
     inkscape:connector-curvature="0"
     style="fill:#b22134;stroke-width:2"
     d="m 6273.235,1071.9028 c 8.382,0.04 16.886,0.448 25.348,-0.896 1.048,-2.552 2.042,-5.114 3.008,-7.69 h -27.634 c -0.256,2.86 -0.508,5.72 -0.722,8.586 z"
     id="path146" />
  <path
     inkscape:connector-curvature="0"
     style="fill:#b22134;stroke-width:2"
     d="m 6005.435,1075.8828 c -21.116,2.97 -41.746,8.34 -62.008,14.728 -23.07,7.324 -48.172,2.768 -70.836,11.556 -19.246,6.836 -40.036,8.992 -58.062,19.002 -24.332,13.02 -53.91,5.86 -78.242,18.798 -13.304,5.046 -19.286,18.92 -27.382,29.498 -17.374,23.598 -33.444,48.052 -48.662,73.074 -6.796,13.468 -23.72,13.06 -35.886,18.554 0.408,3.418 1.18,10.254 1.586,13.67 10.538,-0.406 21.078,-0.976 31.696,-1.384 -0.772,3.01 -2.4,9.032 -3.174,12.044 h -2.076 c -1.504,5.656 -5.044,11.23 -4.19,17.292 1.246,1.506 2.584,2.926 3.952,4.318 h 498.4 c -3.412,-7.512 -8.484,-14.346 -12.752,-21.324 4.516,-35.48 29.662,-64.856 32.062,-100.864 0.528,-8.952 8.748,-14.16 14.24,-20.222 8.422,0.57 18.552,4.272 25.592,-2.646 11.962,-10.294 20.506,-23.884 31.572,-35.072 2.89,-0.04 8.666,-0.082 11.514,-0.122 6.428,-18.96 0.122,-39.304 1.75,-58.712 0.89,-1.778 2.026,-3.338 3.318,-4.76 h -236.64 c -3.664,6.07 -8.082,11.258 -15.758,12.572 z"
     id="path148" />
  <path
     inkscape:connector-curvature="0"
     style="fill:#b22134;stroke-width:2"
     d="m 5012.435,1296.0428 c -7.69,-3.58 -14.85,-8.138 -20.466,-14.524 -1.384,-12.246 6.59,-20.994 14.892,-28.604 -15.542,-2.644 -22.174,-21.89 -38.816,-19.814 -13.102,0.326 -26.244,0.366 -38.938,-3.052 -2.686,-10.09 -5.818,-20.018 -9.48,-29.782 -8.096,0.936 -16.112,1.708 -24.128,2.482 -1.546,1.342 -4.556,4.068 -6.102,5.412 -5.168,-7.528 -10.7,-14.81 -18.148,-20.14 -2.848,6.184 -5.004,12.654 -8.502,18.472 -8.138,5.818 -17.822,8.748 -26.814,12.816 4.518,3.988 9.074,8.016 13.672,12.084 -0.488,8.91 -1.018,17.862 -1.628,26.772 -8.584,0.326 -17.17,0.57 -25.674,0.814 0.976,8.788 1.628,17.658 2.116,26.528 -1.18,6.51 -2.36,13.06 -3.5,19.57 -14.2,-3.012 -12.084,-20.262 -22.378,-26.65 -4.558,8.218 -7.65,17.496 -14.606,24.168 -1.468,1.402 -2.828,2.894 -4.128,4.44 h 232.88 c -0.076,-3.674 -0.188,-7.344 -0.256,-10.992 z"
     id="path150" />
  <path
     inkscape:connector-curvature="0"
     style="fill:#b22134;stroke-width:2"
     d="m 3659.835,1063.3028 v 243.72 h 962.22 c 3.142,-6.612 5.184,-13.694 5.27,-21.528 h 0.976 c 9.684,-25.552 12.856,-58.06 38.734,-73.196 4.476,2.318 9.154,4.232 13.996,5.818 5.248,-7.16 9.358,-16.804 19.204,-18.472 6.794,6.144 8.83,15.706 12.694,23.802 2.564,-8.016 4.516,-16.316 8.544,-23.762 6.428,-9.52 16.926,-15.014 26.61,-20.71 12.694,5.168 26.284,2.034 39.468,0.976 -1.302,-1.67 -3.906,-5.006 -5.208,-6.674 4.11,-8.87 10.01,-16.762 17.374,-23.232 10.742,3.256 24.046,3.296 31.574,12.978 8.056,9.888 16.558,19.448 26.69,27.382 5.412,-9.154 8.464,-19.326 12.614,-29.05 1.952,-6.55 10.578,-3.052 15.542,-3.336 27.666,3.988 55.7,3.866 83.612,4.476 -0.732,-5.696 -1.424,-11.352 -2.034,-17.008 -15.096,0.284 -30.434,-0.406 -44.958,-4.394 -7.69,-3.946 -13.956,-9.968 -20.506,-15.42 2.198,-9.846 2.482,-19.976 2.116,-29.986 -6.266,6.428 -12.288,13.102 -18.31,19.692 -16.764,0.896 -33.566,0.732 -50.25,-0.244 -3.54,-3.54 -7.038,-7.08 -10.456,-10.578 1.506,-2.116 4.516,-6.306 6.022,-8.422 -0.732,-2.808 -2.156,-8.504 -2.848,-11.352 -6.55,-1.302 -13.06,-2.848 -19.65,-3.296 -6.876,2.97 -12.166,8.422 -17.944,12.898 -15.664,14.81 -40.118,-0.61 -57.042,11.636 -17.658,11.23 -34.258,25.024 -45.286,43.048 -7.282,-5.982 -14.486,-12.084 -21.686,-18.106 -13.06,0.406 -26.202,1.75 -39.182,0.04 -15.338,-8.3 -20.262,-29.742 -38.164,-34.502 -20.1,-7.12 -36.7,15.908 -56.922,7.892 -3.092,-4.964 -4.76,-10.62 -6.754,-15.99 -7.488,-3.296 -17.822,-4.882 -17.822,-15.054 9.642,-5.492 20.628,-5.94 31.41,-6.958 1.104,-0.99 2.158,-2.03 3.192,-3.09 h -31.516 c -21.09,16.492 -41.706,33.568 -63.67,48.862 -8.828,6.674 -20.71,5.9 -30.108,11.188 -6.47,5.452 -10.01,13.752 -16.926,18.676 -15.584,2.93 -31.492,4.314 -47.278,6.022 -9.358,1.018 -16.886,-5.046 -23.964,-10.09 4.842,-21.972 34.666,-24.208 37.594,-47.238 -10.536,7.202 -19.61,16.274 -29.864,23.924 -4.882,-2.604 -9.724,-5.168 -14.566,-7.69 -16.316,14.566 -37.798,20.384 -57.98,27.382 -16.56,5.33 -33.812,10.864 -51.428,8.138 8.34,-11.922 20.018,-21.118 27.626,-33.608 10.706,-16.47 23.002,-31.99 37.158,-45.568 h -617.92 z"
     id="path152" />
  <path
     inkscape:connector-curvature="0"
     style="fill:#b22134;stroke-width:2"
     d="m 5330.435,1593.3028 c -26.976,22.256 -61.886,34.014 -84.67,61.438 -14.078,13.874 -27.464,34.706 -49.924,32.998 -12.206,-1.22 -24.82,1.018 -34.95,8.178 -6.306,10.822 -12.776,22.094 -25.022,27.016 -15.584,-11.066 -33.974,-17.576 -48.54,-30.19 -10.458,-9.562 -25.266,-4.924 -37.88,-5.248 0.366,-9.48 0.204,-19.082 2.238,-28.4 3.702,-9.032 11.798,-15.828 14.282,-25.388 0,-9.602 -2.97,-19.448 0.326,-28.806 7.976,-17.048 22.866,-29.906 39.954,-37.392 7.322,-2.792 9.968,-9.834 12.044,-16.754 h -331.3 c 0.114,23.418 0.762,46.926 -1.852,70.218 -7.65,39.588 -27.79,77.754 -58.67,103.712 -20.67,0.162 -43.942,5.168 -62.088,-7.608 -4.068,-10.132 -4.19,-21.402 -8.626,-31.37 -5.412,-9.724 -13.346,-18.39 -14.932,-29.824 -2.848,-19.53 0.692,-39.264 0,-58.834 -1.702,-17.366 -19.224,-28.754 -18.764,-46.294 h -962.28 v 243.72 h 2268.8 c 1.356,-2.288 2.706,-4.58 4.026,-6.888 l 2.562,-0.082 c 5.574,-10.05 12.694,-20.1 12.654,-32.062 1.14,-24.046 9.806,-49.434 0.326,-72.708 -10.092,-8.748 -26.082,-7.894 -34.992,-17.82 -4.354,-13.304 7.04,-25.022 14.566,-34.706 12.368,9.602 27.83,12.858 43.086,14.77 -2.44,-5.046 -4.76,-10.09 -7.04,-15.136 10.58,-0.61 22.744,0.976 31.452,-6.55 28.684,-28.114 72.098,-29.092 104.728,-50.738 -5.41,-4.598 -10.822,-9.114 -16.072,-13.752 -7.568,-9.196 -20.79,-5.94 -31.084,-5.452 -0.976,10.13 0.692,22.866 -10.824,27.424 -30.23,23.802 -68.354,39.264 -107.292,34.462 0.772,-7.282 0.042,-15.014 3.296,-21.808 6.958,-5.086 16.762,-3.418 24.412,-7.486 9.56,-6.592 13.996,-18.066 22.622,-25.552 7.26,-4.066 15.154,-6.64 22.91,-9.634 h -630.82 c -13.498,16.266 -30.428,29.238 -46.746,42.546 z"
     id="path154" />
  <path
     inkscape:connector-curvature="0"
     style="fill:#b22134;stroke-width:2"
     d="m 5855.835,2049.0828 c -8.3,5.208 -15.746,13.426 -17.902,23.232 -2.034,8.83 5.044,15.908 8.91,23.11 4.272,-5.778 8.586,-11.596 12.696,-17.536 -1.872,-4.312 -3.336,-8.666 -4.394,-13.142 5.086,-6.104 11.636,-10.782 17.576,-16.072 0.67,-3.484 1.252,-6.98 1.796,-10.48 h -18.04 c -0.284,3.698 -0.6,7.364 -0.642,10.888 z"
     id="path156" />
  <path
     inkscape:connector-curvature="0"
     style="fill:#b22134;stroke-width:2"
     d="m 3659.835,2038.1828 v 243.72 h -2208.4 4459.6 c 3.864,-13.924 6.488,-28.554 1.038,-42.418 -6.266,-14.77 -15.462,-29.702 -30.72,-36.334 -2.644,-20.14 -1.26,-40.524 -3.824,-60.624 -5.98,1.464 -10.986,5.29 -15.99,8.504 -10.782,-7.284 -16.6,-19.124 -23.232,-29.824 -11.638,-3.214 -27.586,-3.54 -32.916,-16.438 -0.814,-9.724 0.082,-19.408 -0.082,-29.092 -8.138,-1.954 -16.072,-4.354 -23.802,-7.202 6.226,-3.946 15.91,-5.37 18.148,-13.63 1.51,-6.042 1.05,-11.564 -0.712,-16.664 h -2139.2 z"
     id="path158" />
  <path
     inkscape:connector-curvature="0"
     style="fill:#b22134;stroke-width:2"
     d="m 1689.995,2558.7028 c 19.448,20.914 38.856,45.366 39.752,75.312 2.686,18.512 -7.12,39.142 4.924,55.66 5.534,12.002 20.344,11.8 31.532,13.304 61.6,5.534 123.446,8.626 184.964,15.542 24.612,9.978 35.562,37.15 57.714,50.582 h 3510.6 c 16.244,-14.708 21.978,-38.702 39.082,-52.82 25.388,-16.886 51.306,-33.242 75.068,-52.486 -2.97,-8.952 -5.738,-17.944 -9.318,-26.65 17.13,-26.772 35.724,-52.608 53.462,-78.974 18.554,-7.812 38.938,-7.446 58.59,-10.294 3.988,-5.37 8.218,-10.578 11.596,-16.398 -0.69,-2.126 -1.588,-4.146 -2.62,-6.1 h -4098.8 c 13.534,12.228 27.86,23.724 43.348,33.322 z"
     id="path160" />
  <path
     inkscape:connector-curvature="0"
     style="fill:#b22134;stroke-width:2"
     d="m 2898.135,3053.1028 c 20.1,21.646 42.926,40.77 62.374,63.024 9.764,14.688 18.39,30.15 27.302,45.366 13.59,23.964 9.276,53.91 24.412,77.184 4.298,6.654 9.378,12.548 14.992,17.878 h 154.502 c 1.344,-2.782 2.65,-5.582 3.834,-8.44 4.354,-13.548 20.466,-13.914 31.816,-17.618 16.194,-5.29 32.998,0.284 49.476,0.772 23.638,2.644 49.028,-2.4 71.364,7.486 3.024,5.616 4.838,11.76 6.906,17.798 h 690.28 c 7.868,-1.958 15.694,-4.08 23.418,-6.568 -0.964,2.102 -1.608,4.318 -1.948,6.568 h 88.772 c 8.252,-3.016 16.544,-5.878 24.942,-8.318 16.274,-2.116 32.306,-6.266 48.662,-8.016 17.616,6.73 35.61,13.702 54.394,16.334 h 20.164 c 13.486,-1.63 26.896,-4.146 40.464,-5.592 -5.33,-2.89 -10.742,-5.9 -15.908,-8.87 18.31,-8.788 40.32,-4.354 60.136,-5.696 9.362,6.16 17.4,14.328 27.088,20.158 h 15.19 c 0.99,-0.268 1.904,-0.514 2.64,-0.708 0.226,0.234 0.446,0.474 0.67,0.708 h 118.528 c 0.104,-5.222 3.326,-10.332 8.886,-7.096 2.94,2.254 5.79,4.664 8.63,7.096 h 52.892 c -4.626,-1.834 -9.25,-3.654 -13.836,-5.51 -7.894,-2.644 -9.072,-12.41 -5.086,-18.676 6.754,-19.774 38.286,-14.118 40.972,-36.74 -9.114,-2.522 -18.472,-3.906 -27.79,-4.76 -0.772,3.256 -2.28,9.764 -3.052,13.02 -5.208,0.976 -10.456,1.872 -15.584,2.848 -2.278,-14.404 -16.194,-18.31 -27.912,-22.704 -7.854,6.714 -15.95,17.618 -27.75,14.404 -15.868,-2.97 -24.656,-26.894 -10.742,-37.31 9.276,-5.736 18.552,-18.024 30.638,-13.102 21.402,2.93 36.782,25.266 59.932,18.554 15.828,-22.704 46.384,-25.592 70.714,-34.056 22.46,4.598 45.61,2.726 67.54,-3.906 7.65,-9.684 11.19,-22.622 22.378,-29.58 6.022,13.712 9.318,28.806 17.862,41.298 5.168,3.336 13.59,3.052 17.252,-2.522 6.794,-8.87 12.328,-18.636 19.042,-27.546 5.046,5.004 9.888,10.172 14.892,15.338 10.132,-6.632 11.636,-19.612 19.57,-27.83 15.218,-4.232 21.36,11.636 25.756,22.826 7.242,4.516 11.474,-5.9 17.21,-8.666 18.96,-10.864 42.56,-14.16 63.268,-6.104 4.394,6.062 7.446,13.02 11.88,19.164 15.584,1.708 28.604,-9.154 42.112,-15.258 9.724,1.14 3.906,14.118 5.858,20.832 7.446,10.294 16.886,18.798 27.342,26.122 9.562,5.452 3.052,26.61 18.594,22.744 14.566,1.14 22.338,-14.606 36.09,-16.072 8.3,-1.912 18.188,-2.644 23.72,-10.172 10.172,-13.06 17.658,-27.954 26.366,-41.99 2.686,-3.784 5.492,-9.968 11.31,-8.626 22.216,2.074 49.436,5.168 62.334,26 15.746,28.644 44.838,45.53 69.738,65.262 16.926,14.118 39.264,21.686 52.446,40.198 6.18,6.506 9.304,14.258 10.882,22.518 h 197.262 c 0,-0.034 -0.02,-0.066 -0.028,-0.098 -1.18,-5.29 -1.262,-16.072 6.348,-15.908 7.974,2.36 15.42,6.184 23.354,8.952 -14.2,-19.57 -26.976,-40.81 -46.222,-55.904 -22.216,-19.042 -38.368,-43.698 -54.114,-68.028 -13.794,-22.988 -30.312,-45.204 -36.13,-71.854 -2.942,-13.802 -7.268,-27.298 -11.146,-40.878 h -2586.8 c 12.294,14.012 25.052,27.614 38.72,40.27 z"
     id="path162" />
  <path
     inkscape:connector-curvature="0"
     style="fill:#b22134;stroke-width:2"
     d="m 5503.035,3547.1028 h 0.53 c 13.306,32.672 56.758,29.092 77.184,54.806 -1.302,3.092 -3.866,9.276 -5.166,12.368 8.788,13.672 16.682,28.238 27.79,40.28 12.328,3.134 26.08,1.79 38.328,-1.262 10.74,-8.178 20.792,-17.332 31.004,-26.162 0.65,-6.958 1.26,-13.914 3.294,-20.588 8.464,-19.326 -4.598,-40.932 7.202,-59.648 3.27,-15.372 4.266,-30.98 4.504,-46.648 h -216.5 c 13.872,12.978 24.852,29.064 31.838,46.854 z"
     id="path164" />
  <path
     inkscape:connector-curvature="0"
     style="fill:#b22134;stroke-width:2"
     d="m 3516.035,3508.3028 c 7.854,13.834 13.304,28.888 17.454,44.228 l 1.506,-2.32 c 5.004,15.624 11.108,31.126 20.14,45 13.06,20.058 19.366,43.414 28.848,65.18 12.084,17.862 34.544,21.158 53.87,26.04 10.334,1.384 9.724,15.46 18.878,18.512 24.82,7.812 51.51,3.378 76.614,9.928 12.856,3.254 20.466,16.194 33.446,19.326 4.842,1.384 11.84,2.808 14.606,-2.888 4.354,-11.066 1.18,-23.354 -0.244,-34.666 -2.564,-17.17 -18.268,-28.278 -22.418,-44.756 1.506,-14.932 4.028,-29.864 2.482,-44.878 0.244,-20.262 -14.648,-40.932 -1.098,-59.73 7.892,-11.88 10.172,-26.08 15.136,-39.182 3.954,-3.246 8.86,-5.364 13.588,-7.668 h -277.46 c 1.612,2.584 3.184,5.196 4.654,7.874 z"
     id="path166" />
</svg>
