<?xml version="1.0" encoding="UTF-8" standalone="no"?>
<!-- Created with Inkscape (http://www.inkscape.org/) -->

<svg
   xmlns:dc="http://purl.org/dc/elements/1.1/"
   xmlns:cc="http://creativecommons.org/ns#"
   xmlns:rdf="http://www.w3.org/1999/02/22-rdf-syntax-ns#"
   xmlns:svg="http://www.w3.org/2000/svg"
   xmlns="http://www.w3.org/2000/svg"
   xmlns:sodipodi="http://sodipodi.sourceforge.net/DTD/sodipodi-0.dtd"
   xmlns:inkscape="http://www.inkscape.org/namespaces/inkscape"
   width="96"
   height="96"
   viewBox="0 0 25.399999 25.400001"
   version="1.1"
   id="svg45"
   inkscape:version="0.92.2 2405546, 2018-03-11"
   sodipodi:docname="tux-pixabay-ico2.svg">
  <defs
     id="defs39" />
  <sodipodi:namedview
     id="base"
     pagecolor="#ffffff"
     bordercolor="#666666"
     borderopacity="1.0"
     inkscape:pageopacity="0.0"
     inkscape:pageshadow="2"
     inkscape:zoom="1.979899"
     inkscape:cx="-101.42857"
     inkscape:cy="-25.293754"
     inkscape:document-units="mm"
     inkscape:current-layer="layer1"
     showgrid="false"
     units="px"
     inkscape:window-width="1920"
     inkscape:window-height="1020"
     inkscape:window-x="0"
     inkscape:window-y="0"
     inkscape:window-maximized="1" />
  <metadata
     id="metadata42">
    <rdf:RDF>
      <cc:Work
         rdf:about="">
        <dc:format>image/svg+xml</dc:format>
        <dc:type
           rdf:resource="http://purl.org/dc/dcmitype/StillImage" />
        <dc:title></dc:title>
      </cc:Work>
    </rdf:RDF>
  </metadata>
  <g
     inkscape:label="Layer 1"
     inkscape:groupmode="layer"
     id="layer1"
     transform="translate(0,-271.59998)">
    <g
       transform="matrix(0.03127693,0,0,0.03127693,0.29596358,272.97264)"
       id="g16">
      <path
         d="m 413.65,-43.886 c -5.2152,-0.0096 -10.655,0.20932 -16.328,0.66159 -143.37,11.546 -105.35,163.01 -107.48,213.73 -2.6182,37.091 -10.139,66.322 -35.648,102.58 -29.97,35.64 -72.165,93.324 -92.154,153.37 -9.4338,28.34 -13.923,57.225 -9.7771,84.563 -1.2987,1.163 -2.5351,2.3815 -3.7107,3.6366 -8.7993,9.394 -15.301,20.776 -22.545,28.44 -6.7683,6.7515 -16.411,9.3196 -27.008,13.121 -10.601,3.8036 -22.24,9.4112 -29.305,22.968 0,0 0,0.005 -0.0048,0.007 -0.01153,0.0225 -0.02411,0.0437 -0.03612,0.0666 -6.3956,11.946 -4.4943,25.702 -2.541,38.447 1.9533,12.745 3.9307,24.788 1.306,32.959 -8.39,22.932 -9.4611,38.794 -3.5549,50.301 5.9189,11.53 18.089,16.619 31.843,19.492 27.509,5.7455 64.763,4.3177 94.124,19.879 l 2.5236,-4.7616 -2.4975,4.7758 c 31.432,16.433 63.298,22.271 88.721,16.464 18.432,-4.21 33.395,-15.185 41.079,-32.074 19.885,-0.0978 41.705,-8.5196 76.659,-10.444 23.713,-1.91 53.334,8.4206 87.405,6.5287 0.89062,3.6965 2.1796,7.252 3.944,10.631 0.018,0.0348 0.035,0.0692 0.0535,0.10345 13.208,26.411 37.749,38.492 63.903,36.428 26.188,-2.0667 54.031,-17.508 76.538,-44.293 l -4.1261,-3.4675 4.1576,3.4294 c 21.452,-26.012 57.06,-36.798 80.671,-51.038 11.805,-7.1204 21.385,-16.036 22.125,-28.986 0.73973,-12.943 -6.859,-27.448 -24.332,-46.844 l -0.005,-0.005 c -0.007,-0.009 -0.0137,-0.0161 -0.0204,-0.0241 -5.7411,-6.4878 -8.4799,-18.512 -11.423,-31.317 -2.9413,-12.797 -6.2244,-26.602 -16.731,-35.548 -0.021,-0.0185 -0.0422,-0.0352 -0.0633,-0.0535 -4.1814,-3.6436 -8.5266,-6.1165 -12.902,-7.7779 14.607,-43.321 8.876,-86.459 -5.8691,-125.44 -18.096,-47.841 -49.69,-89.527 -73.818,-118.04 -27.008,-34.066 -53.424,-66.409 -52.904,-114.18 0.80447,-72.907 8.0195,-208.11 -120.28,-208.29 z m 17.369,112.32 c 7.28,0 13.498,2.1339 19.884,6.7696 6.4883,4.7092 11.163,10.604 14.93,18.837 3.6976,8.0232 5.4766,15.872 5.6511,25.186 0,0.24419 0,0.45344 0.0697,0.69763 0.0697,9.558 -1.5697,17.686 -5.1976,25.988 -2.0701,4.7373 -4.4474,8.7134 -7.2928,12.156 -0.96599,-0.46377 -1.9692,-0.90968 -3.0098,-1.3376 -7.2124,-3.0891 -12.745,-5.055 -17.357,-6.6551 1.6716,-2.0093 3.0634,-4.3923 4.2874,-7.3712 1.8488,-4.4999 2.7558,-8.8953 2.9302,-14.128 0,-0.20935 0.0698,-0.38379 0.0698,-0.62796 0.1046,-5.0231 -0.55814,-9.3138 -2.0232,-13.709 -1.5349,-4.6045 -3.4883,-7.9184 -6.3139,-10.674 -2.8255,-2.7559 -5.6511,-4.0116 -9.0348,-4.1163 -0.15864,-0.0096 -0.3168,-0.0096 -0.47306,-0.0096 -3.1828,0.0096 -5.9465,1.101 -8.8058,3.4949 -2.9999,2.5117 -5.2325,5.7208 -7.0813,10.186 -1.8488,4.465 -2.7558,8.8951 -2.9301,14.163 -0.0351,0.20935 -0.0351,0.38379 -0.0351,0.59304 -0.0603,2.8954 0.12362,5.5478 0.57011,8.1234 -6.5125,-3.2451 -12.65,-5.4575 -18.41,-6.8284 -0.32833,-2.4907 -0.51826,-5.0609 -0.57889,-7.7483 v -0.73263 c -0.10468,-9.5231 1.4651,-17.686 5.1278,-25.988 3.6628,-8.3022 8.1976,-14.267 14.581,-19.116 6.3836,-4.8487 12.663,-7.0812 20.093,-7.151 h 0.34774 z m -99.642,7.889 c 4.8294,0.01145 9.1508,1.6249 13.621,5.1944 4.8488,3.8719 8.5115,8.8253 11.581,15.802 3.0697,6.9767 4.7092,13.953 5.1627,22.186 v 0.0693 c 0.21981,3.4576 0.19293,6.7122 -0.0796,9.8642 -0.95516,0.27148 -1.8912,0.56523 -2.8081,0.8809 -5.2073,1.7925 -9.7965,4.2352 -13.796,6.8764 0.39112,-2.7628 0.44934,-5.566 0.14934,-8.6914 -0.0352,-0.17444 -0.0352,-0.31394 -0.0352,-0.48829 -0.41861,-4.1511 -1.2907,-7.6394 -2.7558,-11.163 -1.5697,-3.6626 -3.3139,-6.244 -5.6162,-8.2324 -2.0864,-1.8018 -4.0578,-2.6293 -6.2266,-2.6129 -0.22438,0 -0.4513,0.0124 -0.6802,0.0314 -2.4418,0.20913 -4.4651,1.3952 -6.3837,3.7324 -1.9186,2.3372 -3.1743,5.2325 -4.0813,9.0695 -0.90697,3.8372 -1.1512,7.6046 -0.76745,11.93 0,0.17434 0.0351,0.31403 0.0351,0.48836 0.41854,4.186 1.2558,7.6743 2.7558,11.198 1.5349,3.6278 3.3139,6.2092 5.6162,8.1975 0.38557,0.333 0.76701,0.63212 1.1467,0.89935 -2.3947,1.8431 -3.5382,2.6928 -5.5006,4.1347 -1.2586,0.92353 -2.7576,2.0231 -4.4999,3.3074 -3.7996,-3.5594 -6.7636,-8.0327 -9.3553,-13.923 -3.0697,-6.9766 -4.7092,-13.953 -5.1976,-22.186 v -0.0693 c -0.45346,-8.2324 0.34884,-15.314 2.6162,-22.639 2.2674,-7.3255 5.3023,-12.628 9.6975,-16.988 4.3953,-4.3603 8.8255,-6.558 14.163,-6.8369 0.41695,-0.02291 0.83019,-0.03332 1.2394,-0.03143 z m 45.317,57.114 c 11.225,-0.0433 24.732,3.6367 41.085,14.151 10.044,6.5319 17.86,7.0778 35.858,14.786 l 0.0216,0.01 0.022,0.009 c 8.6593,3.5529 13.742,8.1838 16.225,13.06 2.4832,4.8766 2.5439,10.165 0.46544,15.728 -4.1567,11.126 -17.425,22.836 -36.044,28.65 l -0.0176,0.008 -0.0165,0.008 c -9.0786,2.9496 -16.995,9.4634 -26.328,14.8 -9.3327,5.3366 -19.893,9.6409 -34.253,8.8102 -12.225,-0.7125 -19.532,-4.8626 -26.14,-10.173 -6.6076,-5.3103 -12.366,-11.982 -20.797,-16.933 l -0.0216,-0.013 -0.022,-0.013 c -13.581,-7.6763 -20.996,-16.555 -23.323,-24.251 -2.3271,-7.6969 -0.14319,-14.267 6.5951,-19.317 7.5757,-5.6775 12.838,-9.5394 16.344,-12.112 3.4824,-2.5554 4.9313,-3.5136 6.0403,-4.5785 0.006,-0.009 0.0117,-0.0122 0.0175,-0.0173 l 0.005,-0.009 c 5.6922,-5.3881 14.766,-15.205 28.444,-19.913 4.7076,-1.6206 9.9606,-2.6661 15.84,-2.6893 z m 78.491,46.422 c -4.8438,0.28881 -9.9169,2.7827 -15.824,6.0806 -5.907,3.2978 -12.55,7.5163 -19.748,11.671 -14.397,8.3085 -30.971,16.254 -47.441,16.254 -16.496,0 -29.676,-7.6186 -39.561,-15.452 -4.9426,-3.9168 -9.022,-7.862 -12.281,-10.914 -1.6295,-1.5261 -3.0428,-2.8267 -4.3615,-3.8426 -1.3185,-1.0159 -2.3917,-2.0232 -4.598,-2.0232 l -0.10573,4.6362 c -0.15798,1.5513 -0.32031,1.5035 -0.25617,1.5458 0.10291,0.0676 0.61485,0.24409 1.2122,0.70422 0.96947,0.74684 2.3152,1.9643 3.9123,3.46 3.1943,2.9914 7.4389,7.1042 12.665,11.245 10.452,8.2824 24.987,16.78 43.374,16.78 18.413,0 35.833,-8.6062 50.511,-17.076 7.3388,-4.2352 14.004,-8.4627 19.672,-11.627 5.6675,-3.1643 10.436,-5.1486 13.197,-5.3132 l -0.36631,-6.1285 z m 16.367,22.034 c 12.229,48.207 40.673,117.84 58.955,151.82 9.7173,18.028 29.05,56.333 37.402,102.48 5.2925,-0.16214 11.12,0.60683 17.361,2.2031 21.838,-56.615 -18.519,-117.6 -36.973,-134.58 -7.4505,-7.2296 -7.8086,-10.469 -4.1151,-10.316 20.022,17.706 46.307,53.319 55.87,93.516 4.3606,18.329 5.2903,37.598 0.61156,56.615 2.2891,0.95096 4.6139,1.9849 6.9701,3.1002 35.055,17.07 48.019,31.913 41.786,52.172 -2.0531,-0.072 -4.0726,-0.0639 -6.0424,-0.0165 -0.18384,0.005 -0.3663,0.01 -0.54946,0.014 5.0763,-16.058 -6.1694,-27.902 -36.136,-41.461 -31.081,-13.674 -55.848,-12.314 -60.034,15.418 -0.26791,1.4529 -0.4834,2.9334 -0.64754,4.4345 -2.3221,0.80636 -4.6568,1.8359 -6.9974,3.1166 -14.595,7.9857 -22.56,22.476 -26.991,40.248 -4.4269,17.758 -5.696,39.225 -6.9178,63.358 v 0.0125 c -0.74649,12.135 -5.7354,28.547 -10.795,45.93 -50.915,36.319 -121.58,52.054 -181.58,11.108 -4.0661,-6.4322 -8.7304,-12.805 -13.531,-19.091 -3.0659,-4.014 -6.2154,-8.0035 -9.3465,-11.937 6.1591,0.005 11.394,-1.0039 15.626,-2.9224 5.2617,-2.3859 8.9586,-6.218 10.788,-11.138 3.6579,-9.8393 -0.016,-23.719 -11.726,-39.57 -11.709,-15.849 -31.541,-33.736 -60.683,-51.608 0,0 -0.005,0 -0.005,-0.005 -21.409,-13.319 -33.382,-29.645 -38.986,-47.37 -5.6047,-17.727 -4.8189,-36.896 -0.49928,-55.821 8.2911,-36.326 29.594,-71.656 43.186,-93.828 3.6595,-2.6926 1.3075,4.9981 -13.76,32.979 -13.504,25.582 -38.75,84.62 -4.1838,130.71 0.92373,-32.796 8.756,-66.244 21.904,-97.531 19.152,-43.413 59.21,-118.7 62.392,-178.7 1.6404,1.1912 7.2774,4.9946 9.7891,6.423 0.005,0.008 0.0111,0.008 0.0161,0.009 7.3488,4.3276 12.868,10.654 20.016,16.398 7.1625,5.7563 16.11,10.728 29.629,11.516 15.779,0.91305 27.805,-3.9742 37.657,-9.6082 9.838,-5.6255 17.697,-11.851 25.143,-14.281 0.0117,-0.008 0.0226,-0.008 0.0336,-0.0107 15.734,-4.9202 28.244,-13.629 35.363,-23.786 z m 99.934,275.99 c 6.3729,-0.0295 14.093,2.0952 22.543,5.8756 22.744,10.5 29.86,19.5 23.651,32.72 -5.2324,9.9766 -27.627,25.848 -42.976,21.662 -15.663,-4.0464 -23.302,-26.616 -20.756,-43.674 1.364,-11.583 7.9158,-16.54 17.538,-16.585 z m -25.733,31.171 c 1.2856,20.859 11.606,42.134 29.858,46.738 19.973,5.2625 48.77,-11.875 60.929,-25.853 2.4244,-0.0971 4.7946,-0.21584 7.0965,-0.27141 10.665,-0.25752 19.611,0.3513 28.75,8.3447 l 0.0316,0.0271 0.0326,0.0271 c 7.0236,5.9506 10.362,17.196 13.258,29.794 2.8954,12.598 5.2109,26.318 13.894,36.092 l 0.0129,0.014 0.0121,0.014 c 16.694,18.526 22.06,31.047 21.604,39.04 -0.45681,7.9925 -6.2436,13.926 -16.929,20.371 -21.362,12.884 -59.212,24.088 -83.388,53.372 -20.992,24.982 -46.59,38.703 -69.134,40.482 -22.544,1.7791 -41.994,-7.5774 -53.461,-30.593 l -0.0261,-0.0522 -0.0271,-0.0513 c -7.1137,-13.532 -4.1504,-34.888 1.8422,-57.414 5.9927,-22.526 14.603,-45.656 15.755,-64.456 v -0.0581 c 1.2192,-24.087 2.5675,-45.122 6.6137,-61.353 4.0462,-16.23 10.417,-27.223 21.706,-33.4 0.52569,-0.28761 1.0475,-0.55897 1.5664,-0.8154 z m -366.59,1.5741 c 1.6849,0.007 3.468,0.14749 5.3677,0.43495 12.778,1.9357 23.922,10.87 34.657,25.432 10.736,14.562 20.726,34.44 30.995,56.49 l 0.0131,0.0271 0.0121,0.0261 c 8.2523,17.224 25.666,36.162 40.423,55.483 14.757,19.32 26.178,38.713 24.691,53.557 l -0.007,0.0645 -0.005,0.0643 c -1.9239,25.316 -16.204,39.097 -38.126,44.104 -21.915,5.0054 -51.625,0.0161 -81.3,-15.493 -0.009,-0.005 -0.0176,-0.009 -0.0261,-0.014 -32.83,-17.388 -71.886,-15.661 -96.94,-20.894 -12.53,-2.6171 -20.706,-6.5516 -24.459,-13.862 -3.7528,-7.31 -3.8365,-20.064 4.138,-41.809 l 0.03508,-0.096 0.03156,-0.097 c 3.9437,-12.165 1.0252,-25.475 -0.88952,-37.968 -1.9147,-12.493 -2.8511,-23.857 1.415,-31.777 l 0.01963,-0.0362 0.01944,-0.0371 c 5.4619,-10.528 13.473,-14.292 23.416,-17.859 9.943,-3.5674 21.733,-6.369 31.044,-15.7 l 0.0481,-0.0492 0.0481,-0.0501 c 8.6072,-9.08 15.072,-20.462 22.639,-28.54 6.3844,-6.816 12.774,-11.333 22.404,-11.4 h 0.33575 z"
         style="color:#000000;text-indent:0;text-decoration:none;text-decoration-line:none;text-transform:none"
         id="path2"
         inkscape:connector-curvature="0" />
      <path
         d="m 544.68,509.42 c -10.063,4.2311 -16.303,14.377 -19.901,24.291 -8.7247,25.368 -7.4523,52.649 -10.573,78.888 -4.5388,27.695 -16.08,53.942 -19.876,81.845 -0.3028,10.77 -1.8418,22.341 3.4048,32.265 7.9942,15.987 23.42,29.526 41.831,30.799 25.838,2.6139 50.735,-10.154 69.138,-27.42 13.823,-13.995 26.766,-29.402 44.155,-39.206 19.152,-11.788 40.804,-19.309 59.319,-32.219 6.8922,-4.716 11.495,-13.355 8.9573,-21.725 -4.0323,-16.051 -17.429,-26.971 -25.752,-40.56 -9.3588,-17.208 -8.0419,-38.524 -19.131,-54.975 -8.7083,-11.608 -24.819,-13.904 -38.311,-11.805 -5.1165,1.8912 -8.1457,7.1211 -12.83,9.8531 -14.456,10.418 -32.424,19.539 -50.562,15.266 -15.315,-4.6301 -23.477,-20.417 -26.637,-35.051 -1.432,-3.17 0.046,-7.4231 -2.2756,-10.093 -0.29074,-0.15617 -0.63369,-0.18986 -0.95754,-0.1532 z"
         id="path4"
         inkscape:connector-curvature="0"
         style="fill:#ffd300" />
      <path
         d="m 545.03,509.38 c -21.091,8.645 -23.01,35.162 -26.411,54.641 -3.1223,32.566 -6.3861,65.047 -16.677,96.281 -5.4922,24.264 -15.501,53.606 1.7199,75.573 11.016,16.187 31.044,24.853 50.371,21.069 37.225,-2.2246 59.661,-36.19 86.764,-57.036 23.315,-19.524 55.44,-25.826 77.102,-47.315 10.197,-15.042 -4.6841,-31.559 -12.922,-43.655 -18.871,-19.13 -15.494,-48.669 -30.961,-69.557 -9.4292,-10.802 -27.074,-12.803 -39.788,-7.4824 -16.923,14.14 -39.235,27.46 -61.982,21.596 -15.549,-8.2764 -24.578,-26.384 -25.641,-43.498 -0.38717,-0.44564 -0.99316,-0.66383 -1.5764,-0.61637 z"
         id="path6"
         inkscape:connector-curvature="0"
         style="fill:#ffbb00" />
      <path
         d="m 178.83,510.85 c -21.98,1.4903 -31.083,25.744 -45.455,38.951 -15.68,16.397 -45.997,14.284 -55.34,37.296 -6.0754,24.452 8.516,49.955 -2.0807,73.816 -4.0345,14.113 -8.7014,35.712 7.8598,43.815 34.028,12.485 72.277,8.1596 105.59,23.65 25.897,11.543 53.612,23.712 82.688,18.469 25.391,-1.7467 46.32,-25.844 42.777,-51.41 -4.6639,-28.014 -27.058,-48.497 -42.829,-70.749 -27.468,-31.48 -35.91,-76.012 -67.891,-103.91 -7.0596,-5.907 -15.922,-10.262 -25.316,-9.933 z"
         id="path8"
         inkscape:connector-curvature="0"
         style="fill:#ffbb00" />
      <path
         d="m 376.24,132.51 c -12.735,-0.004 -24.934,5.5155 -34.492,13.721 -6.2233,5.335 -12.051,11.161 -18.875,15.764 -5.7256,4.4038 -11.881,8.3502 -17.069,13.397 -4.6181,4.9248 -5.2862,12.468 -2.6824,18.526 3.2956,8.4029 10.317,14.701 17.567,19.739 6.9479,4.2164 13.66,8.8572 19.553,14.486 7.6238,6.9703 16.234,13.828 26.741,15.49 7.147,1.2682 14.546,0.9137 21.675,-0.29467 12.869,-2.6775 23.78,-10.376 34.774,-17.139 5.2718,-3.4711 11.287,-5.404 17.131,-7.6365 12.096,-5.0774 23.924,-13.059 29.837,-25.152 3.3707,-6.6462 3.2721,-15.197 -1.4246,-21.201 -6.1913,-8.1974 -16.468,-11.366 -25.637,-14.96 -8.9652,-3.3554 -18.383,-5.8921 -26.4,-11.322 -12.19,-7.6114 -26.091,-13.552 -40.697,-13.416 z m 77.996,48.437 c 0.34876,1.3533 0.13429,2.8276 0.20273,4.2257 -7.7746,1.7382 -14.344,6.589 -21.22,10.36 -15.653,9.1709 -31.538,19.099 -49.658,22.415 -5.9382,0.96725 -12.25,0.97348 -18.347,0.64824 -11.808,-1.3855 -22.974,-6.5788 -32.445,-13.709 -7.3936,-5.2579 -13.711,-11.811 -20.637,-17.625 0.35234,-1.4371 -0.0311,-3.4382 0.38698,-4.5255 4.5301,2.3125 7.6898,6.3554 11.598,9.5619 8.9522,8.3584 19.083,15.802 30.835,19.652 5.6819,2.1253 11.752,2.8642 17.793,2.6063 10.419,0.38729 20.53,-3.0801 29.959,-7.1807 15.028,-6.6516 28.531,-16.253 43.105,-23.692 2.6689,-1.2448 5.4803,-2.4083 8.4263,-2.7372 z"
         id="path10"
         inkscape:connector-curvature="0"
         style="fill:#ffbb00" />
      <path
         d="m 570.88,477.09 c -7.0433,-0.19379 -14.037,4.1217 -16.234,10.961 -3.0402,9.1988 -2.3764,19.392 0.33527,28.597 3.138,9.7536 9.502,20.041 20.163,22.495 11.122,2.0209 22.162,-3.2181 30.998,-9.549 7.0243,-5.2805 14.554,-12.268 14.545,-21.761 -0.23409,-8.7735 -8.0037,-14.624 -14.812,-18.821 -10.659,-6.0947 -22.458,-11.868 -34.996,-11.922 z"
         id="path12"
         inkscape:connector-curvature="0" />
      <path
         d="m 375.33,131.75 c -14.443,-0.0653 -27.747,7.5609 -38.043,17.179 -9.8626,9.0568 -21.22,16.348 -31.266,25.203 -6.7126,5.8564 -6.5792,16.406 -2.0948,23.556 6.213,10.945 17.511,17.246 27.434,24.319 9.7192,7.3414 18.064,17.13 29.978,21.041 9.5112,3.2097 19.943,2.6875 29.643,0.64918 14.502,-3.7911 26.362,-13.588 39.493,-20.161 10.335,-4.1232 21.05,-8.1522 29.517,-15.675 5.8195,-5.2632 11.553,-11.716 13.004,-19.67 0.63591,-5.4964 0.71001,-11.634 -3.1591,-16.064 -7.4988,-10.187 -20.534,-13.291 -31.697,-17.698 -8.2012,-2.8552 -16.321,-6.0746 -23.544,-10.976 -11.937,-6.7576 -25.278,-12.363 -39.266,-11.703 z m 78.177,50.288 c 0.0251,1.1762 0.51188,2.9071 -1.2477,2.7373 -12.706,5.0295 -23.967,13.083 -36.022,19.351 -13.26,7.4129 -27.688,13.796 -43.123,13.611 -14.882,0.97269 -29.072,-5.5992 -40.768,-14.31 -6.545,-5.1352 -12.71,-10.73 -18.975,-16.197 -0.14623,-1.7725 -0.30444,-3.9662 1.6054,-1.7081 11.484,9.8128 22.485,21.019 36.994,26.287 9.7584,4.2525 20.64,4.0314 31.004,2.8744 20.183,-3.933 37.479,-15.838 55.136,-25.692 4.893,-2.6383 9.9951,-5.881 15.396,-6.9547 z"
         id="path14"
         inkscape:connector-curvature="0"
         style="fill:#ff9c00" />
    </g>
  </g>
</svg>
