<?xml version="1.0" encoding="UTF-8" standalone="no"?>
<svg
   xmlns:xapRights="http://ns.adobe.com/xap/1.0/rights/"
   xmlns:x="adobe:ns:meta/"
   xmlns:dc="http://purl.org/dc/elements/1.1/"
   xmlns:cc="http://creativecommons.org/ns#"
   xmlns:rdf="http://www.w3.org/1999/02/22-rdf-syntax-ns#"
   xmlns:svg="http://www.w3.org/2000/svg"
   xmlns="http://www.w3.org/2000/svg"
   xmlns:xlink="http://www.w3.org/1999/xlink"
   xmlns:sodipodi="http://sodipodi.sourceforge.net/DTD/sodipodi-0.dtd"
   xmlns:inkscape="http://www.inkscape.org/namespaces/inkscape"
   version="1.1"
   width="3840px"
   height="2160px"
   id="svg34"
   sodipodi:docname="arch-logogreen-radial.svg"
   inkscape:version="0.92.4 5da689c313, 2019-01-14">
  <sodipodi:namedview
     pagecolor="#ffffff"
     bordercolor="#666666"
     borderopacity="1"
     objecttolerance="10"
     gridtolerance="10"
     guidetolerance="10"
     inkscape:pageopacity="0"
     inkscape:pageshadow="2"
     inkscape:window-width="3840"
     inkscape:window-height="2098"
     id="namedview36"
     showgrid="false"
     inkscape:zoom="0.5678121"
     inkscape:cx="1636.1046"
     inkscape:cy="1479.3627"
     inkscape:window-x="0"
     inkscape:window-y="0"
     inkscape:window-maximized="1"
     inkscape:current-layer="svg34" />
  <metadata
     id="metadata2">
<?xpacket begin="" id=""?>    <x:xmpmeta>
      <metadata>
        <rdf:RDF>
          <rdf:Description
             rdf:about="">
            <xapRights:Marked>True</xapRights:Marked>
          </rdf:Description>
          <rdf:Description
             rdf:about="">
            <xapRights:WebStatement
               rdf:resource="http://www.xmple.com/wallpaper/grey-linear-gradient-black-3840x2160-c2-2f4f4f-000000-a-300-f-14-image/" />
          </rdf:Description>
          <rdf:Description
             rdf:about="">
            <xapRights:UsageTerms>
              <rdf:Alt>
                <rdf:li
                   xml:lang="en">This work is licensed under a &lt;a rel=&quot;license&quot; href=&quot;http://creativecommons.org/licenses/by-nc-nd/4.0/&quot;&gt;Creative Commons Attribution-NonCommercial-NoDerivatives 4.0 International License&lt;/a&gt;.</rdf:li>
              </rdf:Alt>
            </xapRights:UsageTerms>
          </rdf:Description>
          <rdf:Description
             rdf:about="">
            <dc:title>
              <rdf:Alt>
                <rdf:li
                   xml:lang="en">grey linear gradient black dark slate gray 3840x2160 #2f4f4f #000000 300°</rdf:li>
              </rdf:Alt>
            </dc:title>
          </rdf:Description>
          <rdf:Description
             rdf:about="">
            <cc:license
               rdf:resource="http://creativecommons.org/licenses/by-nc-nd/4.0/" />
          </rdf:Description>
          <rdf:Description
             rdf:about="">
            <cc:attributionName>xmple.com</cc:attributionName>
          </rdf:Description>
          <rdf:Description
             rdf:about="">
            <cc:morePermissions
               rdf:resource="http://www.xmple.com" />
          </rdf:Description>
          <cc:Work
             rdf:about="">
            <dc:format>image/svg+xml</dc:format>
            <dc:type
               rdf:resource="http://purl.org/dc/dcmitype/StillImage" />
            <dc:title>grey linear gradient black dark slate gray 3840x2160 #2f4f4f #000000 300°</dc:title>
          </cc:Work>
        </rdf:RDF>
      </metadata>
    </x:xmpmeta>
<?xpacket end="r"?>  </metadata>
  <title
     id="title4">grey linear gradient black dark slate gray 3840x2160 #2f4f4f #000000 300°</title>
  <desc
     id="desc6">grey linear gradient black dark slate gray 3840x2160 #2f4f4f #000000 300°</desc>
  <style
     type="text/css"
     id="style8"><![CDATA[.x{font:20px verdana;fill:#fff;stroke:#555;stroke-width:20px;opacity:0.35;}.o{stroke:none;opacity:0.01;}]]></style>
  <defs
     id="defs15">
    <linearGradient
       id="p1"
       x1="1907.6537"
       y1="2880"
       x2="972.34626"
       y2="0"
       gradientTransform="matrix(1.3333333,0,0,0.75,0,-2160)"
       gradientUnits="userSpaceOnUse">
      <stop
         offset="0%"
         style="stop-color:#2f4f4f;stop-opacity:1"
         id="stop10" />
      <stop
         offset="100%"
         style="stop-color:#000000;stop-opacity:1"
         id="stop12" />
    </linearGradient>
    <radialGradient
       inkscape:collect="always"
       xlink:href="#p1"
       id="radialGradient825"
       cx="1920"
       cy="-1080"
       fx="1920"
       fy="-1080"
       r="1920"
       gradientTransform="matrix(1,0,0,0.5625,0,-472.5)"
       gradientUnits="userSpaceOnUse" />
  </defs>
  <rect
     width="3840"
     height="2160"
     x="0"
     y="0"
     fill="#2f4f4f"
     id="rect17" />
  <rect
     width="3840"
     height="2160"
     x="0"
     y="-2160"
     id="rect19"
     style="fill:url(#radialGradient825);fill-opacity:1"
     transform="scale(1,-1)" />
  <path
     class="x o"
     d="M5 5h2v1H6v1h1v1H5zM4 3h4v1h1v5H8v1H4V9H3V4h1v5h4V4H4zm7 1h1v2h1V4h1v2h-1v1h1v2h-1V7h-1v2h-1V7h1V6h-1zm4 0h5v5h-1V5h-1v4h-1V5h-1v4h-1zm6 0h3l-1 1h-1v3h1V5l1-1v5h-2v2h-1zm4-2h1v6h1v1h-2zm3 2h3l-1 1h-1v1h1V5l1-1v3h-2v1h2v1h-3V4zm4 4h1v1h-1zm2-4h3v1h-2v3h2v1h-3zm4 0h3v5h-3l1-1h1V5h-1v3l-1 1zm4 0h5v5h-1V5h-1v4h-1V5h-1v4h-1z"
     id="path21" />
  <text
     x="4"
     y="2154"
     class="x o"
     id="text23">© xmple.com</text>
  <a
     xlink:href="https://www.xmple.com"
     id="a27">
    <text
       text-anchor="end"
       x="3830"
       y="22"
       class="x o"
       id="text25">xmple.com</text>
  </a>
  <g
     id="g822"
     transform="matrix(0.576,0,0,0.576,-263.68664,-126.84697)">
    <path
       id="path2"
       d="m 3778.6485,905.94148 c -78.93,193.37402 -126.54,320.03102 -214.38,507.65402 53.91,57.078 119.97,123.219 227.25,198.288 -115.38,-47.484 -193.95,-94.815 -252.81,-144.288 -112.41,234.513 -288.72,568.2429 -646.029,1210.2309 280.809,-162.09 498.609,-261.9 701.469,-300.06 -8.73,-37.44 -13.59,-78.12 -13.23,-120.42 l 0.27,-8.73 c 4.41,-179.91 98.1,-318.4209 208.98,-309.0609 110.88,9.36 197.1,163.1709 192.6,343.0809 -0.81,33.84 -4.59,66.33 -11.25,96.48 200.61,39.33 416.16,138.87 693,298.71 -54.63,-100.53 -103.59,-190.98 -150.12,-277.29 -73.35,-56.88 -149.67,-130.86 -305.73,-210.96 107.19,27.9 184.23,59.94 244.08,95.94 -473.4,-881.4429 -511.83,-998.5509 -674.1,-1379.52092 z m 54.09,1783.80092 49.32,-12.15 -6.03,581.85 -50.04,8.46 z m 131.13,173.7 43.29,-19.08 -5.58,417.24 -41.67,8.55 z m -8.1,-150.48 35.1,-28.17 28.35,31.95 -35.1,28.89 z m 132.21,142.83 49.23,-9.9 -0.99,87.21 c 0,3.78 28.35,-97.47 158.49,-95.22 126.27,0.72 145.62,97.92 144.54,119.7 l -2.79,306.72 -43.2,9.27 4.05,-302.94 c 0.63,-8.82 -18.45,-83.61 -107.73,-83.88 -89.28,-0.27 -152.01,64.44 -152.46,105.75 l -3.15,266.85 -50.04,12.96 z m 777.24,410.76 -49.32,9.9 1.08,-87.21 c 0,-3.69 -28.44,97.47 -158.49,95.22 -126.27,-0.72 -145.62,-97.92 -144.63,-119.7 l 2.88,-306.72 52.29,-10.44 -3.51,302.94 c -0.09,8.28 8.82,84.87 98.1,85.14 89.19,0.27 152.55,-53.46 154.08,-134.28 l 2.79,-239.04 48.78,-12.33 z m 102.15,-414.18 -34.83,26.82 129.69,171.81 -143.73,198.54 36.18,26.91 135.09,-184.32 134.01,188.73 34.2,-26.82 -143.64,-201.78 119.16,-163.17 -35.46,-30.24 -108.63,151.02 z m 355.23,387.36 v -37.17 h -13.77 v -4.95 h 33.12 v 4.95 h -13.77 v 37.17 z m 25.11,0 v -42.12 h 8.37 l 9.81,29.79 c 0.99,2.79 1.62,4.86 1.98,6.21 0.54,-1.53 1.26,-3.69 2.34,-6.66 l 9.9,-29.34 h 7.47 v 42.12 h -5.31 v -35.19 l -12.15,35.19 h -4.95 l -12.15,-35.91 v 35.91 z m -702.36,-707.85 v -37.08 h -13.77 v -4.95 h 33.12 v 4.95 h -13.86 v 37.08 z m 22.23,0 v -42.03 h 8.28 l 9.9,29.79 c 0.9,2.79 1.53,4.86 1.98,6.21 0.45,-1.53 1.26,-3.69 2.25,-6.66 l 9.99,-29.34 h 7.38 v 42.03 h -5.22 v -35.19 l -12.24,35.19 h -4.95 l -12.06,-35.82 v 35.82 z"
       style="fill:#1793d1;stroke-width:9"
       inkscape:connector-curvature="0" />
    <path
       id="path4"
       d="m 2402.0805,2805.1566 c -62.361,-0.09 -114.12,12.69 -134.127,19.71 l -20.6028,111.24 c -0.09,0.36 102.537,-27.36 147.717,-25.74 74.817,2.7 81.702,28.62 80.397,63.54 1.278,2.07 -19.305,-31.59 -84.024,-32.76 -81.657,-1.35 -196.902,28.98 -196.74,152.19 -2.205,138.69 103.563,179.46 175.59,180.18 64.764,-1.17 95.139,-24.48 111.771,-36.99 21.852,-22.86 46.854,-45.81 70.695,-73.44 -22.554,41.04 -42.12,69.39 -62.478,91.08 v 18.27 l 98.433,-16.56 0.675,-267.57 c -0.999,-37.89 21.726,-182.79 -187.308,-183.15 z m -14.148,233.01 c 40.806,0.54 87.597,20.61 87.669,69.03 0.207,44.1 -55.161,67.77 -91.17,67.32 -36.018,-0.36 -83.817,-28.26 -84.024,-71.19 0.693,-38.34 45.072,-66.15 87.525,-65.16 z m 266.364,-208.26 -0.666,443.07 114.678,-22.05 0.189,-251.28 c 0,-37.35 53.46,-81.09 120.501,-80.37 14.229,-25.74 40.977,-91.53 47.493,-106.56 -149.778,-0.36 -151.677,43.11 -177.732,64.44 -0.27,-40.77 -0.09,-65.16 -0.09,-65.16 z m 645.372,58.14 c -1.08,-0.45 -59.76,-68.67 -177.84,-69.21 -110.52,-1.8 -234.504,41.04 -236.493,226.44 0.972,162.9 119.106,226.62 237.123,227.88 126.36,1.26 176.58,-79.02 179.64,-81 -15.12,-13.05 -71.55,-69.03 -71.55,-69.03 0,0 -35.28,50.22 -103.68,50.85 -68.427,0.72 -127.899,-52.83 -128.745,-127.53 -0.882,-74.7 54.675,-115.2 129.285,-118.44 64.53,0 101.79,41.67 101.79,41.67 z m 144.54,-213.21 -108.27,25.47 0.81,577.17 106.65,-19.26 1.26,-271.62 c 0.18,-28.53 41.13,-72.27 109.62,-70.83 65.34,0.63 80.01,43.56 79.83,48.96 l 1.89,314.46 105.12,-18.54 0.45,-333.45 c 0.63,-32.13 -70.29,-99.81 -184.41,-100.35 -54.18,0.09 -84.24,12.42 -99.45,21.42 -26.19,20.16 -56.07,39.51 -85.41,64.26 27.18,-34.92 49.95,-58.95 72.18,-76.95 z"
       style="fill:#4d4d4d;stroke-width:9"
       inkscape:connector-curvature="0" />
  </g>
</svg>
