<?xml version="1.0" encoding="UTF-8" standalone="no"?>
<svg
   xmlns:xapRights="http://ns.adobe.com/xap/1.0/rights/"
   xmlns:x="adobe:ns:meta/"
   xmlns:dc="http://purl.org/dc/elements/1.1/"
   xmlns:cc="http://creativecommons.org/ns#"
   xmlns:rdf="http://www.w3.org/1999/02/22-rdf-syntax-ns#"
   xmlns:svg="http://www.w3.org/2000/svg"
   xmlns="http://www.w3.org/2000/svg"
   xmlns:xlink="http://www.w3.org/1999/xlink"
   xmlns:sodipodi="http://sodipodi.sourceforge.net/DTD/sodipodi-0.dtd"
   xmlns:inkscape="http://www.inkscape.org/namespaces/inkscape"
   version="1.1"
   width="3840px"
   height="2160px"
   id="svg34"
   sodipodi:docname="black-blue2.svg"
   inkscape:version="0.92.4 5da689c313, 2019-01-14">
  <sodipodi:namedview
     pagecolor="#ffffff"
     bordercolor="#666666"
     borderopacity="1"
     objecttolerance="10"
     gridtolerance="10"
     guidetolerance="10"
     inkscape:pageopacity="0"
     inkscape:pageshadow="2"
     inkscape:window-width="3840"
     inkscape:window-height="2098"
     id="namedview36"
     showgrid="false"
     inkscape:zoom="0.5"
     inkscape:cx="1286.9565"
     inkscape:cy="1080"
     inkscape:window-x="0"
     inkscape:window-y="0"
     inkscape:window-maximized="1"
     inkscape:current-layer="svg34" />
  <metadata
     id="metadata2">
<?xpacket begin="" id=""?>    <x:xmpmeta>
      <metadata>
        <rdf:RDF>
          <rdf:Description
             rdf:about="">
            <xapRights:Marked>True</xapRights:Marked>
          </rdf:Description>
          <rdf:Description
             rdf:about="">
            <xapRights:WebStatement
               rdf:resource="http://www.xmple.com/wallpaper/black-blue-gradient-linear-3840x2160-c2-000000-000080-a-270-f-14-image/" />
          </rdf:Description>
          <rdf:Description
             rdf:about="">
            <xapRights:UsageTerms>
              <rdf:Alt>
                <rdf:li
                   xml:lang="en">This work is licensed under a &lt;a rel=&quot;license&quot; href=&quot;http://creativecommons.org/licenses/by-nc-nd/4.0/&quot;&gt;Creative Commons Attribution-NonCommercial-NoDerivatives 4.0 International License&lt;/a&gt;.</rdf:li>
              </rdf:Alt>
            </xapRights:UsageTerms>
          </rdf:Description>
          <rdf:Description
             rdf:about="">
            <dc:title>
              <rdf:Alt>
                <rdf:li
                   xml:lang="en">black blue gradient linear navy 3840x2160 #000000 #000080 270°</rdf:li>
              </rdf:Alt>
            </dc:title>
          </rdf:Description>
          <rdf:Description
             rdf:about="">
            <cc:license
               rdf:resource="http://creativecommons.org/licenses/by-nc-nd/4.0/" />
          </rdf:Description>
          <rdf:Description
             rdf:about="">
            <cc:attributionName>xmple.com</cc:attributionName>
          </rdf:Description>
          <rdf:Description
             rdf:about="">
            <cc:morePermissions
               rdf:resource="http://www.xmple.com" />
          </rdf:Description>
          <cc:Work
             rdf:about="">
            <dc:format>image/svg+xml</dc:format>
            <dc:type
               rdf:resource="http://purl.org/dc/dcmitype/StillImage" />
            <dc:title>black blue gradient linear navy 3840x2160 #000000 #000080 270°</dc:title>
          </cc:Work>
        </rdf:RDF>
      </metadata>
    </x:xmpmeta>
<?xpacket end="r"?>  </metadata>
  <title
     id="title4">black blue gradient linear navy 3840x2160 #000000 #000080 270°</title>
  <desc
     id="desc6">black blue gradient linear navy 3840x2160 #000000 #000080 270°</desc>
  <style
     type="text/css"
     id="style8"><![CDATA[.x{font:20px verdana;fill:#fff;stroke:#555;stroke-width:20px;opacity:0.35;}.o{stroke:none;opacity:0.01;}]]></style>
  <defs
     id="defs15">
    <linearGradient
       inkscape:collect="always"
       id="linearGradient2277">
      <stop
         style="stop-color:#678eb0;stop-opacity:1;"
         offset="0"
         id="stop2273" />
      <stop
         style="stop-color:#678eb0;stop-opacity:0;"
         offset="1"
         id="stop2275" />
    </linearGradient>
    <linearGradient
       id="p1"
       x1="0%"
       y1="100%"
       x2="0%"
       y2="0%">
      <stop
         offset="0%"
         style="stop-color:#000000;stop-opacity:1"
         id="stop10" />
      <stop
         offset="100%"
         style="stop-color:#000080;stop-opacity:1"
         id="stop12" />
    </linearGradient>
    <radialGradient
       inkscape:collect="always"
       xlink:href="#linearGradient2277"
       id="radialGradient2279"
       cx="1920"
       cy="1080"
       fx="1920"
       fy="1080"
       r="1920"
       gradientTransform="matrix(1,0,0,0.5625,0,472.5)"
       gradientUnits="userSpaceOnUse" />
  </defs>
  <rect
     width="3840"
     height="2160"
     x="0"
     y="0"
     fill="#000000"
     id="rect17" />
  <rect
     width="3840"
     height="2160"
     x="0"
     y="0"
     fill="url(#p1)"
     id="rect19"
     style="fill-opacity:1;fill:url(#radialGradient2279);opacity:1" />
  <path
     class="x o"
     d="M5 5h2v1H6v1h1v1H5zM4 3h4v1h1v5H8v1H4V9H3V4h1v5h4V4H4zm7 1h1v2h1V4h1v2h-1v1h1v2h-1V7h-1v2h-1V7h1V6h-1zm4 0h5v5h-1V5h-1v4h-1V5h-1v4h-1zm6 0h3l-1 1h-1v3h1V5l1-1v5h-2v2h-1zm4-2h1v6h1v1h-2zm3 2h3l-1 1h-1v1h1V5l1-1v3h-2v1h2v1h-3V4zm4 4h1v1h-1zm2-4h3v1h-2v3h2v1h-3zm4 0h3v5h-3l1-1h1V5h-1v3l-1 1zm4 0h5v5h-1V5h-1v4h-1V5h-1v4h-1z"
     id="path21" />
  <text
     x="4"
     y="2154"
     class="x o"
     id="text23">© xmple.com</text>
  <a
     xlink:href="https://www.xmple.com"
     id="a27">
    <text
       text-anchor="end"
       x="3830"
       y="22"
       class="x o"
       id="text25">xmple.com</text>
  </a>
  <path
     inkscape:connector-curvature="0"
     style="fill:#1793d1;stroke-width:4"
     d="m 3017.1517,1014.649 c -35.08,85.944 -56.24,142.236 -95.28,225.624 23.96,25.368 53.32,54.764 101,88.128 -51.28,-21.104 -86.2,-42.14 -112.36,-64.128 -49.96,104.228 -128.32,252.552 -287.124,537.8804 124.804,-72.0404 221.604,-116.4004 311.764,-133.3604 -3.88,-16.64 -6.04,-34.72 -5.88,-53.52 l 0.12,-3.88 c 1.96,-79.96 43.6,-141.52 92.88,-137.36 49.28,4.16 87.6,72.52 85.6,152.48 -0.36,15.04 -2.04,29.48 -5,42.88 89.16,17.48 184.96,61.72 308,132.7604 -24.28,-44.68 -46.04,-84.8804 -66.72,-123.2404 -32.6,-25.28 -66.52,-58.16 -135.88,-93.76 47.64,12.4 81.88,26.64 108.48,42.64 -210.4,-391.752 -227.48,-443.8 -299.6,-613.12 z m 24.04,792.8004 21.92,-5.4 -2.68,258.6 -22.24,3.76 z m 58.28,77.2 19.24,-8.48 -2.48,185.44 -18.52,3.8 z m -3.6,-66.88 15.6,-12.52 12.6,14.2 -15.6,12.84 z m 58.76,63.48 21.88,-4.4 -0.44,38.76 c 0,1.68 12.6,-43.32 70.44,-42.32 56.12,0.32 64.72,43.52 64.24,53.2 l -1.24,136.32 -19.2,4.12 1.8,-134.64 c 0.28,-3.92 -8.2,-37.16 -47.88,-37.28 -39.68,-0.12 -67.56,28.64 -67.76,47 l -1.4,118.6 -22.24,5.76 z m 345.44,182.56 -21.92,4.4 0.48,-38.76 c 0,-1.64 -12.64,43.32 -70.44,42.32 -56.12,-0.32 -64.72,-43.52 -64.28,-53.2 l 1.28,-136.32 23.24,-4.64 -1.56,134.64 c -0.04,3.68 3.92,37.72 43.6,37.84 39.64,0.12 67.8,-23.76 68.48,-59.68 l 1.24,-106.24 21.68,-5.48 z m 45.4,-184.08 -15.48,11.92 57.64,76.36 -63.88,88.24 16.08,11.96 60.04,-81.92 59.56,83.88 15.2,-11.92 -63.84,-89.68 52.96,-72.52 -15.76,-13.44 -48.28,67.12 z m 157.88,172.16 v -16.52 h -6.12 v -2.2 h 14.72 v 2.2 h -6.12 v 16.52 z m 11.16,0 v -18.72 h 3.72 l 4.36,13.24 c 0.44,1.24 0.72,2.16 0.88,2.76 0.24,-0.68 0.56,-1.64 1.04,-2.96 l 4.4,-13.04 h 3.32 v 18.72 h -2.36 v -15.64 l -5.4,15.64 h -2.2 l -5.4,-15.96 v 15.96 z m -312.16,-314.6004 v -16.48 h -6.12 v -2.2 h 14.72 v 2.2 h -6.16 v 16.48 z m 9.88,0 v -18.68 h 3.68 l 4.4,13.24 c 0.4,1.24 0.68,2.16 0.88,2.76 0.2,-0.68 0.56,-1.64 1,-2.96 l 4.44,-13.04 h 3.28 v 18.68 h -2.32 v -15.64 l -5.44,15.64 h -2.2 l -5.36,-15.92 v 15.92 z"
     id="path2" />
  <path
     inkscape:connector-curvature="0"
     style="fill:#4d4d4d;stroke-width:4"
     d="m 2405.3437,1858.7446 c -27.716,-0.04 -50.72,5.64 -59.612,8.76 l -9.1568,49.44 c -0.04,0.16 45.572,-12.16 65.652,-11.44 33.252,1.2 36.312,12.72 35.732,28.24 0.568,0.92 -8.58,-14.04 -37.344,-14.56 -36.292,-0.6 -87.512,12.88 -87.44,67.64 -0.9804,61.64 46.028,79.76 78.04,80.08 28.784,-0.52 42.284,-10.88 49.676,-16.44 9.712,-10.16 20.824,-20.36 31.42,-32.64 -10.024,18.24 -18.72,30.84 -27.768,40.48 v 8.12 l 43.748,-7.36 0.3,-118.92 c -0.444,-16.84 9.656,-81.24 -83.248,-81.4 z m -6.288,103.56 c 18.136,0.24 38.932,9.16 38.964,30.68 0.092,19.6 -24.516,30.12 -40.52,29.92 -16.008,-0.16 -37.252,-12.56 -37.344,-31.64 0.308,-17.04 20.032,-29.4 38.9,-28.96 z m 118.384,-92.56 -0.296,196.92 50.968,-9.8 0.084,-111.68 c 0,-16.6 23.76,-36.04 53.556,-35.72 6.324,-11.44 18.212,-40.68 21.108,-47.36 -66.568,-0.16 -67.412,19.16 -78.992,28.64 -0.12,-18.12 -0.04,-28.96 -0.04,-28.96 z m 286.832,25.84 c -0.48,-0.2 -26.56,-30.52 -79.04,-30.76 -49.12,-0.8 -104.224,18.24 -105.108,100.64 0.432,72.4 52.936,100.72 105.388,101.28 56.16,0.56 78.48,-35.12 79.84,-36 -6.72,-5.8 -31.8,-30.68 -31.8,-30.68 0,0 -15.68,22.32 -46.08,22.6 -30.412,0.32 -56.844,-23.48 -57.22,-56.68 -0.392,-33.2 24.3,-51.2 57.46,-52.64 28.68,0 45.24,18.52 45.24,18.52 z m 64.24,-94.76 -48.12,11.32 0.36,256.52 47.4,-8.56 0.56,-120.72 c 0.08,-12.68 18.28,-32.12 48.72,-31.48 29.04,0.28 35.56,19.36 35.48,21.76 l 0.84,139.76 46.72,-8.24 0.2,-148.2 c 0.28,-14.28 -31.24,-44.36 -81.96,-44.6 -24.08,0.04 -37.44,5.52 -44.2,9.52 -11.64,8.96 -24.92,17.56 -37.96,28.56 12.08,-15.52 22.2,-26.2 32.08,-34.2 z"
     id="path4" />
</svg>
