<?xml version="1.0" encoding="UTF-8" standalone="no"?>
<svg
   version="1.1"
   width="7680"
   height="4320"
   id="svg36"
   sodipodi:docname="arch-tux8k.svg"
   inkscape:version="1.2.1 (9c6d41e410, 2022-07-14)"
   xmlns:inkscape="http://www.inkscape.org/namespaces/inkscape"
   xmlns:sodipodi="http://sodipodi.sourceforge.net/DTD/sodipodi-0.dtd"
   xmlns:xlink="http://www.w3.org/1999/xlink"
   xmlns="http://www.w3.org/2000/svg"
   xmlns:svg="http://www.w3.org/2000/svg"
   xmlns:rdf="http://www.w3.org/1999/02/22-rdf-syntax-ns#"
   xmlns:cc="http://creativecommons.org/ns#"
   xmlns:dc="http://purl.org/dc/elements/1.1/"
   xmlns:x="adobe:ns:meta/"
   xmlns:xapRights="http://ns.adobe.com/xap/1.0/rights/">
  <sodipodi:namedview
     pagecolor="#ffffff"
     bordercolor="#666666"
     borderopacity="1"
     objecttolerance="10"
     gridtolerance="10"
     guidetolerance="10"
     inkscape:pageopacity="0"
     inkscape:pageshadow="2"
     inkscape:window-width="2823"
     inkscape:window-height="1442"
     id="namedview38"
     showgrid="false"
     inkscape:zoom="0.27916667"
     inkscape:cx="3840"
     inkscape:cy="2165.3731"
     inkscape:window-x="284"
     inkscape:window-y="1391"
     inkscape:window-maximized="0"
     inkscape:current-layer="svg36"
     inkscape:pagecheckerboard="0"
     inkscape:showpageshadow="2"
     inkscape:deskcolor="#d1d1d1" />
  <metadata
     id="metadata2">
<?xpacket begin="" id=""?>    <x:xmpmeta>
      <metadata>
        <rdf:RDF>
          <rdf:Description
             rdf:about="">
            <xapRights:Marked>True</xapRights:Marked>
          </rdf:Description>
          <rdf:Description
             rdf:about="">
            <xapRights:WebStatement
               rdf:resource="http://www.xmple.com/wallpaper/linear-grey-black-gradient-highlight-3840x2160-c2-000000-2f4f4f-l-50-a-345-f-21-image/" />
          </rdf:Description>
          <rdf:Description
             rdf:about="">
            <xapRights:UsageTerms>
              <rdf:Alt>
                <rdf:li
                   xml:lang="en">This work is licensed under a &lt;a rel=&quot;license&quot; href=&quot;http://creativecommons.org/licenses/by-nc-nd/4.0/&quot;&gt;Creative Commons Attribution-NonCommercial-NoDerivatives 4.0 International License&lt;/a&gt;.</rdf:li>
              </rdf:Alt>
            </xapRights:UsageTerms>
          </rdf:Description>
          <rdf:Description
             rdf:about="">
            <dc:title>
              <rdf:Alt>
                <rdf:li
                   xml:lang="en">linear grey black gradient highlight dark slate gray 3840x2160 #000000 #2f4f4f 345째 50%</rdf:li>
              </rdf:Alt>
            </dc:title>
          </rdf:Description>
          <rdf:Description
             rdf:about="">
            <cc:license
               rdf:resource="http://creativecommons.org/licenses/by-nc-nd/4.0/" />
          </rdf:Description>
          <rdf:Description
             rdf:about="">
            <cc:attributionName>xmple.com</cc:attributionName>
          </rdf:Description>
          <rdf:Description
             rdf:about="">
            <cc:morePermissions
               rdf:resource="http://www.xmple.com" />
          </rdf:Description>
          <cc:Work
             rdf:about="">
            <dc:format>image/svg+xml</dc:format>
            <dc:type
               rdf:resource="http://purl.org/dc/dcmitype/StillImage" />
            <dc:title>linear grey black gradient highlight dark slate gray 3840x2160 #000000 #2f4f4f 345째 50%</dc:title>
          </cc:Work>
        </rdf:RDF>
      </metadata>
    </x:xmpmeta>
<?xpacket end="r"?>  </metadata>
  <title
     id="title4">linear grey black gradient highlight dark slate gray 3840x2160 #000000 #2f4f4f 345째 50%</title>
  <desc
     id="desc6">linear grey black gradient highlight dark slate gray 3840x2160 #000000 #2f4f4f 345째 50%</desc>
  <style
     type="text/css"
     id="style8"><![CDATA[.x{font:20px verdana;fill:#fff;stroke:#555;stroke-width:20px;opacity:0.35;}.o{stroke:none;opacity:0.01;}]]></style>
  <defs
     id="defs17">
    <linearGradient
       id="p1"
       x1="2880"
       y1="2125.95"
       x2="0"
       y2="754.05005"
       gradientTransform="scale(2.6666665,1.5)"
       gradientUnits="userSpaceOnUse">
      <stop
         offset="0%"
         style="stop-color:#000000;stop-opacity:1"
         id="stop10" />
      <stop
         offset="50%"
         style="stop-color:#2f4f4f;stop-opacity:1"
         id="stop12" />
      <stop
         offset="100%"
         style="stop-color:#000000;stop-opacity:1"
         id="stop14" />
    </linearGradient>
    <filter
       id="aq"
       x="-0.048737806"
       y="-0.078030481"
       width="1.0974756"
       height="1.156061">
      <feGaussianBlur
         stdDeviation="1.7617332"
         id="feGaussianBlur445" />
    </filter>
    <filter
       id="ap"
       x="-0.049973922"
       y="-0.046175863"
       width="1.0999478"
       height="1.0923517">
      <feGaussianBlur
         stdDeviation="1.3544881"
         id="feGaussianBlur442" />
    </filter>
    <filter
       id="ao"
       x="-0.07343149"
       y="-0.09397613"
       width="1.146863"
       height="1.1879523">
      <feGaussianBlur
         stdDeviation="2.6865112"
         id="feGaussianBlur439" />
    </filter>
    <radialGradient
       id="bd"
       cx="384.69"
       cy="444.47"
       r="57.139"
       gradientTransform="matrix(4.996,2.5572e-7,-2.52172e-7,4.9268,1914.6883,-274.86943)"
       gradientUnits="userSpaceOnUse">
      <stop
         stop-color="#ffb200"
         offset="0"
         id="stop432" />
      <stop
         stop-color="#ffb200"
         offset=".46517"
         id="stop434" />
      <stop
         stop-color="#f70"
         offset="1"
         id="stop436" />
    </radialGradient>
    <linearGradient
       id="al"
       x1="358.54999"
       x2="366.81"
       y1="391.26999"
       y2="382.48999"
       gradientUnits="userSpaceOnUse"
       xlink:href="#a" />
    <linearGradient
       id="a">
      <stop
         stop-color="#fff"
         offset="0"
         id="stop367" />
      <stop
         stop-color="#303030"
         offset="1"
         id="stop369" />
    </linearGradient>
    <linearGradient
       id="am"
       x1="368.04999"
       x2="375.64999"
       y1="349.72"
       y2="367.16"
       gradientTransform="translate(-0.33541,0.67082)"
       gradientUnits="userSpaceOnUse"
       xlink:href="#a" />
    <linearGradient
       id="ay"
       x1="353.31"
       x2="158.94"
       y1="309.59"
       y2="736.63"
       gradientUnits="userSpaceOnUse">
      <stop
         stop-color="#fff"
         offset="0"
         id="stop401" />
      <stop
         stop-color="#303030"
         offset="1"
         id="stop403" />
    </linearGradient>
    <filter
       id="bf"
       color-interpolation-filters="sRGB"
       x="-0.073318735"
       y="-0.038375964"
       width="1.1466375"
       height="1.0767519">
      <feGaussianBlur
         stdDeviation="2.06589"
         id="feGaussianBlur406" />
    </filter>
    <linearGradient
       id="ak"
       x1="355.85001"
       x2="346.88"
       y1="308.42001"
       y2="343.76999"
       gradientUnits="userSpaceOnUse">
      <stop
         stop-color="#fff"
         offset="0"
         id="stop386" />
      <stop
         stop-color="#fff"
         stop-opacity="0"
         offset="1"
         id="stop388" />
    </linearGradient>
    <linearGradient
       id="n"
       x1="266.5"
       x2="385.94"
       y1="327.94"
       y2="327.94"
       gradientUnits="userSpaceOnUse">
      <stop
         offset="0"
         id="stop394" />
      <stop
         stop-opacity="0"
         offset="1"
         id="stop396" />
    </linearGradient>
    <radialGradient
       id="bb"
       cx="323.84"
       cy="275.60001"
       r="79.438004"
       gradientTransform="matrix(-0.85631,0.0020298,-0.0020615,-0.86967,3861.4911,1459.7705)"
       gradientUnits="userSpaceOnUse"
       xlink:href="#an" />
    <linearGradient
       id="an">
      <stop
         stop-color="#fff"
         offset="0"
         id="stop350" />
      <stop
         offset="1"
         id="stop352" />
    </linearGradient>
    <filter
       id="bh"
       x="-0.029750871"
       y="-0.04557205"
       width="1.0595017"
       height="1.0911441">
      <feGaussianBlur
         stdDeviation="1.9694531"
         id="feGaussianBlur414" />
    </filter>
    <linearGradient
       id="aw"
       x1="300.69"
       x2="290.57999"
       y1="741.21002"
       y2="781"
       gradientUnits="userSpaceOnUse"
       xlink:href="#b" />
    <linearGradient
       id="b">
      <stop
         stop-color="#fff"
         offset="0"
         id="stop362" />
      <stop
         stop-color="#fff"
         stop-opacity="0"
         offset="1"
         id="stop364" />
    </linearGradient>
    <filter
       id="bk"
       x="-0.024335013"
       y="-0.030922143"
       width="1.04867"
       height="1.0618443">
      <feGaussianBlur
         stdDeviation="1.1495252"
         id="feGaussianBlur423" />
    </filter>
    <linearGradient
       id="av"
       x1="285.79001"
       x2="293.72"
       y1="740.53998"
       y2="775.69"
       gradientUnits="userSpaceOnUse"
       xlink:href="#b" />
    <filter
       id="bl"
       x="-0.023871028"
       y="-0.030332565"
       width="1.0477421"
       height="1.0606651">
      <feGaussianBlur
         stdDeviation="1.1276077"
         id="feGaussianBlur426" />
    </filter>
    <radialGradient
       id="ba"
       cx="272.32999"
       cy="723.58002"
       r="106.59"
       gradientTransform="matrix(-0.0162676,2.417,5.036,0.0338932,674.8803,2367.3704)"
       gradientUnits="userSpaceOnUse"
       xlink:href="#aj" />
    <linearGradient
       id="aj">
      <stop
         stop-color="#ffb200"
         offset="0"
         id="stop355" />
      <stop
         stop-color="#ffb200"
         offset=".53968"
         id="stop357" />
      <stop
         stop-color="#f70"
         offset="1"
         id="stop359" />
    </linearGradient>
    <radialGradient
       id="az"
       cx="272.32999"
       cy="723.58002"
       r="106.59"
       gradientTransform="matrix(0.0162676,2.417,-5.036,0.0338932,6998.6003,2364.6904)"
       gradientUnits="userSpaceOnUse"
       xlink:href="#aj" />
    <filter
       id="be"
       x="-0.073318746"
       y="-0.038375934"
       width="1.1466375"
       height="1.0767519">
      <feGaussianBlur
         stdDeviation="2.06589"
         id="feGaussianBlur391" />
    </filter>
    <linearGradient
       id="ax"
       x1="353.31"
       x2="158.94"
       y1="309.59"
       y2="736.63"
       gradientUnits="userSpaceOnUse"
       xlink:href="#a"
       gradientTransform="matrix(4.1052,0,0,3.89948,2196.3163,102.42377)" />
    <radialGradient
       id="bc"
       cx="454.20999"
       cy="269.19"
       r="69.515999"
       gradientTransform="matrix(-1.0711,0.08787,-0.045932,-0.55992,4211.2211,1351.3905)"
       gradientUnits="userSpaceOnUse"
       xlink:href="#an" />
    <filter
       id="bg"
       x="-0.024210394"
       y="-0.070170027"
       width="1.0484208"
       height="1.1403401">
      <feGaussianBlur
         stdDeviation="1.4025"
         id="feGaussianBlur411" />
    </filter>
    <filter
       id="ar"
       x="-0.15716077"
       y="-0.2195801"
       width="1.3143215"
       height="1.4419297">
      <feGaussianBlur
         stdDeviation="16.524804"
         id="feGaussianBlur448" />
    </filter>
    <filter
       id="bj"
       x="-0.041907908"
       y="-0.035221563"
       width="1.0838158"
       height="1.0704431">
      <feGaussianBlur
         stdDeviation="1.7909156"
         id="feGaussianBlur420" />
    </filter>
    <linearGradient
       id="o"
       x1="139.67999"
       x2="168.24001"
       y1="498.06"
       y2="530.01001"
       gradientUnits="userSpaceOnUse"
       xlink:href="#b" />
    <filter
       id="bi"
       x="-0.041907908"
       y="-0.035221563"
       width="1.0838158"
       height="1.0704431">
      <feGaussianBlur
         stdDeviation="1.7909156"
         id="feGaussianBlur417" />
    </filter>
    <linearGradient
       id="at"
       x1="379.82001"
       x2="380.91"
       y1="151.8"
       y2="372.76999"
       gradientUnits="userSpaceOnUse"
       xlink:href="#a" />
    <filter
       id="bm"
       x="-0.010143034"
       y="-0.014423109"
       width="1.0202861"
       height="1.0288462">
      <feGaussianBlur
         stdDeviation="1.8238021"
         id="feGaussianBlur429" />
    </filter>
    <linearGradient
       id="au"
       x1="443.98001"
       x2="443.03"
       y1="486.95001"
       y2="804.94"
       gradientTransform="matrix(4,0,0,3.92564,2297.7579,166.85537)"
       gradientUnits="userSpaceOnUse">
      <stop
         stop-color="#fff"
         offset="0"
         id="stop373" />
      <stop
         stop-color="#b3b3b3"
         offset=".47941"
         id="stop375" />
      <stop
         offset="1"
         id="stop377" />
    </linearGradient>
    <filter
       id="as"
       x="-0.051010827"
       y="-0.84026266"
       width="1.1020217"
       height="2.6805253">
      <feGaussianBlur
         stdDeviation="11.95715"
         id="feGaussianBlur451" />
    </filter>
    <linearGradient
       inkscape:collect="always"
       xlink:href="#ak"
       id="linearGradient776"
       gradientUnits="userSpaceOnUse"
       x1="355.85001"
       y1="308.42001"
       x2="346.88"
       y2="343.76999" />
    <linearGradient
       inkscape:collect="always"
       xlink:href="#n"
       id="linearGradient778"
       gradientUnits="userSpaceOnUse"
       x1="266.5"
       y1="327.94"
       x2="385.94"
       y2="327.94" />
    <linearGradient
       inkscape:collect="always"
       xlink:href="#b"
       id="linearGradient1253"
       gradientUnits="userSpaceOnUse"
       x1="139.67999"
       y1="498.06"
       x2="168.24001"
       y2="530.01001" />
    <linearGradient
       inkscape:collect="always"
       xlink:href="#ak"
       id="linearGradient1255"
       gradientUnits="userSpaceOnUse"
       x1="355.85001"
       y1="308.42001"
       x2="346.88"
       y2="343.76999"
       gradientTransform="matrix(4,0,0,4,2297.8003,136.97057)" />
    <linearGradient
       inkscape:collect="always"
       xlink:href="#n"
       id="linearGradient1257"
       gradientUnits="userSpaceOnUse"
       x1="266.5"
       y1="327.94"
       x2="385.94"
       y2="327.94" />
    <linearGradient
       inkscape:collect="always"
       xlink:href="#a"
       id="linearGradient1259"
       gradientUnits="userSpaceOnUse"
       x1="358.54999"
       y1="391.26999"
       x2="366.81"
       y2="382.48999"
       gradientTransform="matrix(4,0,0,4,2297.8003,136.97057)" />
    <linearGradient
       inkscape:collect="always"
       xlink:href="#a"
       id="linearGradient1261"
       gradientUnits="userSpaceOnUse"
       gradientTransform="matrix(4,0,0,4,2296.4587,139.65385)"
       x1="368.04999"
       y1="349.72"
       x2="375.64999"
       y2="367.16" />
  </defs>
  <rect
     width="7680"
     height="4320"
     x="0"
     y="0"
     id="rect21"
     style="fill:url(#p1);stroke-width:2" />
  <path
     transform="matrix(3.74032,0,0,4.3128,2403.312,-125.52939)"
     d="m 666.92,770.6 a 281.285,17.076304 0 1 1 -562.57,0 281.285,17.076304 0 1 1 562.57,0 z"
     filter="url(#as)"
     opacity="0.58915"
     id="path456" />
  <path
     d="m 2994.84,2300.9704 c 0,0 -98.712,25.4952 -181.108,83.704 -97.744,69.056 -156.236,58.944 -167.412,35.004 -17.7376,-37.996 9.5116,-134.388 208.504,-286.12 261.18,-199.148 290.676,-356.716 296.772,-592.04 6.0984,-235.308 222.2,-616.35995 687.68,-614.83995 465.48,-1.5216 681.6,379.54395 687.68,614.83995 6.0988,235.308 35.5936,392.876 296.772,592.04 198.992,151.728 226.24,248.124 208.504,286.12 -11.1752,23.938 -69.664,34.0504 -167.412,-35.004 -82.396,-58.212 -181.108,-83.704 -181.108,-83.704 22.8288,205.46 -162.844,875.12 -844.44,872.04 -681.6,3.044 -867.28,-666.6 -844.44,-872.04 z"
     stroke="#000000"
     stroke-width="4px"
     id="path458" />
  <path
     d="m 3072.8,2635.8504 c 2.4684,8.1408 4.3244,16.4856 7.1248,24.5 7.712,22.0692 16.6076,43.672 26.6248,64.752 10.0172,21.08 21.1848,41.652 33.3752,61.624 12.19,19.9728 25.3952,39.3776 39.6248,58.124 7.4768,9.8504 15.988,19.0128 24,28.5 151.024,104.908 358.156,179.096 636.24,178.124 267.952,0.9376 470,-68.012 619.52,-166.876 11.484,-13.0472 23.0536,-25.9872 33.5,-39.75 14.23,-18.7476 27.4348,-38.152 39.6248,-58.124 12.19,-19.972 23.3576,-40.544 33.3752,-61.624 10.0176,-21.08 18.9128,-42.68 26.6248,-64.752 1.9976,-5.7168 3.1724,-11.718 5,-17.5 -12.3444,13.0724 -24.5232,26.2528 -38,38.6248 -18.9952,17.438 -39.0408,34.1436 -60.124,50.124 -21.084,15.9812 -43.36,31.2188 -66.376,45.624 -23.0168,14.406 -46.832,28.0376 -71.624,40.752 -24.7936,12.7124 -50.46,24.4744 -76.876,35.3752 -26.4136,10.9008 -53.748,20.9048 -81.624,29.8752 -27.878,8.9704 -56.312,16.8284 -85.5,23.75 -29.186,6.9216 -59.036,12.8704 -89.376,17.6248 -30.338,4.7544 -61.168,8.406 -92.5,10.8752 -15.6668,1.2348 -31.4884,2.1092 -47.376,2.75 -15.8864,0.6412 -31.7884,1.0932 -47.876,1.1252 -16.0864,0.04 -32.1136,-0.3 -48,-0.8752 -15.8864,-0.5764 -31.708,-1.454 -47.376,-2.6248 -31.3336,-2.342 -62.164,-5.8688 -92.5,-10.5 -30.338,-4.6312 -60.188,-10.4468 -89.376,-17.25 -29.186,-6.8032 -57.872,-14.6428 -85.752,-23.5 -27.878,-8.8572 -54.96,-18.5816 -81.376,-29.3752 -26.4136,-10.7932 -52.08,-22.5132 -76.876,-35.1248 -24.7936,-12.612 -48.732,-26.1876 -71.752,-40.5 -23.0168,-14.3128 -45.04,-29.4796 -66.124,-45.376 -21.084,-15.8956 -41.256,-32.514 -60.248,-49.876 -17.0316,-15.5664 -32.7748,-31.8356 -48,-48.5 z"
     fill="#333333"
     stroke="#000000"
     stroke-width="4.1344px"
     id="path460" />
  <path
     d="m 4369.8,2967.4504 c 9.834,-13.9972 19.68,-27.9268 28.6256,-42.692 12.1856,-20.1124 23.562,-40.892 34.0008,-62.32 10.4388,-21.428 19.9224,-43.508 28.5008,-66.124 8.5784,-22.6144 16.2716,-45.76 22.8756,-69.436 6.604,-23.6756 12.1092,-47.892 16.6256,-72.5 4.5164,-24.608 8.0604,-49.66 10.3752,-75.08 2.3148,-25.4176 3.5,-51.188 3.5,-77.288 0,-26.1 -1.1852,-51.868 -3.5,-77.288 -2.3152,-25.4176 -5.8588,-50.468 -10.3752,-75.08 -4.5164,-24.612 -10.0212,-48.828 -16.6256,-72.5 -6.604,-23.6756 -14.2972,-46.82 -22.8756,-69.436 -8.5784,-22.6144 -18.062,-44.696 -28.5008,-66.124 -10.4388,-21.428 -21.8152,-42.208 -34.0008,-62.32 -12.1856,-20.1124 -25.182,-39.6004 -39.0012,-58.272 -13.8192,-18.6712 -28.4124,-36.5064 -43.752,-53.608 -15.3388,-17.1032 -31.3816,-33.4164 -48.128,-48.824 -16.7448,-15.4088 -34.214,-29.9624 -52.252,-43.552 -18.0372,-13.5876 -36.6604,-26.2672 -55.876,-37.9072 -19.2156,-11.64 -38.9704,-22.208 -59.252,-31.7732 -20.2812,-9.5652 -41.144,-18.0304 -62.376,-25.394 -21.2328,-7.364 -42.932,-13.6108 -65,-18.6468 -22.0708,-5.036 -44.456,-8.9504 -67.252,-11.5316 -11.3976,-1.2904 -22.9436,-2.168 -34.5008,-2.8216 -11.5572,-0.6532 -23.1728,-1.104 -34.876,-1.104 -11.7032,0 -23.3184,0.4508 -34.876,1.104 -11.5576,0.6536 -23.1032,1.5312 -34.5008,2.8216 -22.7952,2.5816 -45.18,6.4956 -67.252,11.5316 -22.0708,5.036 -43.768,11.2832 -65,18.6468 -21.2328,7.364 -41.972,15.8288 -62.252,25.394 -20.2812,9.5652 -40.16,20.1336 -59.376,31.7732 -19.216,11.6396 -37.8392,24.3196 -55.876,37.9072 -18.0372,13.5876 -35.3816,28.1416 -52.128,43.552 -16.7448,15.4088 -32.9124,31.722 -48.252,48.824 -15.3388,17.1032 -29.932,34.9384 -43.752,53.608 -13.8192,18.6712 -26.8152,38.1592 -39.0012,58.272 -12.1856,20.1124 -23.562,40.892 -34.0008,62.32 -10.4388,21.428 -19.9224,43.508 -28.5008,66.124 -8.5784,22.6144 -16.2716,45.76 -22.8756,69.436 -6.604,23.6756 -12.1092,47.892 -16.6256,72.5 -4.5164,24.608 -7.9352,49.66 -10.2504,75.08 -2.3148,25.4176 -3.5,51.188 -3.5,77.288 0,26.1 1.1852,51.868 3.5,77.288 2.3152,25.4176 5.734,50.468 10.2504,75.08 4.5164,24.612 10.0212,48.828 16.6256,72.5 6.604,23.6756 14.2972,46.82 22.8756,69.436 8.5784,22.6144 18.062,44.696 28.5008,66.124 10.4388,21.428 21.8152,42.208 34.0008,62.32 6.4024,10.5672 13.6396,20.3688 20.5008,30.5464 129.328,112.544 306.748,192.172 544.88,191.132 229.456,1.0056 402.48,-72.928 530.52,-178.984 z"
     fill="url(#au)"
     stroke="#000000"
     stroke-width="3.96272px"
     id="path462"
     style="fill:url(#au)" />
  <g
     fill="#1793d1"
     id="g8"
     transform="translate(3969.5993,2170.4693)">
    <path
       d="m 127.98,12.07 c -10.316,25.309 -16.543,41.855 -28.031,66.41 7.043,7.4609 15.691,16.156 29.734,25.977 C 114.585,98.25 104.288,92.012 96.589,85.539 81.886,116.219 58.847,159.93 12.097,243.929 48.843,222.71 77.327,209.636 103.87,204.64 c -1.1406,-4.8945 -1.7852,-10.195 -1.7422,-15.734 l 0.043,-1.1719 c 0.58203,-23.551 12.828,-41.645 27.336,-40.418 14.508,1.2266 25.781,21.316 25.199,44.867 -0.10938,4.4219 -0.60938,8.6914 -1.4805,12.641 26.258,5.1328 54.438,18.18 90.684,39.105 -7.1484,-13.156 -13.527,-25.016 -19.621,-36.316 -9.5938,-7.4336 -19.605,-17.117 -40.023,-27.594 14.035,3.6406 24.082,7.8516 31.914,12.555 -61.941,-115.32 -66.957,-130.66 -88.199,-180.5 z"
       fill-rule="evenodd"
       id="path2" />
    <path
       d="m 235.17,210.61 v -5.832 h -2.1758 v -0.78125 h 5.2383 v 0.78125 h -2.1875 v 5.832 h -0.875"
       id="path4" />
    <path
       d="m 239.14,210.61 v -6.6133 h 1.3164 l 1.5664,4.6836 c 0.14453,0.43359 0.24609,0.76172 0.3125,0.97656 0.0781,-0.23828 0.19531,-0.59375 0.35156,-1.0586 l 1.5859,-4.6016 h 1.1758 v 6.6133 h -0.84375 v -5.5352 l -1.9219,5.5352 h -0.78906 l -1.9102,-5.6289 v 5.6289 h -0.84375"
       id="path6" />
  </g>
  <path
     transform="matrix(2.26568,0,0,2.50436,2961.6,687.41045)"
     d="m 597.8,252.24 a 215.77,151.74 0 1 1 -431.54,0 215.77,151.74 0 1 1 431.54,0 z"
     fill="url(#at)"
     filter="url(#bm)"
     opacity="0.8"
     id="path464"
     style="fill:url(#at)" />
  <g
     filter="url(#bi)"
     opacity="0.8"
     id="g470"
     transform="matrix(4,0,0,4,2297.8,136.97061)">
    <path
       d="m 191.01,451.72 c 0,0 -27.617,35.427 -48.825,48.677 -21.89,13.675 -50.228,45.921 -52.007,54.63 -1.363,6.6762 -3.4328,13.144 0.76096,15.362 4.4204,2.3384 6.9405,-3.6168 9.0326,-6.7992 2.0921,-3.1824 18.902,-26.961 48.8,-45.425 28.348,-17.507 32.484,-31.234 32.484,-31.234 z"
       fill="url(#o)"
       id="path466"
       style="fill:url(#linearGradient1253)" />
    <path
       d="m 111.71,564.5 c 5.6921,-2.6089 19.174,-9.5276 23.954,-13.756 6.1664,-5.4549 34.663,-16.598 38.421,-15.653 0.71151,2.1345 0.23717,3.3204 0.23717,5.6921 0,0 -24.903,8.3009 -32.967,13.993 -7.7504,5.4709 -29.883,19.211 -34.271,18.974 -4.9806,0 -1.0673,-6.6408 4.6248,-9.2496 z"
       fill="#373737"
       id="path468" />
  </g>
  <g
     fill="#767676"
     opacity="0.25581"
     id="g476"
     transform="matrix(4,0,0,4,2297.8,136.97061)">
    <path
       d="m 383.44,752.31 c -6.2592,-0.0234 -12.381,-0.22903 -18.281,-0.75 -6.5053,-0.57438 -12.795,-1.459 -18.875,-2.5938 -6.08,-1.1348 -11.959,-2.539 -17.625,-4.1875 -5.666,-1.6485 -11.111,-3.5407 -16.375,-5.6562 -5.264,-2.1155 -10.346,-4.4328 -15.219,-6.9688 -4.873,-2.536 -9.5373,-5.2778 -14.031,-8.1875 -4.4937,-2.9097 -8.8113,-5.9819 -12.938,-9.2188 -4.1267,-3.2369 -8.0738,-6.6389 -11.844,-10.156 -1.6,-2.5447 -3.2881,-4.9829 -4.7812,-7.625 -2.8418,-5.0286 -5.5031,-10.237 -7.9375,-15.594 -2.4344,-5.3572 -4.6245,-10.877 -6.625,-16.531 -2.0005,-5.6542 -3.8036,-11.456 -5.3438,-17.375 -1.5401,-5.9195 -2.8218,-11.972 -3.875,-18.125 -1.0532,-6.1531 -1.8664,-12.395 -2.4062,-18.75 -0.53987,-6.355 -0.8125,-12.818 -0.8125,-19.344 0,-6.526 0.27263,-12.957 0.8125,-19.312 0.53987,-6.355 1.353,-12.628 2.4062,-18.781 1.0532,-6.1531 2.3349,-12.206 3.875,-18.125 1.5401,-5.9195 3.3432,-11.69 5.3438,-17.344 2.0005,-5.6542 4.1906,-11.174 6.625,-16.531 2.4344,-5.357 5.0957,-10.565 7.9375,-15.594 2.8418,-5.029 5.8711,-9.8943 9.0938,-14.562 3.2227,-4.6682 6.6416,-9.13 10.219,-13.406 3.5771,-4.2762 7.345,-8.3662 11.25,-12.219 3.905,-3.8528 7.9498,-7.4778 12.156,-10.875 4.2064,-3.3972 8.5499,-6.5585 13.031,-9.4688 4.4813,-2.9102 9.114,-5.5772 13.844,-7.9688 4.7298,-2.3915 9.5483,-4.5026 14.5,-6.3438 4.9517,-1.8412 10.009,-3.3971 15.156,-4.6562 5.1471,-1.2591 10.371,-2.2296 15.688,-2.875 2.5856,-0.31389 5.2221,-0.52561 7.8438,-0.6875 -0.1242,0.007 -0.25086,-0.007 -0.375,0 -2.8894,0.16331 -5.7756,0.36484 -8.625,0.6875 -5.6988,0.64533 -11.295,1.6473 -16.812,2.9062 -5.5177,1.259 -10.942,2.8153 -16.25,4.6562 -5.3082,1.841 -10.492,3.9525 -15.562,6.3438 -5.0703,2.3913 -10.04,5.0276 -14.844,7.9375 -4.804,2.9099 -9.4594,6.0718 -13.969,9.4688 -4.5093,3.3969 -8.845,7.0541 -13.031,10.906 -4.1862,3.8522 -8.2278,7.9117 -12.062,12.188 -3.8347,4.2758 -7.4827,8.7385 -10.938,13.406 -3.4548,4.6678 -6.7036,9.5344 -9.75,14.562 -3.0464,5.0281 -5.8903,10.237 -8.5,15.594 -2.6097,5.357 -4.9804,10.878 -7.125,16.531 -2.1446,5.6536 -4.0677,11.425 -5.7188,17.344 -1.651,5.9189 -3.0272,11.972 -4.1562,18.125 -1.129,6.153 -1.9838,12.427 -2.5625,18.781 -0.57874,6.3544 -0.875,12.788 -0.875,19.312 0,6.524 0.29626,12.989 0.875,19.344 0.57875,6.3544 1.4334,12.598 2.5625,18.75 1.1291,6.152 2.5052,12.206 4.1562,18.125 1.651,5.9189 3.5742,11.721 5.7188,17.375 2.1446,5.6536 4.5153,11.175 7.125,16.531 2.6097,5.356 5.4536,10.534 8.5,15.562 1.6006,2.6418 3.4098,5.1118 5.125,7.6562 31.97,27.821 75.748,47.532 134.28,47.719 z"
       id="path472" />
    <path
       d="m 392.94,402.5 c 2.6216,0.16189 5.2582,0.37361 7.8438,0.6875 5.316,0.64539 10.54,1.6159 15.688,2.875 5.1471,1.2591 10.205,2.8151 15.156,4.6562 4.9517,1.8411 9.8015,3.9522 14.531,6.3438 4.7298,2.3915 9.3312,5.0585 13.812,7.9688 4.4813,2.9102 8.8248,6.0715 13.031,9.4688 4.2064,3.3972 8.2825,7.0224 12.188,10.875 3.9055,3.8526 7.6416,7.9425 11.219,12.219 3.5771,4.2762 6.996,8.738 10.219,13.406 3.223,4.668 6.252,9.534 9.0938,14.562 2.8418,5.028 5.5031,10.237 7.9375,15.594 2.4344,5.3572 4.6245,10.877 6.625,16.531 2.0005,5.6542 3.8036,11.424 5.3438,17.344 1.5401,5.9195 2.8218,11.972 3.875,18.125 1.0532,6.1531 1.8976,12.426 2.4375,18.781 0.5399,6.355 0.8125,12.787 0.8125,19.312 0,6.525 -0.27263,12.989 -0.8125,19.344 -0.53987,6.3551 -1.3842,12.597 -2.4375,18.75 -1.0532,6.1531 -2.3349,12.206 -3.875,18.125 -1.5401,5.9195 -3.3432,11.721 -5.3438,17.375 -2.0005,5.6542 -4.1906,11.174 -6.625,16.531 -2.4344,5.3572 -5.0957,10.565 -7.9375,15.594 -2.0862,3.6915 -4.3941,7.1566 -6.6875,10.656 -3.7319,3.3146 -7.6224,6.5198 -11.688,9.5625 -4.0656,3.0427 -8.2787,5.9272 -12.688,8.6562 -4.4093,2.729 -9.0184,5.2828 -13.781,7.6562 -4.7626,2.3734 -9.6852,4.5551 -14.812,6.5312 -5.1268,1.9761 -10.435,3.7443 -15.938,5.2812 -5.503,1.5369 -11.206,2.8503 -17.094,3.9062 -5.888,1.0559 -11.967,1.8731 -18.25,2.4062 -6.2628,0.53147 -12.74,0.77946 -19.406,0.75 57.364,0.25141 100.62,-18.235 132.62,-44.75 2.4585,-3.4993 4.9198,-6.9963 7.1562,-10.688 3.0464,-5.0281 5.8903,-10.206 8.5,-15.562 2.6097,-5.356 4.9804,-10.878 7.125,-16.531 2.1446,-5.6536 4.0677,-11.456 5.7188,-17.375 1.651,-5.9189 3.0272,-11.972 4.1562,-18.125 1.129,-6.153 2.015,-12.396 2.5938,-18.75 0.57874,-6.3544 0.875,-12.819 0.875,-19.344 0,-6.525 -0.29626,-12.958 -0.875,-19.312 -0.57875,-6.3544 -1.4647,-12.629 -2.5938,-18.781 -1.1291,-6.152 -2.5052,-12.206 -4.1562,-18.125 -1.651,-5.9189 -3.5742,-11.69 -5.7188,-17.344 -2.1446,-5.6536 -4.5153,-11.175 -7.125,-16.531 -2.6097,-5.356 -5.4536,-10.566 -8.5,-15.594 -3.0464,-5.0281 -6.2952,-9.8947 -9.75,-14.562 -3.4548,-4.6678 -7.1028,-9.1304 -10.938,-13.406 -3.8347,-4.2758 -7.845,-8.3353 -12.031,-12.188 -4.1862,-3.8522 -8.5532,-7.5094 -13.062,-10.906 -4.5093,-3.3969 -9.1647,-6.5588 -13.969,-9.4688 -4.8043,-2.91 -9.7422,-5.5462 -14.812,-7.9375 -5.0703,-2.3913 -10.286,-4.5028 -15.594,-6.3438 -5.3082,-1.841 -10.732,-3.3973 -16.25,-4.6562 -5.5177,-1.259 -11.114,-2.2609 -16.812,-2.9062 -2.8494,-0.32266 -5.7356,-0.52419 -8.625,-0.6875 -0.12414,-0.007 -0.2508,0.007 -0.375,0 z"
       id="path474" />
  </g>
  <g
     transform="matrix(-4,0,0,4,5382.2,137.44493)"
     filter="url(#bj)"
     opacity="0.8"
     id="g482">
    <path
       d="m 191.01,451.72 c 0,0 -27.617,35.427 -48.825,48.677 -21.89,13.675 -50.228,45.921 -52.007,54.63 -1.363,6.6762 -3.4328,13.144 0.76096,15.362 4.4204,2.3384 6.9405,-3.6168 9.0326,-6.7992 2.0921,-3.1824 18.902,-26.961 48.8,-45.425 28.348,-17.507 32.484,-31.234 32.484,-31.234 z"
       fill="url(#o)"
       id="path478"
       style="fill:url(#o)" />
    <path
       d="m 111.71,564.5 c 5.6921,-2.6089 19.174,-9.5276 23.954,-13.756 6.1664,-5.4549 34.663,-16.598 38.421,-15.653 0.71151,2.1345 0.23717,3.3204 0.23717,5.6921 0,0 -24.903,8.3009 -32.967,13.993 -7.7504,5.4709 -29.883,19.211 -34.271,18.974 -4.9806,0 -1.0673,-6.6408 4.6248,-9.2496 z"
       fill="#373737"
       id="path480" />
  </g>
  <path
     d="m 3592.8,1221.4504 c -175.52,0 -317.876,164.836 -317.876,368.124 0,27.664 2.88,54.456 7.8752,80.376 2.854,-10.2428 5.9108,-20.2968 9.5,-30.1248 4.0204,-11.0092 8.4824,-21.8188 13.3752,-32.25 4.8928,-10.4312 10.2888,-20.4588 16,-30.25 5.7112,-9.7912 11.7732,-19.2856 18.25,-28.3752 6.4768,-9.0896 13.3112,-17.7988 20.5,-26.1248 7.1888,-8.326 14.7772,-16.2488 22.6248,-23.75 7.8476,-7.5012 15.9212,-14.6352 24.3752,-21.25 8.454,-6.6148 17.2436,-12.7084 26.25,-18.3752 9.0064,-5.6668 18.2444,-10.8436 27.75,-15.5 9.5056,-4.6564 19.2984,-8.79 29.25,-12.3752 9.9516,-3.5852 20.0308,-6.6732 30.3752,-9.1248 10.3444,-2.4516 20.9412,-4.3684 31.6248,-5.6248 10.6836,-1.2564 21.53,-1.8748 32.5,-1.8748 10.97,0 21.8164,0.6184 32.5,1.8748 10.6836,1.2568 21.1556,3.1736 31.5,5.6248 10.3444,2.4516 20.5484,5.54 30.5,9.1248 9.9516,3.5848 19.6196,7.7184 29.1248,12.3752 9.5052,4.6568 18.8688,9.8336 27.8752,15.5 9.0064,5.6664 17.6712,11.76 26.1248,18.3752 8.4536,6.6152 16.652,13.7488 24.5,21.25 7.848,7.5012 15.436,15.4236 22.6248,23.75 7.1888,8.3264 14.0232,17.0352 20.5,26.1248 6.4768,9.0896 12.5388,18.584 18.25,28.3752 5.7112,9.7912 10.9824,19.8188 15.8752,30.25 4.8928,10.4312 9.4796,21.2408 13.5,32.25 4.0204,11.0092 7.5296,22.224 10.6248,33.75 2.5468,9.484 4.6124,19.2044 6.5,29 9.9312,-35.6464 15.3752,-73.528 15.3752,-113 0,-203.288 -142.228,-368.124 -317.752,-368.124 z"
     id="path484"
     style="stroke-width:4" />
  <path
     d="m 4090.8,1312.6104 c -186.524,0 -337.752,164.712 -337.752,368 0,27.9736 3.0756,55.188 8.5,81.376 3.0984,-10.5588 6.5724,-21.0048 10.5,-31.1248 4.2724,-11.0092 9.0508,-21.694 14.25,-32.1248 5.1992,-10.4308 10.8056,-20.584 16.8752,-30.3752 6.0696,-9.7912 12.4924,-19.2856 19.3752,-28.3752 6.8828,-9.0896 14.2352,-17.7988 21.8752,-26.1248 7.64,-8.326 15.66,-16.2488 24,-23.75 8.34,-7.5012 17.0164,-14.5104 26,-21.1248 8.9836,-6.6144 18.1792,-12.8336 27.75,-18.5 9.5708,-5.6664 19.5236,-10.8436 29.6248,-15.5 10.1012,-4.6564 20.4248,-8.79 31,-12.3752 10.5752,-3.5852 21.3824,-6.5484 32.3752,-9 10.9928,-2.4516 22.1464,-4.3684 33.5,-5.6248 11.3536,-1.2564 22.8424,-1.8748 34.5,-1.8748 11.6576,0 23.2716,0.6184 34.6248,1.8748 11.3532,1.2568 22.5072,3.1736 33.5,5.6248 10.9928,2.4516 21.7996,5.4152 32.3752,9 10.5756,3.5848 20.8988,7.7184 31,12.3752 10.1012,4.6568 19.9292,9.8336 29.5,15.5 9.5708,5.6664 18.8912,11.8852 27.8752,18.5 8.984,6.6148 17.66,13.6236 26,21.1248 8.34,7.5012 16.3604,15.4236 24,23.75 7.6396,8.3264 14.8672,17.0352 21.75,26.1248 6.8828,9.0896 13.4308,18.584 19.5,28.3752 6.0692,9.7912 11.676,19.944 16.8752,30.3752 5.1992,10.4312 9.9776,21.1156 14.25,32.1248 4.2724,11.0092 8.0856,22.3492 11.3752,33.8752 2.6252,9.1992 4.6584,18.632 6.6248,28.1248 10.3852,-35.388 16.1248,-73.108 16.1248,-112.248 0,-203.288 -151.228,-368 -337.752,-368 z"
     id="path486"
     style="stroke-width:4" />
  <g
     transform="matrix(4,0,0,4,2295.9028,121.79181)"
     filter="url(#ar)"
     opacity="0.58915"
     id="g494">
    <path
       d="m 331.71,432.89 c -9.9106,7.1514 -4.6076,16.712 0.80713,23.406 5.41473,6.694 36.589,41.432 36.589,41.432 0,0 4.8427,7.8021 14.17,8.0712 9.3274,-0.26904 14.17,-8.0712 14.17,-8.0712 0,0 31.175,-34.738 36.589,-41.432 5.414,-6.694 9.1035,-16.793 -0.8071,-23.944 -9.9106,-7.1514 -32.285,-14.797 -49.952,-15.066 -17.668,0.26904 -41.656,8.4529 -51.567,15.604 z"
       stroke="#000000"
       stroke-width="1px"
       id="path488" />
    <path
       transform="matrix(1.1872,0,0,1.0772,-23.173,-52.785)"
       d="m 346.74,416.27 c 0,32.222 -23.254,58.344 -51.94,58.344 -28.686,0 -51.94,-26.121 -51.94,-58.344 0,-32.222 23.254,-58.344 51.94,-58.344 28.686,0 51.94,26.121 51.94,58.344 z"
       id="path490" />
    <path
       transform="matrix(1.2968,0,0,1.0772,67.848,-60.374)"
       d="m 346.74,416.27 c 0,32.222 -23.254,58.344 -51.94,58.344 -28.686,0 -51.94,-26.121 -51.94,-58.344 0,-32.222 23.254,-58.344 51.94,-58.344 28.686,0 51.94,26.121 51.94,58.344 z"
       id="path492" />
  </g>
  <path
     d="m 3708.6411,1235.0905 c -26.101,0 -49.386,12.915 -64.875,33.188 2.3074,-1.7731 4.6806,-3.4902 7.1562,-5.0625 2.6029,-1.6531 5.2895,-3.1777 8.0625,-4.5938 2.773,-1.4161 5.6358,-2.7114 8.5625,-3.875 2.9267,-1.1636 5.936,-2.1979 9,-3.0938 3.064,-0.8959 6.1901,-1.6686 9.375,-2.2812 3.1849,-0.6126 6.4294,-1.061 9.7188,-1.375 3.2894,-0.314 6.6225,-0.5 10,-0.5 3.3775,0 6.7106,0.186 10,0.5 3.2894,0.314 6.5338,0.7624 9.7188,1.375 3.185,0.6126 6.311,1.3854 9.375,2.2812 3.064,0.8958 6.0733,1.9301 9,3.0938 2.9267,1.1637 5.7582,2.459 8.5312,3.875 2.773,1.416 5.4908,2.9407 8.0938,4.5938 2.603,1.6531 5.1148,3.4378 7.5312,5.3125 2.4164,1.8747 4.7239,3.8566 6.9375,5.9375 2.2136,2.0809 4.3182,4.2595 6.3125,6.5312 0.5843,0.6656 1.0917,1.3814 1.6562,2.0625 -14.327,-28.576 -42.168,-47.969 -74.156,-47.969 z"
     fill="url(#bc)"
     filter="url(#bg)"
     opacity="0.9"
     id="path496"
     style="fill:url(#bc)"
     transform="matrix(4,0,0,4,-10741.124,-3609.0316)" />
  <path
     d="m 3839.4632,1596.3144 c 0,163.0608 -106.2956,295.2492 -237.416,295.2492 -131.12,0 -237.416,-132.1884 -237.416,-295.2492 0,-163.0604 106.296,-295.2488 237.416,-295.2488 131.1204,0 237.416,132.1884 237.416,295.2488 z"
     fill="url(#ax)"
     stroke="#000000"
     id="path498"
     style="fill:url(#ax);stroke-width:4.001" />
  <path
     d="m 3571.5111,1366.2005 c 9.9433,0 19.066,-5.5451 26.206,-14.777 -0.1059,10e-4 -0.2081,0.028 -0.3141,0.028 -1.582,0 -3.1486,-0.1318 -4.6893,-0.3708 -1.5407,-0.2391 -3.063,-0.5892 -4.5547,-1.0555 -1.4917,-0.4664 -2.9625,-1.0582 -4.3976,-1.7401 -1.4351,-0.682 -2.8249,-1.4534 -4.1957,-2.3392 -1.3708,-0.8858 -2.7174,-1.8889 -4.0162,-2.9668 -1.2988,-1.0779 -2.5503,-2.2505 -3.7694,-3.5088 -1.2191,-1.2583 -2.4133,-2.5953 -3.545,-4.0223 -1.1317,-1.427 -2.2166,-2.9234 -3.2533,-4.5072 -1.0367,-1.5839 -2.0052,-3.2631 -2.9392,-4.9922 -0.934,-1.7291 -1.824,-3.5005 -2.6476,-5.3631 -0.8236,-1.8625 -1.583,-3.8067 -2.2886,-5.791 -0.7056,-1.9843 -1.3498,-4.0105 -1.9296,-6.1048 -0.5798,-2.0943 -1.1018,-4.2546 -1.5481,-6.4471 -0.4464,-2.1925 -0.8166,-4.4248 -1.1218,-6.7038 -0.3052,-2.279 -0.5391,-4.6067 -0.6956,-6.9606 -0.1564,-2.3539 -0.2468,-4.7433 -0.2468,-7.1603 0,-2.417 0.09,-4.8064 0.2468,-7.1603 0.1565,-2.3539 0.3903,-4.653 0.6956,-6.932 0.3052,-2.279 0.6755,-4.5398 1.1218,-6.7324 0.4463,-2.1925 0.9683,-4.3243 1.5481,-6.4186 0.5798,-2.0943 1.224,-4.149 1.9296,-6.1333 0.7056,-1.9843 1.465,-3.8999 2.2886,-5.7624 0.8071,-1.8253 1.6894,-3.5802 2.6027,-5.2775 -18.286,6.8104 -31.905,32.708 -31.905,63.701 0,36.181 18.535,65.498 41.418,65.498 z"
     fill="#a8a8a8"
     filter="url(#be)"
     opacity="0.27132"
     id="path500"
     transform="matrix(4,0,0,4,-10741.124,-3609.0316)" />
  <path
     d="m 3603.04,1306.7304 c -55.396,0 -106.216,24.2976 -146,64.752 0.5896,-0 1.1592,-0.124 1.75,-0.124 8.8136,0 17.5416,0.5776 26.1248,1.6252 8.5832,1.0476 17.0644,2.5816 25.3752,4.6248 8.3108,2.0432 16.5048,4.6368 24.5,7.6248 7.9952,2.988 15.7384,6.3688 23.3752,10.25 7.6368,3.8812 15.1392,8.2768 22.3752,13 7.236,4.7232 14.208,9.8612 21,15.3752 6.792,5.514 13.4448,11.3724 19.75,17.6248 6.3052,6.2524 12.3492,12.8096 18.1248,19.75 5.7756,6.9404 11.1716,14.2984 16.3752,21.8752 5.2036,7.5768 10.1616,15.3388 14.75,23.5 4.5884,8.1612 8.8192,16.6804 12.75,25.3752 3.9308,8.6948 7.52,17.5732 10.75,26.75 3.23,9.1768 6.1384,18.6428 8.6248,28.25 2.4864,9.6072 4.5496,19.3884 6.25,29.3752 1.7004,9.9868 3.0032,20.1856 3.8752,30.5 0.8716,10.3144 1.3748,20.7844 1.3748,31.3752 0,10.5908 -0.5032,21.0608 -1.3748,31.3752 -0.872,10.3144 -2.1748,20.3884 -3.8752,30.3752 -1.7004,9.9868 -3.7632,19.8928 -6.25,29.5 -2.4868,9.6072 -5.3948,18.9484 -8.6248,28.1248 -3.23,9.1764 -6.8192,18.1804 -10.75,26.8752 -3.9308,8.6948 -8.1616,17.0888 -12.75,25.25 -4.4968,7.9984 -9.412,15.688 -14.5,23.1248 101.876,-29.8424 177.752,-143.324 177.752,-279.124 0,-158.54 -103.264,-287 -230.752,-287 z"
     fill="url(#ak)"
     id="path502"
     style="fill:url(#linearGradient1255);stroke-width:4" />
  <g
     fill="#767676"
     opacity="0.34496"
     id="g508"
     transform="matrix(4,0,0,4,2297.8,136.97061)">
    <path
       d="m 385.44,364.84 c 0,2.3357 -0.10979,4.6315 -0.3125,6.9062 -0.20271,2.2747 -0.47953,4.5162 -0.875,6.7188 -0.39547,2.2026 -0.89047,4.3811 -1.4688,6.5 -0.57833,2.1189 -1.2489,4.1948 -2,6.2188 -0.7511,2.024 -1.5859,3.9886 -2.5,5.9062 -0.9141,1.9176 -1.9017,3.7625 -2.9688,5.5625 -1.0671,1.8 -2.2275,3.5478 -3.4375,5.2188 -1.21,1.671 -2.4694,3.2818 -3.8125,4.8125 -1.3431,1.5307 -2.7525,2.996 -4.2188,4.375 -1.4663,1.379 -2.9831,2.659 -4.5625,3.875 -1.5794,1.216 -3.2236,2.3645 -4.9062,3.4062 -1.6826,1.0417 -3.4116,1.9877 -5.1875,2.8438 -1.7759,0.8561 -3.6095,1.6222 -5.4688,2.2812 -1.8593,0.659 -3.7549,1.2056 -5.6875,1.6562 -1.9326,0.4506 -3.879,0.80023 -5.875,1.0312 -1.996,0.23097 -4.0442,0.34375 -6.0938,0.34375 -2.0496,0 -4.0665,-0.11273 -6.0625,-0.34375 -1.996,-0.23102 -3.9736,-0.58055 -5.9062,-1.0312 -1.9326,-0.45065 -3.8283,-0.99721 -5.6875,-1.6562 -1.8592,-0.65899 -3.6616,-1.4252 -5.4375,-2.2812 -1.7759,-0.856 -3.5049,-1.802 -5.1875,-2.8438 -1.6826,-1.0418 -3.3268,-2.1902 -4.9062,-3.4062 -1.5794,-1.216 -3.0963,-2.496 -4.5625,-3.875 -1.4662,-1.379 -2.8756,-2.8443 -4.2188,-4.375 -1.3432,-1.5307 -2.6337,-3.1415 -3.8438,-4.8125 -1.2101,-1.671 -2.3392,-3.4188 -3.4062,-5.2188 -1.067,-1.8 -2.0547,-3.6449 -2.9688,-5.5625 -0.9141,-1.9176 -1.7489,-3.8823 -2.5,-5.9062 -0.7511,-2.0239 -1.4217,-4.0999 -2,-6.2188 -0.5783,-2.1189 -1.0733,-4.2975 -1.4688,-6.5 -0.39186,-2.1824 -0.7036,-4.4028 -0.90625,-6.6562 2.8316,37.487 28.178,66.844 59.062,66.844 32.781,0 59.375,-33.047 59.375,-73.812 z"
       id="path504" />
    <path
       d="m 326.06,291.03 c -30.884,0 -56.23,29.326 -59.062,66.812 0.20265,-2.2534 0.51439,-4.4739 0.90625,-6.6562 0.39547,-2.2025 0.89047,-4.3499 1.4688,-6.4688 0.57833,-2.1189 1.2489,-4.1948 2,-6.2188 0.7511,-2.024 1.5859,-3.9886 2.5,-5.9062 0.9141,-1.9176 1.9017,-3.7938 2.9688,-5.5938 1.0671,-1.8 2.1962,-3.5478 3.4062,-5.2188 1.21,-1.671 2.5006,-3.2506 3.8438,-4.7812 1.3432,-1.5306 2.7525,-2.996 4.2188,-4.375 1.4663,-1.379 2.9831,-2.6902 4.5625,-3.9062 1.5794,-1.216 3.2236,-2.3333 4.9062,-3.375 1.6826,-1.0417 3.4116,-1.9877 5.1875,-2.8438 1.7759,-0.8561 3.5783,-1.6222 5.4375,-2.2812 1.8592,-0.659 3.7549,-1.2368 5.6875,-1.6875 1.9326,-0.4507 3.9102,-0.76898 5.9062,-1 1.996,-0.23102 4.013,-0.375 6.0625,-0.375 2.0495,0 4.0977,0.14398 6.0938,0.375 1.9961,0.23102 3.9424,0.5493 5.875,1 1.9326,0.4507 3.8283,1.0285 5.6875,1.6875 1.8592,0.659 3.6928,1.4252 5.4688,2.2812 1.776,0.856 3.5049,1.802 5.1875,2.8438 1.6826,1.0418 3.3268,2.159 4.9062,3.375 1.5794,1.216 3.0963,2.5272 4.5625,3.9062 1.4662,1.379 2.8756,2.8443 4.2188,4.375 1.3432,1.5307 2.6025,3.1103 3.8125,4.7812 1.21,1.6709 2.3705,3.4188 3.4375,5.2188 1.067,1.8 2.0547,3.6761 2.9688,5.5938 0.9141,1.9177 1.7489,3.8823 2.5,5.9062 0.7511,2.0239 1.4217,4.0999 2,6.2188 0.5783,2.1189 1.0733,4.2662 1.4688,6.4688 0.3955,2.2026 0.67229,4.444 0.875,6.7188 0.20271,2.2748 0.3125,4.6018 0.3125,6.9375 0,-40.766 -26.594,-73.812 -59.375,-73.812 z"
       stroke="url(#n)"
       stroke-width="1.0003"
       id="path506"
       style="stroke:url(#linearGradient1257)" />
  </g>
  <path
     d="m 3826.5916,1620.6208 c 0,58.7248 -29.4412,106.3312 -65.7584,106.3312 -36.3172,0 -65.7584,-47.6064 -65.7584,-106.3312 0,-58.7248 29.4412,-106.3312 65.7584,-106.3312 36.3172,0 65.7584,47.6064 65.7584,106.3312 z"
     stroke="#000000"
     id="path510"
     style="stroke-width:1.26365" />
  <path
     d="m 3700.68,1595.4504 c -1.0944,7.5708 -1.8748,15.3836 -1.8748,23.5 0,56.512 28.1204,102.376 62.752,102.376 18.8572,0 35.6304,-13.8744 47.124,-35.3752 -0.6464,0.4056 -1.2196,0.994 -1.8752,1.3752 -4.5832,2.6652 -9.3872,4.722 -14.3752,6.1248 -4.988,1.4028 -10.2104,2.1248 -15.5,2.1248 -5.2896,0 -10.3872,-0.7216 -15.3752,-2.1248 -4.988,-1.4032 -9.7916,-3.46 -14.3752,-6.1248 -4.5836,-2.6648 -8.9236,-5.964 -13,-9.75 -4.0764,-3.786 -7.9088,-8.1096 -11.3752,-12.8752 -3.4664,-4.7656 -6.6212,-10.0212 -9.3752,-15.6248 -2.754,-5.6036 -5.1864,-11.574 -7.1248,-17.8752 -1.9384,-6.3012 -3.3544,-12.8928 -4.3752,-19.75 -0.7684,-5.1636 -1.0528,-10.5912 -1.25,-16 z"
     fill="url(#al)"
     opacity="0.8"
     id="path512"
     style="fill:url(#linearGradient1259);stroke-width:4" />
  <path
     d="m 3761.28,1520.3704 c -5.8212,0 -11.3328,1.918 -16.7144,4.638 1.0168,1.184 2.2228,1.9624 3.2036,3.2468 3.5424,4.6384 6.7376,9.9296 9.75,15.7688 3.0124,5.8388 5.8248,12.3036 8.218,19.1696 2.3932,6.866 4.444,14.232 6.1284,21.9524 0.54,2.4744 0.7896,5.1944 1.2536,7.7296 1.3508,-0.4408 2.8568,-0.61 4.1784,-1.0824 7.2548,-2.5916 14.116,-5.6376 20.6144,-8.9664 5.9136,-3.0292 11.3912,-6.5136 16.5752,-10.0488 -12.134,-31.6276 -31.312,-52.408 -53.208,-52.408 z"
     fill="url(#am)"
     opacity="0.8"
     stroke="#000000"
     stroke-width="1.40088"
     id="path514"
     style="fill:url(#linearGradient1261)" />
  <path
     d="m 3376.12,2832.2504 c -97.992,1.0764 -374.68,24.7896 -433.68,234.6 -38.7416,137.748 79.036,163.576 100.084,163.576 h 644.6 c 0,0 158.332,-51.584 68.872,-210.928 -89.46,-159.34 -281.888,-188.328 -379.884,-187.252 z"
     fill="url(#az)"
     stroke="#000000"
     stroke-width="4px"
     id="path516"
     style="fill:url(#az)" />
  <path
     d="m 4297.16,2834.9704 c 97.992,1.0764 374.68,24.7896 433.68,234.6 38.7416,137.748 -79.036,163.576 -100.084,163.576 h -644.6 c 0,0 -158.332,-51.584 -68.872,-210.928 89.46,-159.34 281.888,-188.328 379.884,-187.252 z"
     fill="url(#ba)"
     stroke="#000000"
     stroke-width="4px"
     id="path518"
     style="fill:url(#ba)" />
  <path
     transform="matrix(4.9688,0,0,3.96992,1891.44,3.18661)"
     d="m 341.45,770.95 a 56.685,44.609787 0 1 1 -113.37,0 56.685,44.609787 0 1 1 113.37,0 z"
     fill="url(#av)"
     filter="url(#bl)"
     opacity="0.6"
     id="path520"
     style="fill:url(#av)" />
  <path
     transform="matrix(4.7812,0,0,3.96992,3039.24,5.21861)"
     d="m 341.45,770.95 a 56.685,44.609787 0 1 1 -113.37,0 56.685,44.609787 0 1 1 113.37,0 z"
     fill="url(#aw)"
     filter="url(#bk)"
     opacity="0.6"
     id="path522"
     style="fill:url(#aw)" />
  <path
     d="m 3583.1411,1213.0005 c -43.616,0 -79.013,40.725 -79.438,91.125 0.2538,-2.3247 0.5055,-4.6389 0.9062,-6.9062 0.5295,-2.9953 1.1947,-5.9621 1.9689,-8.8438 0.7741,-2.8817 1.682,-5.6849 2.6875,-8.4375 1.0055,-2.7526 2.1201,-5.4545 3.3437,-8.0625 1.2236,-2.608 2.5405,-5.1144 3.9689,-7.5625 1.4284,-2.4481 2.974,-4.8211 4.5937,-7.0938 1.6198,-2.2727 3.3273,-4.4494 5.125,-6.5312 1.7978,-2.0818 3.6626,-4.0619 5.625,-5.9375 1.9626,-1.8756 4.0112,-3.6585 6.125,-5.3125 2.1139,-1.654 4.3105,-3.1769 6.5625,-4.5938 2.252,-1.4169 4.5607,-2.7106 6.9375,-3.875 2.3768,-1.1644 4.8243,-2.1973 7.3125,-3.0938 2.4882,-0.8965 5.0076,-1.6682 7.5939,-2.2812 2.5862,-0.613 5.2352,-1.092 7.9061,-1.4062 2.671,-0.3142 5.3826,-0.4687 8.125,-0.4687 2.7426,0 5.4543,0.1545 8.125,0.4687 2.6709,0.3143 5.2891,0.7932 7.875,1.4062 2.5859,0.613 5.1375,1.3848 7.625,2.2812 2.4876,0.8964 4.9053,1.9294 7.2813,3.0938 2.376,1.1644 4.7176,2.4581 6.9687,3.875 2.2513,1.4169 4.4183,2.9398 6.5313,4.5938 2.113,1.654 4.1633,3.4369 6.125,5.3125 1.9615,1.8756 3.8281,3.8556 5.625,5.9375 1.7967,2.0819 3.5063,4.2586 5.125,6.5312 1.6187,2.2726 3.1663,4.6457 4.5937,7.0938 1.4274,2.4481 2.7461,4.9545 3.9689,7.5625 1.2228,2.608 2.3389,5.3099 3.3437,8.0625 1.0048,2.7526 1.914,5.5558 2.6875,8.4375 0.7735,2.8817 1.4085,5.8484 1.9375,8.8438 0.529,2.9954 0.9477,6.0314 1.2189,9.125 0.2711,3.0936 0.4062,6.2299 0.4062,9.4062 0,0.3255 -0.028,0.6442 -0.031,0.9688 0.4261,-3.8356 0.6875,-7.7122 0.6875,-11.688 0,-50.822 -35.557,-92.031 -79.438,-92.031 z"
     fill="url(#bb)"
     filter="url(#bh)"
     opacity="0.9"
     id="path524"
     style="fill:url(#bb)"
     transform="matrix(4,0,0,4,-10741.124,-3609.0316)" />
  <g
     transform="matrix(4,0,0,2.84484,2776.8,575.61045)"
     id="g538">
    <path
       transform="matrix(1.0263,0,0,0.97487,-25.371,-8.6367)"
       d="m 400.26,383.1 c 0,41.816 -25.893,75.715 -57.833,75.715 -31.94,0 -57.833,-33.899 -57.833,-75.715 0,-41.816 25.893,-75.715 57.833,-75.715 31.94,0 57.833,33.899 57.833,75.715 z"
       fill="url(#ay)"
       stroke="#000000"
       id="path526"
       style="fill:url(#ay)" />
    <path
       d="m 311.78,429.7 c 9.9433,0 19.066,-5.5451 26.206,-14.777 -0.10586,9.2e-4 -0.20808,0.0285 -0.31411,0.0285 -1.582,0 -3.1486,-0.1318 -4.6893,-0.37085 -1.5407,-0.23906 -3.063,-0.58914 -4.5547,-1.0555 -1.4917,-0.46636 -2.9625,-1.0582 -4.3976,-1.7401 -1.4351,-0.68195 -2.8249,-1.4534 -4.1957,-2.3392 -1.3708,-0.8858 -2.7174,-1.8889 -4.0162,-2.9668 -1.2988,-1.0779 -2.5503,-2.2505 -3.7694,-3.5088 -1.2191,-1.2583 -2.4133,-2.5953 -3.545,-4.0223 -1.1317,-1.427 -2.2166,-2.9234 -3.2533,-4.5072 -1.0367,-1.5839 -2.0052,-3.2631 -2.9392,-4.9922 -0.93399,-1.7291 -1.824,-3.5005 -2.6476,-5.3631 -0.8236,-1.8625 -1.583,-3.8067 -2.2886,-5.791 -0.7056,-1.9843 -1.3498,-4.0105 -1.9296,-6.1048 -0.57979,-2.0943 -1.1018,-4.2546 -1.5481,-6.4471 -0.44636,-2.1925 -0.81659,-4.4248 -1.1218,-6.7038 -0.30521,-2.279 -0.53908,-4.6067 -0.69554,-6.9606 -0.15647,-2.3539 -0.24681,-4.7433 -0.24681,-7.1603 0,-2.417 0.0903,-4.8064 0.24681,-7.1603 0.15646,-2.3539 0.39029,-4.653 0.69554,-6.932 0.30525,-2.279 0.67548,-4.5398 1.1218,-6.7324 0.44635,-2.1925 0.96835,-4.3243 1.5481,-6.4186 0.57978,-2.0943 1.224,-4.149 1.9296,-6.1333 0.7056,-1.9843 1.465,-3.8999 2.2886,-5.7624 0.80715,-1.8253 1.6894,-3.5802 2.6027,-5.2775 -18.286,6.8104 -31.905,32.708 -31.905,63.701 0,36.181 18.535,65.498 41.418,65.498 z"
       fill="#a8a8a8"
       filter="url(#bf)"
       opacity="0.27132"
       id="path528" />
    <path
       d="m 326.31,292.44 c -13.849,0 -26.554,6.0744 -36.5,16.188 0.14744,-10e-4 0.28982,-0.0312 0.4375,-0.0312 2.2034,0 4.3854,0.14438 6.5312,0.40625 2.1458,0.26187 4.2661,0.64537 6.3438,1.1562 2.0777,0.51083 4.1262,1.1592 6.125,1.9062 1.9988,0.747 3.9346,1.5922 5.8438,2.5625 1.9092,0.9703 3.7848,2.0692 5.5938,3.25 1.809,1.1808 3.552,2.4653 5.25,3.8438 1.698,1.3785 3.3612,2.8431 4.9375,4.4062 1.5763,1.5631 3.0873,3.2024 4.5312,4.9375 1.4439,1.7351 2.7929,3.5746 4.0938,5.4688 1.3009,1.8942 2.5404,3.8347 3.6875,5.875 1.1471,2.0403 2.2048,4.1701 3.1875,6.3438 0.9827,2.1737 1.88,4.3933 2.6875,6.6875 0.8075,2.2942 1.5346,4.6607 2.1562,7.0625 0.6216,2.4018 1.1374,4.8471 1.5625,7.3438 0.4251,2.4967 0.75083,5.0464 0.96875,7.625 0.21792,2.5786 0.34375,5.1961 0.34375,7.8438 0,2.6477 -0.12583,5.2652 -0.34375,7.8438 -0.21792,2.5786 -0.5436,5.0971 -0.96875,7.5938 -0.42515,2.4967 -0.94082,4.9732 -1.5625,7.375 -0.62168,2.4018 -1.3487,4.7371 -2.1562,7.0312 -0.8075,2.2941 -1.7048,4.5451 -2.6875,6.7188 -0.9827,2.1737 -2.0404,4.2722 -3.1875,6.3125 -1.1242,1.9996 -2.353,3.922 -3.625,5.7812 25.469,-7.4606 44.438,-35.831 44.438,-69.781 0,-39.635 -25.816,-71.75 -57.688,-71.75 z"
       fill="url(#ak)"
       id="path530"
       style="fill:url(#linearGradient776)" />
    <g
       fill="#767676"
       opacity="0.34496"
       id="g536">
      <path
         d="m 385.44,364.84 c 0,2.3357 -0.10979,4.6315 -0.3125,6.9062 -0.20271,2.2747 -0.47953,4.5162 -0.875,6.7188 -0.39547,2.2026 -0.89047,4.3811 -1.4688,6.5 -0.57833,2.1189 -1.2489,4.1948 -2,6.2188 -0.7511,2.024 -1.5859,3.9886 -2.5,5.9062 -0.9141,1.9176 -1.9017,3.7625 -2.9688,5.5625 -1.0671,1.8 -2.2275,3.5478 -3.4375,5.2188 -1.21,1.671 -2.4694,3.2818 -3.8125,4.8125 -1.3431,1.5307 -2.7525,2.996 -4.2188,4.375 -1.4663,1.379 -2.9831,2.659 -4.5625,3.875 -1.5794,1.216 -3.2236,2.3645 -4.9062,3.4062 -1.6826,1.0417 -3.4116,1.9877 -5.1875,2.8438 -1.7759,0.8561 -3.6095,1.6222 -5.4688,2.2812 -1.8593,0.659 -3.7549,1.2056 -5.6875,1.6562 -1.9326,0.4506 -3.879,0.80023 -5.875,1.0312 -1.996,0.23097 -4.0442,0.34375 -6.0938,0.34375 -2.0496,0 -4.0665,-0.11273 -6.0625,-0.34375 -1.996,-0.23102 -3.9736,-0.58055 -5.9062,-1.0312 -1.9326,-0.45065 -3.8283,-0.99721 -5.6875,-1.6562 -1.8592,-0.65899 -3.6616,-1.4252 -5.4375,-2.2812 -1.7759,-0.856 -3.5049,-1.802 -5.1875,-2.8438 -1.6826,-1.0418 -3.3268,-2.1902 -4.9062,-3.4062 -1.5794,-1.216 -3.0963,-2.496 -4.5625,-3.875 -1.4662,-1.379 -2.8756,-2.8443 -4.2188,-4.375 -1.3432,-1.5307 -2.6337,-3.1415 -3.8438,-4.8125 -1.2101,-1.671 -2.3392,-3.4188 -3.4062,-5.2188 -1.067,-1.8 -2.0547,-3.6449 -2.9688,-5.5625 -0.9141,-1.9176 -1.7489,-3.8823 -2.5,-5.9062 -0.7511,-2.0239 -1.4217,-4.0999 -2,-6.2188 -0.5783,-2.1189 -1.0733,-4.2975 -1.4688,-6.5 -0.39186,-2.1824 -0.7036,-4.4028 -0.90625,-6.6562 2.8316,37.487 28.178,66.844 59.062,66.844 32.781,0 59.375,-33.047 59.375,-73.812 z"
         id="path532" />
      <path
         d="m 326.06,291.03 c -30.884,0 -56.23,29.326 -59.062,66.812 0.20265,-2.2534 0.51439,-4.4739 0.90625,-6.6562 0.39547,-2.2025 0.89047,-4.3499 1.4688,-6.4688 0.57833,-2.1189 1.2489,-4.1948 2,-6.2188 0.7511,-2.024 1.5859,-3.9886 2.5,-5.9062 0.9141,-1.9176 1.9017,-3.7938 2.9688,-5.5938 1.0671,-1.8 2.1962,-3.5478 3.4062,-5.2188 1.21,-1.671 2.5006,-3.2506 3.8438,-4.7812 1.3432,-1.5306 2.7525,-2.996 4.2188,-4.375 1.4663,-1.379 2.9831,-2.6902 4.5625,-3.9062 1.5794,-1.216 3.2236,-2.3333 4.9062,-3.375 1.6826,-1.0417 3.4116,-1.9877 5.1875,-2.8438 1.7759,-0.8561 3.5783,-1.6222 5.4375,-2.2812 1.8592,-0.659 3.7549,-1.2368 5.6875,-1.6875 1.9326,-0.4507 3.9102,-0.76898 5.9062,-1 1.996,-0.23102 4.013,-0.375 6.0625,-0.375 2.0495,0 4.0977,0.14398 6.0938,0.375 1.9961,0.23102 3.9424,0.5493 5.875,1 1.9326,0.4507 3.8283,1.0285 5.6875,1.6875 1.8592,0.659 3.6928,1.4252 5.4688,2.2812 1.776,0.856 3.5049,1.802 5.1875,2.8438 1.6826,1.0418 3.3268,2.159 4.9062,3.375 1.5794,1.216 3.0963,2.5272 4.5625,3.9062 1.4662,1.379 2.8756,2.8443 4.2188,4.375 1.3432,1.5307 2.6025,3.1103 3.8125,4.7812 1.21,1.6709 2.3705,3.4188 3.4375,5.2188 1.067,1.8 2.0547,3.6761 2.9688,5.5938 0.9141,1.9177 1.7489,3.8823 2.5,5.9062 0.7511,2.0239 1.4217,4.0999 2,6.2188 0.5783,2.1189 1.0733,4.2662 1.4688,6.4688 0.3955,2.2026 0.67229,4.444 0.875,6.7188 0.20271,2.2748 0.3125,4.6018 0.3125,6.9375 0,-40.766 -26.594,-73.812 -59.375,-73.812 z"
         stroke="url(#n)"
         stroke-width="1.0003"
         id="path534"
         style="stroke:url(#linearGradient778)" />
    </g>
  </g>
  <g
     transform="matrix(3.79784,0,0,3.62748,2530.844,278.70261)"
     id="g546">
    <path
       transform="matrix(0.28426,0,0,0.35109,268.42,236.41)"
       d="m 400.26,383.1 c 0,41.816 -25.893,75.715 -57.833,75.715 -31.94,0 -57.833,-33.899 -57.833,-75.715 0,-41.816 25.893,-75.715 57.833,-75.715 31.94,0 57.833,33.899 57.833,75.715 z"
       stroke="#000000"
       id="path540" />
    <path
       d="m 350.72,364.62 c -0.27359,1.8927 -0.46875,3.8459 -0.46875,5.875 0,14.128 7.0302,25.594 15.688,25.594 4.7144,0 8.9076,-3.4686 11.781,-8.8438 -0.16157,0.10137 -0.30481,0.24842 -0.46875,0.34375 -1.1458,0.66628 -2.3468,1.1805 -3.5938,1.5312 -1.247,0.3507 -2.5526,0.53125 -3.875,0.53125 -1.3224,0 -2.5968,-0.18046 -3.8438,-0.53125 -1.247,-0.35079 -2.4479,-0.86497 -3.5938,-1.5312 -1.1459,-0.66623 -2.2309,-1.491 -3.25,-2.4375 -1.0191,-0.9465 -1.9772,-2.0274 -2.8438,-3.2188 -0.8666,-1.1914 -1.6553,-2.5053 -2.3438,-3.9062 -0.6885,-1.4009 -1.2966,-2.8935 -1.7812,-4.4688 -0.4846,-1.5753 -0.83859,-3.2232 -1.0938,-4.9375 -0.19215,-1.2909 -0.26325,-2.6478 -0.3125,-4 z"
       fill="url(#al)"
       opacity="0.8"
       id="path542"
       style="fill:url(#al)" />
    <path
       d="m 365.87,345.85 c -1.4553,0 -2.8332,0.47945 -4.1786,1.1595 0.25424,0.29593 0.55572,0.49057 0.8009,0.81162 0.88558,1.1596 1.6844,2.4824 2.4375,3.9422 0.75309,1.4597 1.4562,3.0759 2.0545,4.7924 0.59829,1.7165 1.111,3.558 1.5321,5.4881 0.13501,0.61866 0.19739,1.2986 0.31339,1.9324 0.33775,-0.11015 0.71417,-0.15248 1.0446,-0.27053 1.8137,-0.64797 3.529,-1.4094 5.1536,-2.2416 1.4784,-0.75728 2.8478,-1.6284 4.1438,-2.5122 -3.0335,-7.9069 -7.828,-13.102 -13.302,-13.102 z"
       fill="url(#am)"
       opacity="0.8"
       stroke="#000000"
       stroke-width="0.35022"
       id="path544"
       style="fill:url(#am)" />
  </g>
  <path
     d="m 3632.24,1800.2504 c -39.6424,28.6056 -18.4304,66.848 3.2284,93.624 21.6592,26.776 146.356,165.728 146.356,165.728 0,0 19.3708,31.2084 56.68,32.2848 37.3096,-1.076 56.68,-32.2848 56.68,-32.2848 0,0 124.7,-138.952 146.356,-165.728 21.656,-26.776 36.414,-67.172 -3.2284,-95.776 -39.6424,-28.6056 -129.14,-59.188 -199.808,-60.264 -70.672,1.0764 -166.624,33.8116 -206.268,62.416 z"
     fill="url(#bd)"
     stroke="#000000"
     stroke-width="4px"
     id="path548"
     style="fill:url(#bd)" />
  <path
     transform="matrix(3.88412,0,0,3.88412,2342.364,188.56261)"
     d="m 345.14,421.55 c -7.682,5.5432 -3.5715,12.954 0.62564,18.143 4.1971,5.189 28.361,32.115 28.361,32.115 0,0 3.7537,6.0477 10.984,6.2562 7.2299,-0.20854 10.984,-6.2562 10.984,-6.2562 0,0 24.164,-26.926 28.361,-32.115 4.197,-5.189 7.0564,-13.017 -0.62561,-18.56 -7.682,-5.5432 -25.025,-11.47 -38.72,-11.678 -13.695,0.20854 -32.289,6.5521 -39.971,12.095 z"
     fill="#fcff00"
     filter="url(#ao)"
     opacity="0.64341"
     id="path550" />
  <path
     d="m 3602.7511,1351.3505 c -2.0537,1.0716 -3.9601,2.1394 -5.4244,3.196 -9.1351,6.5918 -4.2287,15.41 0.7624,21.58 4.991,6.1705 33.7189,38.205 33.7189,38.205 0,0 4.4505,7.1702 13.0481,7.4182 6.8978,-0.1989 10.9969,-4.7004 12.4029,-6.5386 -0.1678,0.079 -0.2659,0.1894 -0.4398,0.2639 -0.8137,0.3491 -1.694,0.6334 -2.6389,0.8503 -0.9448,0.217 -1.9454,0.38 -3.0201,0.4105 -1.0747,-0.03 -2.0752,-0.1935 -3.0201,-0.4105 -0.9448,-0.2169 -1.8251,-0.5012 -2.6389,-0.8503 -1.6275,-0.6981 -3.0096,-1.5919 -4.1049,-2.4923 -1.0953,-0.9004 -1.9102,-1.7953 -2.463,-2.463 -0.5528,-0.6676 -0.8209,-1.1142 -0.8209,-1.1142 0,0 -7.2048,-7.8963 -15.0121,-16.537 -7.8075,-8.6407 -16.241,-18.044 -18.7359,-21.082 -1.2478,-1.5188 -2.4718,-3.1861 -3.4892,-4.9552 -0.5087,-0.8846 -0.9793,-1.8077 -1.3488,-2.7268 -0.3696,-0.9191 -0.645,-1.8506 -0.821,-2.7855 -0.176,-0.9349 -0.2479,-1.8534 -0.176,-2.7855 0.072,-0.9321 0.3002,-1.875 0.6744,-2.7855 0.3742,-0.9105 0.9111,-1.798 1.642,-2.6682 0.5007,-0.5961 1.2163,-1.1601 1.9059,-1.7299 z"
     fill="#ffffab"
     filter="url(#ap)"
     opacity="0.8"
     id="path552"
     transform="matrix(4,0,0,4,-10741.124,-3609.0316)" />
  <path
     d="m 3969.92,1971.9704 c -0.6588,-1.7796 -0.91,-3.4124 -1.75,-5.25 -2.4956,-5.4596 -5.6604,-11.2244 -9.3752,-17.3752 -3.7148,-6.1508 -7.9868,-12.6436 -12.75,-19.25 -9.526,-13.2128 -20.9264,-27.1248 -33.6248,-40.752 -12.6984,-13.6272 -26.7408,-26.9676 -41.248,-39.1248 -7.2548,-6.0788 -14.548,-11.8912 -22,-17.25 -7.452,-5.3588 -15.0212,-10.2208 -22.5,-14.6248 -12.7792,-7.0108 -27.182,-13.3952 -42.376,-19 -15.194,-5.6048 -31.2284,-10.4544 -47.248,-14.5 -16.0196,-4.0456 -31.9844,-7.292 -47.248,-9.6248 -0.176,-0.04 -0.324,0.04 -0.5,0 -10.7324,4.3916 -21.5092,8.7492 -30.3752,13.3752 -2.9396,2.4296 -5.9904,4.8336 -8.1248,7.3752 -3.1156,3.71 -5.4048,7.4932 -7,11.3752 -1.5952,3.882 -2.5684,7.9016 -2.8748,11.8752 -0.308,3.9736 -4e-4,7.8892 0.75,11.8752 0.75,3.986 1.9244,7.9568 3.5,11.8752 1.5752,3.9184 3.5812,7.854 5.75,11.6248 4.3368,7.5424 9.5552,14.65 14.8748,21.1248 10.6392,12.95 46.588,53.04 79.876,89.876 33.2884,36.836 64,70.5 64,70.5 0,0 1.1436,1.904 3.5,4.75 2.3568,2.8464 5.8304,6.6616 10.5,10.5 4.6696,3.8384 10.5616,7.6488 17.5,10.6248 3.4692,1.4884 7.222,2.7 11.25,3.6252 4.028,0.9248 8.2936,1.62 12.8756,1.75 4.5812,-0.132 8.8464,-0.8252 12.8748,-1.75 4.0284,-0.9252 7.7808,-2.1368 11.25,-3.6252 0.7412,-0.32 1.16,-0.7876 1.8752,-1.1248 1.4768,-1.9312 2.8748,-3.75 2.8748,-3.75 0,0 37.3384,-41.804 75.752,-85.124 z"
     opacity="0"
     stroke-width="3.92956px"
     id="path554" />
  <path
     d="m 3644.8611,1340.1805 c -11.031,0.168 -24.474,3.7349 -34.98,8.034 0.041,0.01 0.076,-0.01 0.1173,0 3.5808,0.5472 7.3252,1.3087 11.083,2.2577 3.7582,0.949 7.5196,2.0865 11.083,3.4012 3.5638,1.3147 6.9422,2.8123 9.9398,4.4568 1.7543,1.0331 3.5298,2.1735 5.2778,3.4306 1.748,1.257 3.4588,2.6204 5.1605,4.0463 3.4034,2.8517 6.6972,5.9814 9.6759,9.1775 2.9787,3.1961 5.6528,6.4593 7.8873,9.5586 1.1173,1.5496 2.1194,3.0727 2.9907,4.5154 0.8713,1.4427 1.6137,2.7949 2.1991,4.0756 0.197,0.431 0.2559,0.8141 0.4105,1.2315 6.6834,-7.5376 13.825,-15.61 15.951,-18.238 4.991,-6.1705 8.4021,-15.487 -0.733,-22.079 -9.1352,-6.5918 -29.7781,-13.621 -46.063,-13.869 z"
     fill="#feffbc"
     filter="url(#aq)"
     opacity="0.8"
     id="path556"
     transform="matrix(4,0,0,4,-10741.124,-3609.0316)" />
</svg>
