<?xml version="1.0" encoding="UTF-8" standalone="no"?>
<svg
   xmlns:xapRights="http://ns.adobe.com/xap/1.0/rights/"
   xmlns:x="adobe:ns:meta/"
   xmlns:dc="http://purl.org/dc/elements/1.1/"
   xmlns:cc="http://creativecommons.org/ns#"
   xmlns:rdf="http://www.w3.org/1999/02/22-rdf-syntax-ns#"
   xmlns:svg="http://www.w3.org/2000/svg"
   xmlns="http://www.w3.org/2000/svg"
   xmlns:xlink="http://www.w3.org/1999/xlink"
   xmlns:sodipodi="http://sodipodi.sourceforge.net/DTD/sodipodi-0.dtd"
   xmlns:inkscape="http://www.inkscape.org/namespaces/inkscape"
   version="1.1"
   width="3840px"
   height="2160px"
   id="svg36"
   sodipodi:docname="UsbLinux.svg"
   inkscape:version="0.92.2 5c3e80d, 2017-08-06">
  <sodipodi:namedview
     pagecolor="#ffffff"
     bordercolor="#666666"
     borderopacity="1"
     objecttolerance="10"
     gridtolerance="10"
     guidetolerance="10"
     inkscape:pageopacity="0"
     inkscape:pageshadow="2"
     inkscape:window-width="1680"
     inkscape:window-height="997"
     id="namedview38"
     showgrid="false"
     inkscape:zoom="0.1210376"
     inkscape:cx="4023.8559"
     inkscape:cy="977.82949"
     inkscape:window-x="0"
     inkscape:window-y="0"
     inkscape:window-maximized="1"
     inkscape:current-layer="svg36" />
  <metadata
     id="metadata2">
<?xpacket begin="" id=""?>    <x:xmpmeta>
      <metadata>
        <rdf:RDF>
          <rdf:Description
             rdf:about="">
            <xapRights:Marked>True</xapRights:Marked>
          </rdf:Description>
          <rdf:Description
             rdf:about="">
            <xapRights:WebStatement
               rdf:resource="http://www.xmple.com/wallpaper/linear-grey-black-gradient-highlight-3840x2160-c2-000000-2f4f4f-l-50-a-345-f-21-image/" />
          </rdf:Description>
          <rdf:Description
             rdf:about="">
            <xapRights:UsageTerms>
              <rdf:Alt>
                <rdf:li
                   xml:lang="en">This work is licensed under a &lt;a rel=&quot;license&quot; href=&quot;http://creativecommons.org/licenses/by-nc-nd/4.0/&quot;&gt;Creative Commons Attribution-NonCommercial-NoDerivatives 4.0 International License&lt;/a&gt;.</rdf:li>
              </rdf:Alt>
            </xapRights:UsageTerms>
          </rdf:Description>
          <rdf:Description
             rdf:about="">
            <dc:title>
              <rdf:Alt>
                <rdf:li
                   xml:lang="en">linear grey black gradient highlight dark slate gray 3840x2160 #000000 #2f4f4f 345° 50%</rdf:li>
              </rdf:Alt>
            </dc:title>
          </rdf:Description>
          <rdf:Description
             rdf:about="">
            <cc:license
               rdf:resource="http://creativecommons.org/licenses/by-nc-nd/4.0/" />
          </rdf:Description>
          <rdf:Description
             rdf:about="">
            <cc:attributionName>xmple.com</cc:attributionName>
          </rdf:Description>
          <rdf:Description
             rdf:about="">
            <cc:morePermissions
               rdf:resource="http://www.xmple.com" />
          </rdf:Description>
          <cc:Work
             rdf:about="">
            <dc:format>image/svg+xml</dc:format>
            <dc:type
               rdf:resource="http://purl.org/dc/dcmitype/StillImage" />
            <dc:title>linear grey black gradient highlight dark slate gray 3840x2160 #000000 #2f4f4f 345° 50%</dc:title>
          </cc:Work>
        </rdf:RDF>
      </metadata>
    </x:xmpmeta>
<?xpacket end="r"?>  </metadata>
  <title
     id="title4">linear grey black gradient highlight dark slate gray 3840x2160 #000000 #2f4f4f 345° 50%</title>
  <desc
     id="desc6">linear grey black gradient highlight dark slate gray 3840x2160 #000000 #2f4f4f 345° 50%</desc>
  <style
     type="text/css"
     id="style8"><![CDATA[.x{font:20px verdana;fill:#fff;stroke:#555;stroke-width:20px;opacity:0.35;}.o{stroke:none;opacity:0.01;}]]></style>
  <defs
     id="defs17">
    <linearGradient
       id="p1"
       x1="100%"
       y1="73.817705993878%"
       x2="0%"
       y2="26.182294006122%">
      <stop
         offset="0%"
         style="stop-color:#000000;stop-opacity:1"
         id="stop10" />
      <stop
         offset="50%"
         style="stop-color:#2f4f4f;stop-opacity:1"
         id="stop12" />
      <stop
         offset="100%"
         style="stop-color:#000000;stop-opacity:1"
         id="stop14" />
    </linearGradient>
  </defs>
  <rect
     width="3840"
     height="2160"
     x="0"
     y="0"
     fill="#000000"
     id="rect19" />
  <rect
     width="3840"
     height="2160"
     x="0"
     y="0"
     fill="url(#p1)"
     id="rect21" />
  <path
     class="x o"
     d="M5 5h2v1H6v1h1v1H5zM4 3h4v1h1v5H8v1H4V9H3V4h1v5h4V4H4zm7 1h1v2h1V4h1v2h-1v1h1v2h-1V7h-1v2h-1V7h1V6h-1zm4 0h5v5h-1V5h-1v4h-1V5h-1v4h-1zm6 0h3l-1 1h-1v3h1V5l1-1v5h-2v2h-1zm4-2h1v6h1v1h-2zm3 2h3l-1 1h-1v1h1V5l1-1v3h-2v1h2v1h-3V4zm4 4h1v1h-1zm2-4h3v1h-2v3h2v1h-3zm4 0h3v5h-3l1-1h1V5h-1v3l-1 1zm4 0h5v5h-1V5h-1v4h-1V5h-1v4h-1z"
     id="path23" />
  <text
     x="4"
     y="2154"
     class="x o"
     id="text25">© xmple.com</text>
  <a
     xlink:href="https://www.xmple.com"
     id="a29">
    <text
       text-anchor="end"
       x="3830"
       y="22"
       class="x o"
       id="text27">xmple.com</text>
  </a>
  <text
     xml:space="preserve"
     style="font-style:normal;font-weight:normal;font-size:48px;line-height:1.25;font-family:sans-serif;letter-spacing:0px;word-spacing:0px;fill:#00afda;fill-opacity:1;stroke:none;stroke-width:1.01068211"
     x="2097.9102"
     y="1353.1904"
     id="text4588"
     transform="scale(1.0106821,0.9894308)"><tspan
       sodipodi:role="line"
       id="tspan4586"
       x="2097.9102"
       y="1353.1904"
       style="font-style:italic;font-variant:normal;font-weight:bold;font-stretch:normal;font-family:sans-serif;-inkscape-font-specification:'sans-serif Bold Italic';fill:#1793d1;fill-opacity:1;stroke-width:1.01068211">Based on Archlinux</tspan></text>
  <text
     xml:space="preserve"
     style="font-style:normal;font-weight:normal;font-size:372.38848877px;line-height:1.25;font-family:sans-serif;letter-spacing:0px;word-spacing:0px;fill:#1793d1;fill-opacity:1;stroke:none;stroke-width:11.53506279"
     x="975.68774"
     y="1638.1898"
     id="text4564-3"
     transform="scale(1.0403529,0.9612123)"><tspan
       sodipodi:role="line"
       id="tspan4562-6"
       x="975.68774"
       y="1638.1898"
       style="font-style:italic;font-variant:normal;font-weight:bold;font-stretch:normal;font-family:'Droid Sans';-inkscape-font-specification:'Droid Sans Bold Italic';fill:#1793d1;fill-opacity:1;stroke-width:11.53506279">UsbLinux</tspan></text>
</svg>
